<svg width="216" height="226" viewBox="0 0 216 226" fill="none" xmlns="http://www.w3.org/2000/svg">
<path d="M182.514 14.8077C181.602 17.3173 181.065 19.9688 180.924 22.6618H174.509V22.4681C174.509 22.2901 174.543 22.1121 174.562 21.9445C174.641 21.0215 174.783 20.1061 174.988 19.206C175.319 17.7249 175.797 16.2871 176.414 14.9177C176.424 14.8831 176.445 14.8536 176.473 14.8344C176.502 14.8152 176.536 14.8076 176.569 14.813H182.524L182.514 14.8077Z" fill="#EBEBEB"/>
<path d="M182.321 32.3642H176.414C176.384 32.3681 176.353 32.3603 176.327 32.3421C176.302 32.3239 176.283 32.2965 176.274 32.2647C175.6 30.7266 175.112 29.1004 174.824 27.4266C174.681 26.6187 174.584 25.8021 174.534 24.9814C174.536 24.9535 174.536 24.9254 174.534 24.8976V24.7039H174.63H180.794C180.91 24.7039 180.905 24.7039 180.915 24.8295C180.953 25.3898 180.987 25.95 181.036 26.5051C181.117 27.3858 181.25 28.2602 181.432 29.1231C181.643 30.1906 181.924 31.2404 182.273 32.2647C182.302 32.2909 182.307 32.3223 182.321 32.3642Z" fill="#EBEBEB"/>
<path d="M207.149 34.3854L207.101 34.4796C206.601 35.3097 206.042 36.0958 205.428 36.8306C204.688 37.7352 203.865 38.5563 202.972 39.2811C201.255 40.7052 199.307 41.7706 197.229 42.4227C196.423 42.6755 195.601 42.8662 194.769 42.9935L194.527 43.0354H194.387L194.252 42.9411L194.406 42.8207C196.206 41.4924 197.781 39.838 199.062 37.9302C199.785 36.8515 200.423 35.7076 200.966 34.511C200.976 34.4789 200.996 34.4514 201.022 34.4332C201.049 34.4151 201.08 34.4074 201.111 34.4116H207.149V34.3854Z" fill="#EBEBEB"/>
<path d="M201.242 22.6567H192.951V14.8026H199.424C199.453 14.7989 199.482 14.8063 199.506 14.8236C199.529 14.8409 199.547 14.8668 199.555 14.8968C200.15 16.3734 200.593 17.917 200.874 19.4993C201.022 20.3215 201.129 21.1518 201.193 21.9864C201.208 22.2064 201.227 22.4158 201.242 22.6567Z" fill="#EBEBEB"/>
<path d="M201.193 24.7562C201.193 24.9395 201.193 25.1228 201.169 25.2798C201.131 25.7197 201.106 26.1543 201.048 26.5941C200.971 27.191 200.884 27.7931 200.773 28.3901C200.527 29.7014 200.168 30.9846 199.7 32.2229C199.693 32.259 199.673 32.2909 199.646 32.3122C199.618 32.3336 199.584 32.3428 199.55 32.3381H192.879V24.7562H201.193Z" fill="#EBEBEB"/>
<path d="M191.081 14.8548V22.7089H182.984C182.984 22.5047 182.984 22.311 183.017 22.1172C183.061 21.6774 183.09 21.2376 183.158 20.803C183.254 20.1328 183.361 19.4678 183.491 18.808C183.763 17.4832 184.155 16.1906 184.661 14.9491C184.671 14.9183 184.69 14.8921 184.716 14.8749C184.741 14.8577 184.771 14.8506 184.801 14.8548H191.086H191.081Z" fill="#EBEBEB"/>
<path d="M191.09 24.8558C191.09 27.3237 191.09 29.7882 191.09 32.2491V32.3643H184.618C184.586 32.3681 184.554 32.3597 184.527 32.3406C184.501 32.3214 184.481 32.2927 184.473 32.2596C183.982 30.9842 183.612 29.6578 183.37 28.3011C183.25 27.5995 183.158 26.8978 183.075 26.2067C183.022 25.7459 183.013 25.2799 182.984 24.8139C182.984 24.8139 182.984 24.8139 182.984 24.7668H190.984C191.071 24.7458 191.09 24.772 191.09 24.8558Z" fill="#EBEBEB"/>
<path d="M210.04 22.7141H203.243C203.106 20.0041 202.57 17.3351 201.657 14.8076H207.99C208.022 14.8021 208.054 14.8092 208.082 14.8274C208.109 14.8456 208.13 14.8739 208.14 14.9071C208.865 16.4525 209.392 18.0979 209.706 19.7976C209.873 20.7103 209.984 21.6338 210.04 22.5622V22.7141Z" fill="#EBEBEB"/>
<path d="M210.045 24.6934C210.045 24.8714 210.045 25.0442 210.02 25.217C209.887 27.4255 209.397 29.5914 208.57 31.6155L208.28 32.2962C208.274 32.3192 208.26 32.339 208.241 32.3524C208.223 32.3657 208.201 32.3718 208.179 32.3695H201.846C201.923 32.1339 202.001 31.9087 202.073 31.6783C202.705 29.6471 203.085 27.5344 203.204 25.395C203.204 25.1856 203.228 24.9762 203.238 24.7615C203.238 24.7091 203.238 24.6777 203.306 24.6829C203.327 24.6856 203.348 24.6856 203.369 24.6829L210.045 24.6934Z" fill="#EBEBEB"/>
<path d="M206.965 12.8022V12.8337H200.923C200.893 12.8376 200.863 12.8311 200.837 12.815C200.811 12.799 200.79 12.7743 200.778 12.7446C199.986 11.0348 198.995 9.44225 197.829 8.006C197.138 7.17869 196.38 6.42154 195.562 5.74401C195.156 5.40891 194.735 5.08951 194.324 4.76487L194.257 4.71251L194.339 4.64968C194.339 4.60779 194.339 4.5659 194.295 4.5083C196.833 4.825 199.278 5.72964 201.464 7.16076C203.65 8.59189 205.527 10.516 206.965 12.8022Z" fill="#EBEBEB"/>
<path d="M189.93 42.9202C189.874 42.9388 189.815 42.9494 189.756 42.9516C189.104 42.8598 188.458 42.7234 187.822 42.5432C186.632 42.215 185.477 41.7517 184.376 41.1609C183.115 40.4813 181.933 39.6411 180.857 38.658C180.09 37.9664 179.383 37.2005 178.744 36.3699C178.265 35.7415 177.825 35.0804 177.424 34.3906V34.333H183.056C183.086 34.3311 183.116 34.3397 183.141 34.3576C183.167 34.3755 183.186 34.4018 183.196 34.4325C184.275 36.8519 185.755 39.0365 187.561 40.8781C188.278 41.6062 189.046 42.2732 189.858 42.8731L189.93 42.9202Z" fill="#EBEBEB"/>
<path d="M189.858 4.702C189.601 4.90097 189.307 5.13136 189.016 5.36699C188.053 6.18368 187.157 7.08943 186.338 8.07404C185.227 9.38241 184.279 10.8436 183.52 12.42C183.472 12.5195 183.433 12.6242 183.38 12.7184C183.371 12.7349 183.358 12.7487 183.343 12.7587C183.328 12.7687 183.311 12.7746 183.293 12.776H177.579C178.969 10.5529 180.774 8.67128 182.879 7.25322C184.983 5.83516 187.34 4.91242 189.795 4.54492L189.756 4.62346L189.858 4.702Z" fill="#EBEBEB"/>
<path d="M198.767 34.3906C198.007 35.8438 197.089 37.1923 196.031 38.4067C195.096 39.4943 194.046 40.4591 192.903 41.2813V34.3906H198.767Z" fill="#EBEBEB"/>
<path d="M191.081 34.3959V41.1504C188.739 39.4101 186.81 37.0959 185.449 34.3959H191.081Z" fill="#EBEBEB"/>
<path d="M198.583 12.7708H192.951V6.33569C194.108 7.15096 195.169 8.11437 196.113 9.20506C197.047 10.2991 197.874 11.4939 198.583 12.7708Z" fill="#EBEBEB"/>
<path d="M191.08 6.53467V12.818H185.671C186.996 10.2945 188.849 8.14253 191.08 6.53467Z" fill="#EBEBEB"/>
<path d="M154.405 41.9986L153.8 41.3755L154.013 41.1241L154.622 41.7525L154.405 41.9986Z" fill="#A6A6A6"/>
<path d="M151.644 78.0332V77.6929C152.21 77.6929 152.771 77.6405 153.312 77.5829L153.346 77.9233C152.785 77.9809 152.215 78.0175 151.644 78.0332ZM149.527 77.9966C148.971 77.9599 148.406 77.9076 147.84 77.8343L147.874 77.4992C148.435 77.5672 148.995 77.6248 149.542 77.6562L149.527 77.9966ZM155.429 77.5725L155.367 77.2374C155.918 77.1169 156.464 76.9599 156.981 76.7871L157.078 77.1117C156.546 77.2897 155.995 77.4468 155.429 77.5725ZM145.761 77.4939C145.22 77.384 144.664 77.2583 144.108 77.1169L144.181 76.7818C144.732 76.9232 145.283 77.0489 145.819 77.1588L145.761 77.4939ZM142.063 76.5305C141.532 76.3577 140.99 76.1744 140.454 75.9755L140.55 75.6508C141.087 75.8498 141.623 76.0331 142.15 76.2006L142.063 76.5305ZM159.07 76.2792L158.934 75.9702C159.433 75.7144 159.918 75.4259 160.384 75.1063L160.554 75.3943C160.066 75.722 159.561 76.0175 159.041 76.2792H159.07ZM138.467 75.1901C137.95 74.9701 137.423 74.7398 136.905 74.4937L137.031 74.1847C137.548 74.4256 138.07 74.656 138.583 74.8759L138.467 75.1901ZM162.26 73.9962L162.047 73.7449C162.458 73.3429 162.84 72.907 163.188 72.4411L163.435 72.6558C163.069 73.1332 162.671 73.5812 162.246 73.9962H162.26ZM134.981 73.5459C134.498 73.2894 133.981 73.0223 133.468 72.7291L133.613 72.4306C134.121 72.7134 134.619 72.9543 135.117 73.2422L134.981 73.5459ZM131.598 71.6452C131.114 71.3468 130.631 71.0379 130.147 70.7289L130.307 70.4357C130.79 70.7446 131.274 71.0483 131.757 71.352L131.598 71.6452ZM164.595 70.7394L164.319 70.5771C164.582 70.0506 164.807 69.5026 164.991 68.9382L165.291 69.0481C165.101 69.6304 164.87 70.1958 164.6 70.7394H164.595ZM128.339 69.5194C127.856 69.1843 127.397 68.8492 126.938 68.5036L127.116 68.2261C127.574 68.5752 128.038 68.9103 128.509 69.2314L128.339 69.5194ZM125.217 67.1789C124.767 66.8176 124.317 66.451 123.873 66.0793L124.066 65.8123C124.506 66.1788 124.956 66.5453 125.405 66.9066L125.217 67.1789ZM165.823 66.8176L165.513 66.76C165.607 66.1677 165.665 65.5696 165.687 64.9692H166.002C165.981 65.5886 165.924 66.2059 165.832 66.8176H165.823ZM122.234 64.6551C121.799 64.2676 121.364 63.8749 120.938 63.477L121.146 63.2152C121.572 63.6131 121.997 64.0058 122.432 64.388L122.234 64.6551ZM165.629 62.7177C165.576 62.1313 165.499 61.5291 165.392 60.927L165.697 60.8642C165.808 61.4768 165.89 62.0894 165.944 62.6863L165.629 62.7177ZM119.358 61.969C118.942 61.5606 118.531 61.1469 118.12 60.7333L118.333 60.4872C118.744 60.9008 119.155 61.3092 119.57 61.7124L119.358 61.969ZM116.597 59.1677C116.191 58.7436 115.79 58.3194 115.394 57.8901L115.611 57.644L116.815 58.9216L116.597 59.1677ZM164.885 58.7331C164.725 58.1728 164.542 57.5969 164.334 57.0261L164.629 56.9005C164.837 57.4817 165.025 58.0681 165.185 58.6336L164.885 58.7331ZM113.905 56.2721L112.73 54.9631L112.957 54.7275C113.351 55.1673 113.742 55.6019 114.132 56.0313L113.905 56.2721ZM163.502 54.9474C163.266 54.4238 163.019 53.8688 162.734 53.3347L163.009 53.1671C163.285 53.6907 163.546 54.2562 163.788 54.7955L163.502 54.9474ZM111.294 53.3242L110.129 52.0047L110.357 51.7691L111.522 53.0886L111.294 53.3242ZM161.685 51.3869C161.39 50.8633 161.076 50.3763 160.752 49.8736L161.008 49.6799C161.337 50.2035 161.656 50.7271 161.951 51.2036L161.685 51.3869ZM108.679 50.3397L107.519 49.0202L107.746 48.7845L108.906 50.1093L108.679 50.3397ZM159.485 48.0724C159.152 47.6012 158.794 47.1299 158.431 46.6587L158.673 46.4388C159.041 46.91 159.398 47.3917 159.737 47.863L159.485 48.0724ZM106.05 47.4074L104.88 46.0984L105.102 45.8576L106.277 47.1718L106.05 47.4074ZM157.049 44.9465C156.677 44.5067 156.295 44.0668 155.898 43.627L156.14 43.36C156.543 43.8033 156.93 44.2484 157.3 44.6952L157.049 44.9465ZM103.391 44.47L102.206 43.1819L102.424 42.9411L103.618 44.2292L103.391 44.47ZM100.703 41.5849C100.307 41.1661 99.9006 40.7472 99.4897 40.323L99.7072 40.077C100.118 40.4958 100.524 40.92 100.925 41.3388L100.703 41.5849ZM97.9573 38.7679C97.5464 38.3595 97.1355 37.9511 96.715 37.5427L96.9228 37.2861L98.17 38.5166L97.9573 38.7679ZM95.1536 36.0295C94.733 35.6315 94.3076 35.2388 93.8774 34.8461L94.0804 34.5843C94.5155 34.9822 94.9409 35.375 95.3614 35.7729L95.1536 36.0295ZM92.2531 33.4114L90.9383 32.27L91.1365 32.0029C91.5812 32.3852 92.0163 32.7674 92.4513 33.1496L92.2531 33.4114ZM89.2802 30.8772C88.8403 30.5106 88.3907 30.1494 87.9363 29.7828L88.12 29.5106C88.5792 29.8771 89.0288 30.2384 89.4687 30.6049L89.2802 30.8772ZM86.2299 28.4529C85.7803 28.1073 85.3211 27.7565 84.8522 27.4056L85.031 27.1229C85.5144 27.4737 85.9592 27.8193 86.4136 28.1701L86.2299 28.4529ZM83.1071 26.1438C82.6478 25.8086 82.1741 25.4788 81.7004 25.1489L81.8696 24.8662C82.353 25.196 82.8364 25.5259 83.2811 25.8558L83.1071 26.1438ZM79.9166 23.9446C79.4332 23.6304 78.9498 23.3163 78.4664 23.0073L78.6259 22.7141C79.1093 23.0231 79.5927 23.3372 80.0761 23.6566L79.9166 23.9446ZM76.6584 21.8502L75.2082 20.9653L75.3581 20.6616L76.8325 21.557L76.6584 21.8502ZM73.3423 19.8814C72.8589 19.5987 72.3755 19.3212 71.8534 19.0384L71.9936 18.7347L73.4921 19.5777L73.3423 19.8814ZM69.9584 18.0174C69.475 17.7556 68.9578 17.4938 68.4454 17.2267L68.5807 16.9178C69.0931 17.1796 69.6007 17.4414 70.0986 17.7137L69.9584 18.0174ZM66.5649 16.2371L65.0325 15.4831L65.163 15.1742C65.6803 15.4255 66.1927 15.6978 66.6954 15.9229L66.5649 16.2371ZM63.1037 14.5616L61.552 13.8547L61.6729 13.5405L63.2294 14.2474L63.1037 14.5616Z" fill="#A6A6A6"/>
<path d="M59.5072 12.9907L58.7241 12.6556L58.8401 12.3362L59.6233 12.6713L59.5072 12.9907Z" fill="#A6A6A6"/>
<path d="M60.503 6.47183L63.2778 14.7239L57.4527 9.79673L35.1919 1.05249L60.503 6.47183Z" fill="#DBDBDB"/>
<path d="M56.7083 11.7184L63.2777 14.7239L57.4527 9.79675L56.7083 11.7184Z" fill="#C7C7C7"/>
<path d="M57.4527 9.79673L35.1919 1.05249L53.4501 20.3527L57.4527 9.79673Z" fill="#EBEBEB"/>
<path d="M60.503 6.47179L69.7554 0L35.1919 1.05245L60.503 6.47179Z" fill="#EBEBEB"/>
<path d="M71.0607 177.927L70.9592 177.885L70.4178 177.655L70.5289 177.341L71.0752 177.576L72.042 177.985L71.9308 178.299L71.0607 177.927ZM68.5131 176.812C67.9959 176.581 67.4932 176.351 66.9952 176.115L67.1209 175.812L68.6292 176.508L68.5131 176.812ZM73.8741 179.079L73.9805 178.765L75.5274 179.362L75.4259 179.676L73.8741 179.079ZM77.3691 180.404L77.4658 180.09L79.0272 180.65L78.9305 180.969L77.3691 180.404ZM65.1196 175.21C64.6121 174.958 64.1142 174.686 63.6307 174.45L63.7613 174.152C64.2447 174.403 64.7281 174.675 65.2453 174.906L65.1196 175.21ZM80.8883 181.65L80.9802 181.331L82.5464 181.854L82.4594 182.174L80.8883 181.65ZM61.7841 173.455C61.3007 173.183 60.8173 172.906 60.3339 172.628L60.4838 172.33C60.9543 172.609 61.4377 172.886 61.934 173.162L61.7841 173.455ZM84.4269 182.823L84.5139 182.498L86.0898 183.022L86.0028 183.341L84.4269 182.823ZM58.5356 171.534C58.0522 171.23 57.5688 170.921 57.1241 170.612L57.2885 170.33C57.7429 170.638 58.2118 170.942 58.6903 171.246L58.5356 171.534ZM87.9799 183.907L88.0669 183.587L89.6477 184.058L89.5655 184.383L87.9799 183.907ZM91.5523 184.954L91.6296 184.634L92.0454 184.75L93.22 185.074L93.1475 185.399L91.968 185.074L91.5523 184.954ZM55.3983 169.377C54.9391 169.036 54.4847 168.691 54.0496 168.329L54.2285 168.062C54.6636 168.403 55.1131 168.748 55.5675 169.083L55.3983 169.377ZM95.1537 185.896L95.2213 185.572C95.7531 185.697 96.2897 185.813 96.8311 185.928L96.7731 186.252C96.2462 186.148 95.7144 186.027 95.1682 185.902L95.1537 185.896ZM98.7985 186.645L98.8517 186.315C99.3883 186.415 99.9297 186.509 100.471 186.593L100.428 186.923C99.8959 186.828 99.3545 186.75 98.813 186.65L98.7985 186.645ZM52.4157 166.989C51.9758 166.601 51.5504 166.214 51.154 165.832L51.3619 165.586C51.7535 165.963 52.174 166.345 52.6091 166.727L52.4157 166.989ZM102.482 187.226L102.516 186.896C103.062 186.97 103.604 187.033 104.145 187.095L104.116 187.431C103.57 187.352 103.024 187.3 102.482 187.226ZM49.67 164.313C49.2784 163.884 48.8965 163.449 48.5388 163.009L48.7708 162.79C49.1237 163.219 49.5008 163.654 49.8875 164.083L49.67 164.313ZM106.161 187.65V187.315C106.707 187.368 107.248 187.415 107.795 187.451V187.787C107.253 187.734 106.707 187.692 106.161 187.64V187.65ZM109.849 187.917V187.582L111.488 187.661V187.991L109.849 187.917ZM47.2336 161.271C46.9001 160.789 46.581 160.297 46.2668 159.805L46.523 159.622C46.813 160.109 47.1273 160.596 47.4608 161.067L47.2336 161.271ZM113.557 188.038V187.708H115.196V188.043L113.557 188.038ZM45.2371 157.873C44.9809 157.349 44.7537 156.799 44.5265 156.255L44.8117 156.124C45.0244 156.648 45.2613 157.197 45.5127 157.695L45.2371 157.873ZM117.265 188.048V187.713C117.816 187.713 118.362 187.713 118.908 187.682V188.017C118.362 188.027 117.811 188.043 117.26 188.048H117.265ZM120.968 187.944V187.609L122.611 187.525V187.86L120.968 187.944ZM43.8063 154.155C43.641 153.578 43.5229 152.985 43.4534 152.385L43.7627 152.349C43.8279 152.928 43.9412 153.499 44.1011 154.056L43.8063 154.155ZM124.661 187.729V187.394L126.3 187.268V187.598L124.661 187.729ZM128.354 187.41L128.325 187.08L129.964 186.907L129.993 187.237C129.458 187.314 128.912 187.371 128.354 187.41ZM43.5065 150.118C43.5757 149.717 43.6809 149.324 43.8208 148.945C43.8865 148.767 43.9607 148.592 44.0431 148.422L44.3187 148.568C44.2413 148.736 44.1688 148.914 44.106 149.092C43.9747 149.455 43.8744 149.83 43.8063 150.213L43.5065 150.118ZM132.023 186.996L131.984 186.666L133.618 186.451L133.657 186.781L132.023 186.996ZM135.697 186.472L135.653 186.142C136.214 186.059 136.756 185.975 137.283 185.886L137.326 186.216C136.804 186.305 136.277 186.404 135.716 186.488L135.697 186.472ZM45.4837 146.772L45.2565 146.547C45.6359 146.104 46.0499 145.698 46.494 145.333L46.6777 145.6C46.2491 145.952 45.8496 146.345 45.4837 146.772ZM139.38 185.891L139.332 185.561L140.952 185.263L141.005 185.593L139.38 185.891ZM143.035 185.195L142.977 184.865C143.557 184.744 144.099 184.634 144.592 184.525L144.654 184.854L143.035 185.195ZM48.3841 144.416L48.2391 144.128C48.7245 143.839 49.2231 143.577 49.7328 143.343L49.8537 143.652C49.3364 143.893 48.824 144.144 48.3841 144.416ZM146.67 184.399L146.603 184.069C147.647 183.823 148.207 183.671 148.212 183.666L148.285 183.99C148.285 183.99 147.719 184.142 146.67 184.394V184.399ZM51.7631 142.845L51.6664 142.531C52.1498 142.348 52.7009 142.175 53.2472 142.008L53.3294 142.332C52.7879 142.51 52.261 142.683 51.7631 142.845ZM55.321 141.798L55.2581 141.474C55.7851 141.353 56.3313 141.243 56.8824 141.144L56.9307 141.474C56.3845 141.604 55.8431 141.714 55.321 141.835V141.798ZM58.961 141.154L58.9224 140.824C59.4686 140.751 60.0197 140.688 60.5659 140.636L60.5901 140.971C60.0487 141.055 59.5025 141.117 58.9755 141.191L58.961 141.154ZM62.6349 140.824V140.489C63.1908 140.463 63.7468 140.447 64.2882 140.442V140.777C63.7419 140.819 63.1908 140.835 62.6349 140.861V140.824Z" fill="#A6A6A6"/>
<path d="M153.075 177.561L148.251 183.823L154.772 181.509L176.777 181.461L153.075 177.561Z" fill="#DBDBDB"/>
<path d="M154.864 183.441L148.251 183.823L154.772 181.508L154.864 183.441Z" fill="#C7C7C7"/>
<path d="M154.772 181.508L176.777 181.461L155.198 192.101L154.772 181.508Z" fill="#EBEBEB"/>
<path d="M153.075 177.56L146.868 168.743L176.777 181.461L153.075 177.56Z" fill="#EBEBEB"/>
<path d="M196.684 28.6675H32.4512V166.402H196.684V28.6675Z" fill="#C7C7C7"/>
<path d="M196.684 166.402H32.4512V24.264H160.945L196.684 58.8326V166.402Z" fill="#EBEBEB"/>
<path d="M79.4577 48.8892V63.0789H76.5234V42.9253H78.8293L89.4642 57.4606V42.9515H92.4275V63.0789H90.0105L79.4577 48.8892Z" fill="#2563EB"/>
<path d="M109.39 60.2724V63.0789H96.6282V42.9253H109.153V45.7371H99.5818V51.4967H107.892V54.1148H99.5818V60.2724H109.39Z" fill="#2563EB"/>
<path d="M119.034 43.0091H121.819L124.1 49.8526L126.406 43.0091H129.157L125.986 51.9837L128.765 59.3927L134.566 42.9253H137.771L130.09 63.0789H127.576L124.115 54.0519L120.629 63.0789H118.116L110.434 42.9253H113.63L119.431 59.3927L122.21 51.9837L119.034 43.0091Z" fill="#2563EB"/>
<path d="M150.542 47.664C150.312 47.4113 150.056 47.1882 149.779 46.999C149.41 46.7395 149.02 46.5169 148.614 46.334C148.146 46.1109 147.661 45.9356 147.163 45.8104C146.627 45.6782 146.079 45.6115 145.53 45.6114C144.286 45.6114 143.372 45.8575 142.789 46.3497C142.502 46.5887 142.272 46.899 142.119 47.2544C141.966 47.6099 141.894 47.9999 141.909 48.3918C141.893 48.8152 141.988 49.2348 142.184 49.6013C142.403 49.9449 142.695 50.2268 143.035 50.4234C143.494 50.6919 143.981 50.9011 144.485 51.0465C145.062 51.2315 145.734 51.4252 146.501 51.6277C147.368 51.8494 148.222 52.1256 149.058 52.455C149.751 52.7157 150.403 53.0882 150.992 53.5598C151.51 53.9818 151.927 54.531 152.21 55.162C152.517 55.8871 152.666 56.679 152.645 57.4764C152.668 58.392 152.484 59.2997 152.109 60.1206C151.767 60.8395 151.27 61.4577 150.659 61.9218C150.003 62.4052 149.27 62.7515 148.498 62.9428C147.63 63.1666 146.74 63.2756 145.849 63.2675C144.457 63.2714 143.074 63.0382 141.749 62.5763C140.458 62.1276 139.247 61.4403 138.172 60.5447L139.506 57.8167C139.803 58.1256 140.127 58.4026 140.473 58.644C140.948 58.9693 141.448 59.2496 141.967 59.4818C142.569 59.7465 143.187 59.9635 143.818 60.1311C144.495 60.3153 145.19 60.4067 145.887 60.4034C146.817 60.4612 147.744 60.2344 148.561 59.7488C148.863 59.5477 149.11 59.2623 149.276 58.9224C149.442 58.5826 149.52 58.2007 149.503 57.8167C149.517 57.3606 149.393 56.912 149.15 56.5391C148.878 56.1652 148.533 55.8612 148.14 55.649C147.631 55.3606 147.096 55.1273 146.545 54.9526C145.911 54.7432 145.196 54.5232 144.394 54.2981C143.573 54.0703 142.766 53.7905 141.977 53.4603C141.356 53.213 140.777 52.8594 140.26 52.4131C139.821 52.0142 139.468 51.5155 139.226 50.9522C138.975 50.3103 138.855 49.6174 138.873 48.9206C138.859 48.0161 139.038 47.1203 139.395 46.3026C139.74 45.5514 140.236 44.893 140.845 44.3757C141.479 43.8351 142.205 43.4348 142.982 43.1976C143.85 42.9243 144.751 42.7902 145.655 42.7997C146.844 42.786 148.025 43.006 149.141 43.4489C150.139 43.8491 151.082 44.3952 151.944 45.0721L150.542 47.664Z" fill="#2563EB"/>
<path d="M174.012 36.8986H39.7942V33.0658H170.048L174.012 36.8986Z" fill="#C7C7C7"/>
<path d="M169.004 32.0605H39.7942V31.296H168.221L169.004 32.0605Z" fill="#C7C7C7"/>
<path d="M176.274 39.0872H39.7942V38.328H175.486L176.274 39.0872Z" fill="#C7C7C7"/>
<path d="M189.346 67.8124H39.7942V71.6399H189.346V67.8124Z" fill="#C7C7C7"/>
<path d="M189.346 66.0477H39.7942V66.807H189.346V66.0477Z" fill="#C7C7C7"/>
<path d="M189.346 73.08H39.7942V73.834H189.346V73.08Z" fill="#C7C7C7"/>
<path d="M66.1156 42.9253H39.7893V63.0842H66.1156V42.9253Z" fill="#C7C7C7"/>
<path d="M189.341 51.7271V63.079H163.019V42.9305H180.248L189.341 51.7271Z" fill="#C7C7C7"/>
<path d="M83.615 138.557H145.52V87.034H83.615V138.557Z" fill="#2563EB"/>
<path opacity="0.2" d="M90.2665 99.1137C90.0389 100.37 90.1901 101.672 90.6976 102.829C91.2051 103.985 92.0421 104.934 93.0853 105.536C94.1285 106.138 95.3227 106.362 96.4919 106.173C97.6611 105.984 98.7433 105.394 99.5792 104.488C100.415 103.583 100.96 102.411 101.134 101.144C101.309 99.8779 101.103 98.5844 100.547 97.4544C99.9909 96.3244 99.1146 95.4178 98.0471 94.8681C96.9795 94.3184 95.7771 94.1547 94.6172 94.4012C93.5424 94.631 92.5549 95.2017 91.7802 96.0408C91.0056 96.8799 90.4787 97.9495 90.2665 99.1137Z" fill="black"/>
<path opacity="0.2" d="M100.781 127.682H145.52L123.148 100.512L100.781 127.682Z" fill="black"/>
<path d="M83.615 127.708H120.552L102.081 110.01L83.615 127.708Z" fill="#2563EB"/>
<path opacity="0.3" d="M83.615 127.708H120.552L102.081 110.01L83.615 127.708Z" fill="black"/>
<path d="M145.52 127.682H83.615V138.557H145.52V127.682Z" fill="#2563EB"/>
<path opacity="0.3" d="M145.52 127.682H83.615V138.557H145.52V127.682Z" fill="black"/>
<path d="M133.174 78.5096H83.615V80.3056H133.174V78.5096Z" fill="#A6A6A6"/>
<path d="M119.068 82.4053H83.615V84.2012H119.068V82.4053Z" fill="#A6A6A6"/>
<path d="M76.5234 78.5411H39.7942V80.3371H76.5234V78.5411Z" fill="#A6A6A6"/>
<path d="M76.4943 87.0287H39.7651V88.8247H76.4943V87.0287Z" fill="#DBDBDB"/>
<path d="M76.4943 90.3799H39.7651V92.1759H76.4943V90.3799Z" fill="#DBDBDB"/>
<path d="M76.4943 93.731H39.7651V95.5269H76.4943V93.731Z" fill="#DBDBDB"/>
<path d="M76.4943 97.0819H39.7651V98.8779H76.4943V97.0819Z" fill="#DBDBDB"/>
<path d="M76.4943 100.433H39.7651V102.229H76.4943V100.433Z" fill="#DBDBDB"/>
<path d="M76.4943 103.779H39.7651V105.575H76.4943V103.779Z" fill="#DBDBDB"/>
<path d="M76.4943 107.13H39.7651V108.926H76.4943V107.13Z" fill="#DBDBDB"/>
<path d="M76.4943 110.481H39.7651V112.277H76.4943V110.481Z" fill="#DBDBDB"/>
<path d="M61.2767 113.832H39.7651V115.628H61.2767V113.832Z" fill="#DBDBDB"/>
<path d="M76.4943 120.534H39.7651V122.33H76.4943V120.534Z" fill="#DBDBDB"/>
<path d="M76.4943 123.885H39.7651V125.681H76.4943V123.885Z" fill="#DBDBDB"/>
<path d="M76.4943 127.231H39.7651V129.027H76.4943V127.231Z" fill="#DBDBDB"/>
<path d="M76.4943 130.582H39.7651V132.378H76.4943V130.582Z" fill="#DBDBDB"/>
<path d="M61.2767 133.934H39.7651V135.73H61.2767V133.934Z" fill="#DBDBDB"/>
<path d="M66.0721 82.4368H39.7942V84.2327H66.0721V82.4368Z" fill="#A6A6A6"/>
<path d="M189.341 78.5411H152.612V80.3371H189.341V78.5411Z" fill="#A6A6A6"/>
<path d="M189.312 87.0287H152.583V88.8247H189.312V87.0287Z" fill="#DBDBDB"/>
<path d="M189.312 90.3799H152.583V92.1759H189.312V90.3799Z" fill="#DBDBDB"/>
<path d="M189.312 93.731H152.583V95.5269H189.312V93.731Z" fill="#DBDBDB"/>
<path d="M174.239 97.0819H152.583V98.8779H174.239V97.0819Z" fill="#DBDBDB"/>
<path d="M189.312 103.779H152.583V105.575H189.312V103.779Z" fill="#DBDBDB"/>
<path d="M189.312 107.13H152.583V108.926H189.312V107.13Z" fill="#DBDBDB"/>
<path d="M189.312 110.481H152.583V112.277H189.312V110.481Z" fill="#DBDBDB"/>
<path d="M189.312 113.832H152.583V115.628H189.312V113.832Z" fill="#DBDBDB"/>
<path d="M174.239 117.183H152.583V118.979H174.239V117.183Z" fill="#DBDBDB"/>
<path d="M189.312 123.885H152.583V125.681H189.312V123.885Z" fill="#DBDBDB"/>
<path d="M189.312 127.231H152.583V129.027H189.312V127.231Z" fill="#DBDBDB"/>
<path d="M189.312 130.582H152.583V132.378H189.312V130.582Z" fill="#DBDBDB"/>
<path d="M189.312 133.934H152.583V135.73H189.312V133.934Z" fill="#DBDBDB"/>
<path d="M174.239 137.285H152.583V139.081H174.239V137.285Z" fill="#DBDBDB"/>
<path d="M178.89 82.4368H152.612V84.2327H178.89V82.4368Z" fill="#A6A6A6"/>
<path d="M76.5234 144.217H39.7942V146.013H76.5234V144.217Z" fill="#A6A6A6"/>
<path d="M76.4943 152.71H39.7651V154.506H76.4943V152.71Z" fill="#DBDBDB"/>
<path d="M76.4943 156.061H39.7651V157.857H76.4943V156.061Z" fill="#DBDBDB"/>
<path d="M76.4943 159.407H39.7651V161.203H76.4943V159.407Z" fill="#DBDBDB"/>
<path d="M76.4943 162.758H39.7651V164.554H76.4943V162.758Z" fill="#DBDBDB"/>
<path d="M66.0721 148.118H39.7942V149.914H66.0721V148.118Z" fill="#A6A6A6"/>
<path d="M145.52 144.217H83.7502V146.013H145.52V144.217Z" fill="#A6A6A6"/>
<path d="M145.472 152.71H83.7019V154.506H145.472V152.71Z" fill="#DBDBDB"/>
<path d="M145.472 156.061H83.7019V157.857H145.472V156.061Z" fill="#DBDBDB"/>
<path d="M145.472 159.407H83.7019V161.203H145.472V159.407Z" fill="#DBDBDB"/>
<path d="M145.472 162.758H83.7019V164.554H145.472V162.758Z" fill="#DBDBDB"/>
<path d="M127.938 148.118H83.7502V149.914H127.938V148.118Z" fill="#A6A6A6"/>
<path d="M189.341 144.217H152.612V146.013H189.341V144.217Z" fill="#A6A6A6"/>
<path d="M189.312 152.71H152.583V154.506H189.312V152.71Z" fill="#DBDBDB"/>
<path d="M189.312 156.061H152.583V157.857H189.312V156.061Z" fill="#DBDBDB"/>
<path d="M189.312 159.407H152.583V161.203H189.312V159.407Z" fill="#DBDBDB"/>
<path d="M174.239 162.758H152.583V164.554H174.239V162.758Z" fill="#DBDBDB"/>
<path d="M178.89 148.118H152.612V149.914H178.89V148.118Z" fill="#A6A6A6"/>
<path d="M160.945 24.264L161.859 59.0211L196.684 58.8326L160.945 24.264Z" fill="#DBDBDB"/>
<path d="M189.336 163.376C189.336 163.376 181.645 161.486 177.41 157.281C173.175 153.077 170.841 145.537 170.841 145.537C173.763 146.142 176.644 146.961 179.465 147.987C180.519 149.167 181.4 150.517 182.075 151.987C182.139 151.036 182.139 150.08 182.075 149.129C183.059 149.59 183.979 150.196 184.811 150.93C188.345 154.244 189.336 163.376 189.336 163.376Z" fill="#2563EB"/>
<path d="M175.66 149.197C174.611 148.411 173.543 147.657 172.503 146.861C172.49 146.852 172.48 146.838 172.477 146.821C172.473 146.804 172.476 146.787 172.484 146.772C172.492 146.758 172.506 146.747 172.521 146.743C172.537 146.739 172.553 146.742 172.566 146.751C174.548 148.034 176.501 149.401 178.367 150.841C179.025 151.364 179.672 151.888 180.301 152.412L180.165 152.165C179.938 151.747 179.682 151.338 179.45 150.925C178.966 150.09 178.419 149.301 177.816 148.563C177.816 148.537 177.816 148.5 177.855 148.526C178.454 149.275 179.054 150.013 179.6 150.809C179.861 151.186 180.083 151.574 180.33 151.977C180.451 152.181 180.567 152.391 180.673 152.605C180.712 152.673 180.755 152.747 180.789 152.82C181.785 153.663 182.752 154.548 183.689 155.48C184.253 156.056 184.803 156.651 185.338 157.265C185.043 156.26 184.782 155.239 184.439 154.249C184.439 154.213 184.477 154.197 184.487 154.249C184.821 155.297 185.188 156.344 185.454 157.391C186.044 158.089 186.604 158.805 187.136 159.538L187.107 159.402C187.02 159.009 186.928 158.616 186.832 158.229C186.648 157.475 186.44 156.726 186.208 155.988C185.778 154.451 185.09 153.013 184.178 151.747C184.178 151.715 184.178 151.679 184.216 151.705C185.657 153.651 186.666 155.93 187.165 158.365C187.246 158.714 187.323 159.063 187.397 159.412C187.436 159.601 187.484 159.794 187.513 159.988C187.745 160.329 187.972 160.674 188.19 161.035C189.498 163.216 190.584 165.544 191.429 167.978C192.389 170.703 193.21 173.482 193.889 176.304C193.889 176.356 193.831 176.377 193.812 176.304C192.309 171.429 190.771 166.486 188.2 162.13C187.653 161.208 187.064 160.323 186.44 159.465C185.167 159.377 183.91 159.106 182.703 158.658C181.382 158.178 180.122 157.52 178.952 156.7C178.275 156.223 177.661 155.653 177.018 155.129C177.014 155.127 177.01 155.125 177.007 155.121C177.004 155.117 177.002 155.113 177 155.108C176.999 155.104 176.999 155.098 177 155.094C177.001 155.089 177.002 155.084 177.005 155.08C177.008 155.076 177.012 155.073 177.016 155.071C177.02 155.069 177.025 155.068 177.029 155.068C177.034 155.068 177.038 155.07 177.042 155.072C177.046 155.074 177.05 155.078 177.052 155.082C178.124 156.022 179.31 156.799 180.576 157.391C181.815 158.011 183.111 158.485 184.443 158.805C185.014 158.936 185.589 159.035 186.164 159.119C185.452 158.171 184.696 157.264 183.897 156.401C183.636 156.119 183.37 155.852 183.104 155.579C182.207 154.899 181.254 154.308 180.257 153.815C179 153.155 177.758 152.459 176.511 151.768C175.81 151.38 175.109 150.987 174.398 150.61C174.369 150.61 174.398 150.548 174.427 150.563C175.694 151.223 176.975 151.841 178.251 152.474C179.45 153.071 180.668 153.668 181.819 154.37L181.964 154.464C180.923 153.48 179.848 152.539 178.739 151.642C177.743 150.804 176.709 149.987 175.66 149.197Z" fill="#263238"/>
<path d="M176.1 153.495C176.723 153.789 177.362 154.056 177.98 154.365C178.599 154.674 179.218 155.066 179.822 155.454C179.851 155.454 179.822 155.511 179.798 155.496C179.184 155.181 178.565 154.883 177.956 154.553C177.347 154.223 176.719 153.852 176.08 153.548C176.051 153.532 176.066 153.48 176.1 153.495Z" fill="#263238"/>
<path d="M214.318 121.377C212.896 123.364 212.091 125.787 212.017 128.299C212.017 129.043 212.099 130.085 212.181 131.31C210.263 132.516 208.562 134.09 207.164 135.955C208.695 135 210.451 134.549 212.215 134.656C212.174 135.492 212.076 136.323 211.92 137.143C210.801 137.148 209.693 137.386 208.657 137.845C209.669 137.832 210.671 138.048 211.601 138.478C210.228 143.191 206.153 148.055 194.904 150.118C193.711 144.323 194.415 138.259 196.896 132.965C200.285 125.781 214.318 121.377 214.318 121.377Z" fill="#2563EB"/>
<path d="M191.028 170.329C191.221 168.312 191.464 166.299 191.757 164.292C192.326 160.277 193.083 156.296 194.025 152.364C194.467 150.518 195.009 148.701 195.649 146.924C195.617 146.601 195.604 146.275 195.61 145.95C195.61 145.563 195.61 145.17 195.61 144.777C195.61 143.997 195.654 143.207 195.717 142.442C195.831 140.9 196.062 139.372 196.408 137.871C196.611 137.002 196.853 136.148 197.085 135.29C197.087 135.284 197.091 135.279 197.095 135.276C197.1 135.273 197.106 135.271 197.111 135.271C197.117 135.271 197.122 135.273 197.127 135.276C197.132 135.279 197.135 135.284 197.138 135.29C196.764 136.787 196.486 138.311 196.306 139.85C196.104 141.367 195.978 142.895 195.929 144.427C195.929 144.845 195.905 145.264 195.905 145.683C195.905 145.861 195.905 146.039 195.905 146.207C196.459 144.751 197.092 143.331 197.8 141.955C198.948 139.776 200.24 137.69 201.667 135.714C201.669 135.483 201.7 135.254 201.759 135.033C201.812 134.761 201.865 134.509 201.923 134.216C202.039 133.661 202.165 133.106 202.305 132.556C202.586 131.452 202.958 130.383 203.272 129.294C203.272 129.287 203.275 129.281 203.279 129.276C203.284 129.271 203.29 129.268 203.296 129.268C203.303 129.268 203.309 129.271 203.313 129.276C203.318 129.281 203.321 129.287 203.321 129.294C203.021 130.373 202.837 131.493 202.595 132.588L202.262 134.221L202.102 135.038C202.102 135.038 202.102 135.08 202.102 135.101C202.557 134.476 203.021 133.864 203.495 133.263C205.646 130.535 208 128.027 210.373 125.514C210.663 125.21 210.963 124.906 211.258 124.608L211.292 124.645C209.03 127.205 206.796 129.797 204.684 132.499C204.181 133.141 203.686 133.792 203.2 134.452L203.968 133.902C204.626 133.441 205.288 132.986 205.97 132.572C206.651 132.158 207.342 131.755 208.043 131.378C208.744 131.001 209.532 130.677 210.228 130.237C210.262 130.237 210.286 130.273 210.257 130.284C209.546 130.641 208.859 131.054 208.203 131.52C207.516 131.959 206.835 132.399 206.163 132.865C205.491 133.331 204.834 133.766 204.181 134.227C203.63 134.614 203.093 135.033 202.523 135.389C201.22 137.204 200.018 139.101 198.922 141.07C198.24 142.311 197.617 143.588 197.056 144.898L197.462 144.709L198.491 144.217C199.154 143.898 199.816 143.589 200.483 143.275C201.745 142.678 203.026 142.133 204.263 141.479C204.962 141.125 205.637 140.719 206.284 140.264C206.313 140.264 206.337 140.295 206.308 140.316C204.002 142.039 201.416 143.254 198.859 144.474L197.752 144.997C197.447 145.144 197.143 145.306 196.833 145.432C196.076 147.264 195.44 149.152 194.929 151.082C193.922 154.963 193.106 158.899 192.483 162.873C191.835 166.853 191.4 170.858 191.061 174.885C191.018 175.408 190.979 175.89 190.926 176.388C190.92 176.425 190.902 176.459 190.875 176.483C190.848 176.507 190.814 176.521 190.779 176.521C190.743 176.521 190.709 176.507 190.683 176.483C190.656 176.459 190.637 176.425 190.631 176.388C190.636 174.408 190.829 172.361 191.028 170.329Z" fill="#263238"/>
<path d="M197.873 136.672C198.08 135.431 198.385 134.222 198.694 133.007C198.694 132.97 198.752 133.007 198.743 133.007C198.457 134.201 198.259 135.41 198.047 136.62C197.834 137.829 197.65 139.091 197.491 140.332C197.491 140.332 197.457 140.332 197.462 140.332C197.534 139.105 197.671 137.882 197.873 136.672Z" fill="#263238"/>
<path d="M202.721 140.033C203.503 139.474 204.32 138.976 205.167 138.541C205.578 138.311 205.994 138.091 206.41 137.876C206.825 137.662 207.284 137.463 207.71 137.232C207.739 137.232 207.763 137.264 207.734 137.279C207.323 137.504 206.932 137.777 206.526 138.012C206.119 138.248 205.699 138.536 205.278 138.751C204.469 139.262 203.637 139.729 202.784 140.149C202.77 140.154 202.755 140.154 202.741 140.149C202.728 140.143 202.716 140.133 202.708 140.119C202.701 140.106 202.698 140.09 202.701 140.074C202.703 140.058 202.71 140.044 202.721 140.033Z" fill="#263238"/>
<path opacity="0.1" d="M189.196 148.945C189.196 148.945 182.08 147.102 178.812 141.934C175.689 136.997 174.684 128.577 174.602 127.839C174.732 128.514 176.197 135.871 181.045 139.301C184.753 141.924 188.335 144.081 189.196 148.945Z" fill="#263238"/>
<path d="M182.626 135.625C183.89 136.886 184.8 138.509 185.251 140.306C185.251 140.306 185.251 140.332 185.227 140.306C184.705 138.55 183.801 136.955 182.592 135.656C182.568 135.646 182.602 135.604 182.626 135.625Z" fill="#263238"/>
<path d="M189.196 148.945C189.196 148.945 182.08 147.102 178.812 141.934C175.689 136.997 174.684 128.577 174.602 127.839C174.603 127.821 174.603 127.804 174.602 127.786C174.602 127.786 178.014 133.022 181.601 134.379C185.188 135.735 190.22 140.353 189.196 148.945Z" fill="#2563EB"/>
<path d="M175.854 130.682C176.492 132.097 177.227 133.459 178.053 134.756C178.883 135.987 179.869 137.085 180.983 138.018C181.949 138.85 182.969 139.588 183.951 140.421V140.384C183.767 140.086 183.569 139.798 183.371 139.52C182.96 138.955 182.515 138.421 182.065 137.897C181.181 136.85 180.282 135.839 179.489 134.714C179.048 134.094 178.666 133.427 178.348 132.724C178.348 132.687 178.382 132.672 178.396 132.724C179.552 135.342 181.858 136.997 183.501 139.196C183.733 139.51 183.955 139.835 184.159 140.17C184.322 140.414 184.46 140.677 184.569 140.955C185.467 141.738 186.278 142.63 186.986 143.615C186.926 143.109 186.831 142.608 186.701 142.117C186.534 141.432 186.28 140.775 185.947 140.164C185.943 140.158 185.942 140.151 185.943 140.143C185.945 140.136 185.949 140.129 185.954 140.125C185.96 140.121 185.967 140.119 185.974 140.121C185.981 140.122 185.987 140.127 185.991 140.133C186.335 140.743 186.614 141.393 186.822 142.07C186.969 142.612 187.055 143.171 187.078 143.735C187.431 144.254 187.754 144.796 188.045 145.359C188.016 145.191 187.987 145.029 187.953 144.861C187.813 144.097 187.658 143.327 187.47 142.573C187.135 141.028 186.556 139.558 185.759 138.227C185.759 138.227 185.783 138.169 185.802 138.196C186.617 139.508 187.255 140.94 187.697 142.447C187.924 143.201 188.108 143.971 188.267 144.746C188.345 145.128 188.413 145.505 188.48 145.887C188.514 146.086 188.558 146.285 188.587 146.49C189.293 148.171 189.842 149.925 190.225 151.726C190.924 154.937 191.431 158.193 191.743 161.475C192.107 164.909 192.269 168.365 192.227 171.822C192.227 172.256 192.193 172.686 192.173 173.12C192.173 173.23 192.014 173.246 192.009 173.12C191.937 171.408 191.898 169.696 191.806 167.989C191.714 166.282 191.574 164.575 191.405 162.868C191.079 159.525 190.584 156.204 189.921 152.919C189.345 150.102 188.596 147.265 187.175 144.793C186.467 143.567 185.603 142.455 184.608 141.489C183.607 140.52 182.52 139.667 181.466 138.772C180.394 137.896 179.421 136.887 178.566 135.766C177.696 134.523 176.938 133.192 176.303 131.792L175.791 130.745C175.796 130.682 175.839 130.65 175.854 130.682Z" fill="#263238"/>
<path d="M177.081 131.813C177.548 132.85 178.078 133.852 178.667 134.813C178.667 134.813 178.667 134.86 178.633 134.813C178.024 133.861 177.489 132.856 177.033 131.808C177.018 131.797 177.067 131.781 177.081 131.813Z" fill="#263238"/>
<path d="M215.309 145.537C215.309 145.537 215.42 156.49 209.373 159.674C203.325 162.858 200.086 160.198 195.978 161.245C196.137 160.983 199.071 156.417 203.736 155.161C208.536 153.841 213.854 150.102 215.309 145.537Z" fill="#2563EB"/>
<path opacity="0.1" d="M215.309 145.537C215.309 145.537 215.42 156.49 209.373 159.674C203.325 162.858 200.086 160.198 195.978 161.245C198.15 160.126 200.471 159.383 202.856 159.046C206.67 158.553 213.955 155.846 215.309 145.537Z" fill="black"/>
<path d="M195.581 161.433C196.306 160.724 197.119 160.13 197.998 159.669C198.129 159.601 198.259 159.548 198.395 159.486C198.53 159.423 198.525 159.318 198.598 159.234C198.777 159.03 198.966 158.836 199.163 158.653C199.543 158.298 199.951 157.979 200.382 157.7C201.382 157.061 202.48 156.616 203.504 156.025C203.533 156.025 203.562 156.056 203.533 156.072C203.026 156.36 202.533 156.674 202.04 156.983C201.547 157.292 201.073 157.574 200.589 157.899C200.169 158.192 199.768 158.517 199.391 158.873C199.284 158.972 199.183 159.082 199.081 159.192C199.749 158.95 200.43 158.755 201.121 158.606C202.228 158.365 203.35 158.192 204.457 157.936C204.997 157.81 205.531 157.654 206.057 157.47C206.54 157.03 207.062 156.595 207.536 156.124C208.112 155.552 208.636 154.923 209.102 154.244C209.106 154.238 209.112 154.234 209.119 154.232C209.126 154.231 209.133 154.232 209.139 154.236C209.144 154.241 209.148 154.247 209.15 154.254C209.151 154.262 209.15 154.269 209.146 154.276C208.411 155.35 207.581 156.342 206.666 157.239C206.927 157.129 207.183 157.014 207.439 156.888C209.514 155.886 211.298 154.289 212.597 152.27C212.597 152.244 212.66 152.27 212.641 152.302C211.541 154.041 210.123 155.517 208.474 156.637C207.647 157.196 206.763 157.649 205.839 157.988C204.767 158.348 203.674 158.628 202.567 158.826C201.481 159.017 200.41 159.294 199.362 159.653C198.397 160.005 197.489 160.521 196.674 161.182C195.134 162.478 193.893 164.143 193.048 166.046C191.967 168.574 191.294 171.284 191.057 174.058C191.057 174.173 190.873 174.173 190.883 174.058C191.168 169.424 192.304 164.633 195.581 161.433Z" fill="#263238"/>
<path d="M202.596 157.862C202.912 157.352 203.338 156.933 203.838 156.642C204.412 156.319 204.916 155.867 205.317 155.318C205.317 155.286 205.385 155.318 205.361 155.349C204.999 155.851 204.556 156.278 204.055 156.611C203.507 156.928 203.023 157.363 202.634 157.888C202.634 157.888 202.581 157.888 202.596 157.862Z" fill="#263238"/>
<path d="M199.386 169.518L199.115 175.545L198.269 193.944H185.584L184.743 175.545L184.468 169.518H199.386Z" fill="#37474F"/>
<path d="M199.386 169.518L199.115 175.545H184.743L184.468 169.518H199.386Z" fill="#263238"/>
<path d="M200.28 167.005H183.578V172.748H200.28V167.005Z" fill="#37474F"/>
<path d="M63.6357 225.298C86.7533 225.298 105.494 222.421 105.494 218.873C105.494 215.325 86.7533 212.448 63.6357 212.448C40.5181 212.448 21.7776 215.325 21.7776 218.873C21.7776 222.421 40.5181 225.298 63.6357 225.298Z" fill="#EBEBEB"/>
<path d="M89.8215 219.182C88.7 219.575 56.8 219.124 55.5963 218.271C55.1129 217.957 54.9244 212.92 54.8277 206.825V206.631C54.8277 205.375 54.7939 204.081 54.7891 202.772C54.7891 202.589 54.7891 202.411 54.7891 202.249L56.336 184.326L77.6783 184.556L75.5707 202.317V203.018L75.4402 206.684V207.061C75.4402 207.061 87.5785 213.15 88.8112 214.239C90.0439 215.328 90.9382 218.8 89.8215 219.182Z" fill="#D3766A"/>
<path d="M89.8215 219.182C88.7 219.575 56.8 219.125 55.5963 218.271C55.1129 217.957 54.9244 212.92 54.8277 206.825V206.631C54.8277 205.375 54.7939 204.081 54.7891 202.772C54.7891 202.589 54.7891 202.411 54.7891 202.249L75.5755 202.317V203.018L75.445 206.684V207.061C75.445 207.061 87.5833 213.15 88.816 214.239C90.0487 215.328 90.9382 218.8 89.8215 219.182Z" fill="#EBEBEB"/>
<path d="M90.0296 219.292C88.8984 219.685 56.5634 219.219 55.3403 218.36C54.8569 218.035 54.6587 212.93 54.5669 206.752L75.4162 206.987C75.4162 206.987 87.7189 213.166 88.9516 214.265C90.1843 215.365 91.1656 218.878 90.0296 219.292Z" fill="#455A64"/>
<path opacity="0.1" d="M70.4081 219.229C62.8573 219.041 55.9059 218.732 55.3403 218.339C54.8569 218.014 54.6587 212.909 54.5669 206.731L59.2753 206.783L70.4081 219.229Z" fill="black"/>
<path d="M89.5848 217.863C84.1658 217.643 62.2917 217.302 56.9211 217.528C56.8776 217.528 56.8776 217.559 56.9211 217.564C62.2869 217.91 84.161 218.062 89.5848 217.962C89.696 217.957 89.7008 217.868 89.5848 217.863Z" fill="#263238"/>
<path d="M77.5093 207.584C75.3389 207.516 72.8155 208.312 71.4426 210.202C71.3894 210.276 71.4861 210.359 71.5538 210.323C73.4634 209.273 75.4713 208.448 77.5432 207.862C77.5694 207.849 77.591 207.827 77.6049 207.799C77.6188 207.772 77.6243 207.74 77.6205 207.709C77.6167 207.678 77.6039 207.65 77.5839 207.627C77.5639 207.605 77.5378 207.59 77.5093 207.584Z" fill="#263238"/>
<path d="M79.1771 208.296C77.0066 208.233 74.4832 209.029 73.1104 210.914C73.0572 210.988 73.1539 211.066 73.2167 211.035C75.1274 209.984 77.137 209.158 79.2109 208.574C79.2348 208.559 79.2539 208.536 79.2661 208.509C79.2782 208.483 79.2827 208.453 79.2791 208.423C79.2755 208.393 79.2639 208.365 79.2457 208.343C79.2276 208.32 79.2037 208.304 79.1771 208.296Z" fill="#263238"/>
<path d="M80.8399 209.045C78.6743 208.982 76.1461 209.773 74.7732 211.663C74.72 211.736 74.8215 211.815 74.8844 211.778C76.7962 210.741 78.8038 209.924 80.8738 209.343C80.9103 209.339 80.9436 209.318 80.9662 209.287C80.9889 209.255 80.9991 209.215 80.9946 209.176C80.9901 209.136 80.9713 209.1 80.9423 209.076C80.9133 209.051 80.8765 209.04 80.8399 209.045Z" fill="#263238"/>
<path d="M58.3664 211.962C55.9494 211.93 55.8914 216.03 58.3277 216.056C60.7641 216.082 60.8076 211.998 58.3664 211.962Z" fill="#263238"/>
<path d="M76.8132 206.752H53.8369C53.8369 206.752 58.4631 148.631 58.2842 147.61C58.0522 146.312 56.6987 140.426 54.9004 132.745C54.3348 130.336 53.7257 127.76 53.0924 125.085C51.3763 117.854 49.4911 109.952 47.8427 103.093C45.3773 92.7937 43.4485 84.7668 43.4485 84.7668H62.9201C62.9201 84.7668 65.1873 92.5581 68.049 102.7C72.7091 119.173 78.9353 141.851 79.5493 147.364C80.5354 156.265 76.8132 206.752 76.8132 206.752Z" fill="#263238"/>
<path d="M75.7933 202.505C72.2838 202.427 73.2941 202.395 69.7845 202.359C68.0685 202.359 56.7809 202.233 55.176 202.521C55.1422 202.521 55.1422 202.589 55.176 202.599C56.7809 202.887 68.0685 202.777 69.7845 202.762C73.2941 202.725 72.2838 202.694 75.7933 202.615C75.8067 202.615 75.8197 202.609 75.8292 202.599C75.8387 202.589 75.844 202.575 75.844 202.56C75.844 202.546 75.8387 202.532 75.8292 202.521C75.8197 202.511 75.8067 202.505 75.7933 202.505Z" fill="#37474F"/>
<path d="M62.6058 144.06C61.8517 140.463 60.7254 136.939 59.7489 133.405C57.7573 126.231 55.7527 119.061 53.7353 111.895C52.7298 108.31 51.7211 104.727 50.7092 101.145C50.1919 99.3389 49.6795 97.5272 49.1575 95.726C48.6354 93.9248 48.065 92.2074 47.6009 90.4271C47.4172 89.6993 47.3108 90.0972 47.5525 91.0188C48.036 92.8776 48.5194 94.7312 49.0028 96.5847C49.9889 100.25 50.9847 103.915 51.9902 107.58C53.9819 114.869 55.9896 122.154 58.0135 129.436L61.0589 140.384C61.5716 142.122 61.9849 143.891 62.2964 145.683C62.5694 147.557 62.6375 149.458 62.4995 151.349C62.2819 155.161 61.8759 158.962 61.5327 162.758C61.1894 166.554 60.8801 170.371 60.5658 174.178C59.9213 181.756 59.2768 189.333 58.6322 196.908C58.55 197.866 58.4727 198.824 58.405 199.788C58.405 200.107 58.8304 200.086 58.8594 199.788C59.6184 192.295 60.1985 184.781 60.8462 177.273C61.494 169.764 62.1417 162.345 62.7798 154.878C62.9394 153.003 63.1231 151.124 63.1279 149.239C63.1336 147.497 62.9584 145.76 62.6058 144.06Z" fill="#37474F"/>
<path d="M60.6964 84.7668C59.3477 96.0977 56.7711 117.335 54.8955 132.745C50.5062 114.073 43.4436 84.7668 43.4436 84.7668H60.6964Z" fill="#37474F"/>
<path d="M65.4822 219.517C64.3656 219.91 32.4608 219.591 31.2571 218.742C30.7737 218.428 30.5658 213.391 30.4498 207.296V207.103C30.4208 205.846 30.4014 204.553 30.3966 203.244C30.3966 203.06 30.3966 202.882 30.3966 202.72C30.3241 193.918 30.909 184.792 30.909 184.792L51.7632 184.938L51.1782 202.699V203.401L51.0622 207.066V207.448C51.0622 207.448 63.1812 213.48 64.4187 214.58C65.6563 215.679 66.5989 219.125 65.4822 219.517Z" fill="#D3766A"/>
<path d="M65.4821 219.517C64.3654 219.91 32.4606 219.591 31.257 218.742C30.7735 218.428 30.5657 213.391 30.4497 207.296V207.103C30.4207 205.846 30.4013 204.553 30.3965 203.244C30.3965 203.06 30.3965 202.882 30.3965 202.72H51.1829V203.422L51.0669 207.087V207.469C51.0669 207.469 63.1811 213.48 64.4186 214.58C65.6561 215.679 66.5988 219.125 65.4821 219.517Z" fill="#EBEBEB"/>
<path d="M65.8542 219.638C64.7182 220.03 32.3832 219.564 31.1602 218.706C30.6768 218.381 30.4834 213.276 30.3867 207.097L51.236 207.333C51.236 207.333 63.5436 213.506 64.7714 214.611C65.9993 215.716 66.9902 219.245 65.8542 219.638Z" fill="#455A64"/>
<path d="M65.4097 218.245C59.9907 218.025 38.1118 217.679 32.7411 217.91C32.6976 217.91 32.6976 217.941 32.7411 217.946C38.1069 218.292 59.9859 218.47 65.4049 218.339C65.5209 218.323 65.5209 218.245 65.4097 218.245Z" fill="#263238"/>
<path d="M53.3341 207.945C51.1636 207.883 48.6354 208.679 47.2673 210.563C47.2142 210.637 47.3109 210.715 47.3737 210.684C49.2844 209.633 51.294 208.808 53.3679 208.223C53.3917 208.208 53.4109 208.185 53.423 208.159C53.4352 208.132 53.4397 208.102 53.4361 208.072C53.4325 208.042 53.4209 208.015 53.4027 207.992C53.3846 207.97 53.3607 207.953 53.3341 207.945Z" fill="#263238"/>
<path d="M54.9969 208.679C52.8313 208.616 50.3031 209.406 48.9302 211.297C48.877 211.37 48.9785 211.449 49.0414 211.412C50.9518 210.364 52.9595 209.539 55.0308 208.951C55.0551 208.937 55.0749 208.915 55.0875 208.888C55.1 208.862 55.1048 208.832 55.1011 208.802C55.0974 208.772 55.0855 208.745 55.0669 208.723C55.0482 208.701 55.0238 208.685 54.9969 208.679Z" fill="#263238"/>
<path d="M56.6649 209.412C54.4944 209.344 51.971 210.139 50.5981 212.03C50.5449 212.103 50.6416 212.187 50.7093 212.15C52.6189 211.1 54.6268 210.275 56.6987 209.689C56.7249 209.676 56.7465 209.654 56.7604 209.627C56.7743 209.599 56.7798 209.568 56.776 209.537C56.7722 209.506 56.7594 209.477 56.7394 209.454C56.7194 209.432 56.6933 209.417 56.6649 209.412Z" fill="#263238"/>
<path d="M62.2819 84.7668C62.2819 84.7668 61.8323 94.862 59.7005 102.852C59.5265 103.512 59.3428 104.161 59.1397 104.784C57.1864 105.645 55.3095 106.697 53.5322 107.926C53.5322 107.926 53.305 116.047 53.0827 125.1C52.8313 135.222 52.5993 146.511 52.6283 148.909C52.8216 157.868 51.5938 207.129 51.5938 207.129L28.6223 207.228C28.6223 207.228 32.7748 152.202 32.7458 148.919C32.7023 143.641 33.8576 120.325 34.7519 103.323C35.2885 92.8461 35.7719 84.7668 35.7719 84.7668H62.2819Z" fill="#263238"/>
<path d="M50.806 202.688C47.2965 202.626 48.3068 202.589 44.7972 202.568C43.0763 202.568 31.7936 202.505 30.1887 202.798C30.1549 202.798 30.1549 202.872 30.1887 202.877C31.7936 203.16 43.0812 202.997 44.7972 202.971C48.3068 202.919 47.2965 202.893 50.806 202.798C50.8168 202.795 50.8263 202.787 50.833 202.778C50.8397 202.768 50.8433 202.756 50.8433 202.743C50.8433 202.731 50.8397 202.719 50.833 202.709C50.8263 202.699 50.8168 202.692 50.806 202.688Z" fill="#37474F"/>
<path d="M37.6766 88.3902C37.256 102.271 36.8065 116.141 36.2264 130.027C35.6463 143.914 34.8729 157.868 33.8094 171.759C33.2051 179.514 32.6395 190.431 31.8757 198.17C31.8757 198.222 31.9434 198.243 31.9531 198.17C33.6257 184.399 34.5586 167.371 35.3804 153.517C36.2022 139.662 36.7581 125.765 37.1932 111.911C37.4397 104.057 37.6283 96.2024 37.8458 88.3483C37.841 88.2541 37.7056 88.2646 37.6766 88.3902Z" fill="#37474F"/>
<path d="M60.097 104.188C57.8122 105.218 55.6155 106.463 53.5323 107.91C53.5185 107.922 53.5088 107.939 53.505 107.958C53.5012 107.977 53.5034 107.996 53.5113 108.013C53.5193 108.031 53.5324 108.044 53.5485 108.052C53.5647 108.06 53.5829 108.062 53.6 108.057C55.814 106.889 58.0764 105.769 60.2324 104.47C60.267 104.451 60.293 104.417 60.3048 104.377C60.3166 104.337 60.3131 104.293 60.2952 104.256C60.2772 104.218 60.2463 104.19 60.2091 104.177C60.1719 104.164 60.1316 104.168 60.097 104.188Z" fill="#37474F"/>
<path d="M60.2275 95.6265C60.0728 96.5061 59.8746 97.3858 59.7006 98.2445C59.5266 99.1032 59.4105 99.9148 59.2172 100.726C59.0528 101.521 58.6821 102.247 58.1488 102.821C57.8491 103.119 57.5204 103.386 57.182 103.659C57.0128 103.81 56.8243 103.952 56.6454 104.104C56.6454 103.983 56.689 103.868 56.7083 103.748L56.8678 102.742C56.9838 101.994 57.095 101.25 57.1965 100.501C57.4044 99.0351 57.5978 97.5533 57.8781 96.0977C57.8781 96.0401 57.8105 96.0192 57.796 96.0977C57.4576 97.5376 57.0853 98.9618 56.7905 100.412C56.6454 101.124 56.133 104.643 56.1089 104.889C56.0847 105.135 56.0654 105.413 56.0557 105.664C56.0267 105.925 56.0267 106.189 56.0557 106.449C56.0593 106.462 56.0666 106.474 56.0766 106.482C56.0866 106.49 56.0988 106.494 56.1113 106.494C56.1238 106.494 56.1359 106.49 56.146 106.482C56.156 106.474 56.1633 106.462 56.1669 106.449C56.263 106.204 56.3328 105.948 56.3747 105.685C56.4327 105.434 56.4859 105.161 56.5246 104.926C56.5246 104.831 56.5536 104.737 56.5633 104.643C56.8823 104.434 57.182 104.156 57.4817 103.92C57.7815 103.685 58.1295 103.423 58.4486 103.145C59.0121 102.63 59.4183 101.942 59.6136 101.171C59.8124 100.345 59.9418 99.4998 60.0003 98.6477C60.1018 97.6476 60.1743 96.6423 60.3048 95.6474C60.3193 95.5898 60.2372 95.5636 60.2275 95.6265Z" fill="#37474F"/>
<path d="M52.9716 57.4974C58.2552 69.7341 66.855 84.6151 71.5489 84.8873C72.361 84.9292 75.6337 84.5156 76.9679 81.2221C79.2254 75.6614 81.3621 64.5609 81.6763 59.2777C81.8165 56.9372 67.2949 54.5338 66.8502 56.9948C66.2218 60.4453 65.8834 64.1525 65.5402 64.1106C64.9649 64.0373 62.5769 60.1521 56.9645 53.696C49.989 45.6534 51.009 52.9316 52.9716 57.4974Z" fill="#F7A9A0"/>
<path d="M83.8033 52.9524C83.4311 56.2459 80.2261 62.6601 78.9016 63.8801C77.5771 65.1001 67.3385 59.5918 66.9905 57.6754C66.6424 55.759 68.7065 44.7946 70.9447 42.4279C73.1829 40.0612 84.1949 49.5385 83.8033 52.9524Z" fill="#F7A9A0"/>
<path d="M67.0388 55.7381C66.4076 53.1444 65.4305 50.6644 64.1384 48.3762C62.5093 45.711 59.7877 41.9515 61.0978 40.9462C63.7468 38.8884 70.4759 48.2767 70.4759 48.2767C70.4759 48.2767 72.8349 52.9316 70.3743 55.225C69.9158 55.6348 69.3618 55.8995 68.7733 55.99C68.1847 56.0806 67.5845 55.9934 67.0388 55.7381Z" fill="#F7A9A0"/>
<path d="M73.4099 53.4552L76.9339 51.7116L72.2787 40.6635L67.8169 42.8678L73.4099 53.4552Z" fill="#FFC727"/>
<path d="M67.8169 42.8626L69.9487 46.9049L73.4099 53.4552L76.9339 51.7168L72.2787 40.6635L67.8169 42.8626Z" fill="#407BFF"/>
<path opacity="0.1" d="M67.8169 42.8626L69.9487 46.9049L74.0528 44.8785L72.2787 40.6635L67.8169 42.8626Z" fill="black"/>
<path d="M68.0919 44.6937L73.6379 41.9535L71.716 37.3897L66.17 40.1299L68.0919 44.6937Z" fill="#407BFF"/>
<path d="M61.7502 40.3074L66.2555 38.6424L63.1472 31.2543L59.0334 33.8514L61.7502 40.3074Z" fill="#407BFF"/>
<path d="M64.7473 28.699L69.3397 39.6005L76.963 36.9616L96.5941 35.3541L85.5725 9.17896L71.5827 24.1855L64.7473 28.699Z" fill="#407BFF"/>
<path d="M87.5738 23.9866C90.6289 31.2542 94.8587 36.2756 97.0147 35.2127C99.1707 34.1498 98.4359 27.3952 95.376 20.1328C92.316 12.8704 88.091 7.83851 85.935 8.90667C83.7791 9.97482 84.5138 16.7398 87.5738 23.9866Z" fill="#407BFF"/>
<path opacity="0.2" d="M96.5015 33.4326C98.2674 32.5601 97.4974 26.6252 94.7817 20.1766C92.0661 13.728 88.433 9.20763 86.6672 10.0801C84.9013 10.9526 85.6712 16.8875 88.3869 23.3361C91.1026 29.7848 94.7356 34.3051 96.5015 33.4326Z" fill="black"/>
<path d="M88.908 23.0703C89.2705 23.929 89.6476 24.7563 90.0343 25.5365C90.5195 25.6723 91.0302 25.6565 91.5074 25.491C91.9847 25.3255 92.4089 25.017 92.731 24.6012C93.0532 24.1855 93.2601 23.6795 93.3278 23.1417C93.3955 22.6039 93.3212 22.0563 93.1136 21.5623L92.5915 20.3214C92.3842 19.8304 92.0532 19.4129 91.6365 19.1166C91.2199 18.8203 90.7346 18.6573 90.2363 18.6463C89.738 18.6354 89.2469 18.777 88.8196 19.0547C88.3922 19.3325 88.0459 19.7352 87.8203 20.2166C88.1345 21.1487 88.5019 22.1069 88.908 23.0703Z" fill="#407BFF"/>
<path d="M65.6899 42.1296L74.4057 38.9146L68.3873 24.6306L60.4353 29.6468L65.6899 42.1296Z" fill="#407BFF"/>
<path opacity="0.2" d="M65.6899 42.1296L74.4057 38.9146L68.3873 24.6306L60.4353 29.6468L65.6899 42.1296Z" fill="black"/>
<path opacity="0.2" d="M85.1953 11.5299C84.953 12.5857 84.8907 13.6805 85.0116 14.7606C85.1059 15.8422 85.2805 16.9138 85.5337 17.965C85.6449 18.4886 85.7996 19.0123 85.9398 19.5359C86.08 20.0595 86.2588 20.5831 86.4232 21.07C86.5875 21.557 86.7761 22.0858 86.9743 22.5833C87.1725 23.0807 87.361 23.5833 87.5737 24.0755C88.4009 26.0601 89.3944 27.9583 90.5418 29.7462C91.1183 30.633 91.7653 31.4634 92.4754 32.2281C93.1791 33.0065 94.0255 33.6165 94.9601 34.0188C94.055 33.5668 93.2442 32.9201 92.5769 32.1181C91.8883 31.3424 91.2654 30.5013 90.7158 29.6048C89.609 27.8164 88.6467 25.9279 87.8396 23.9603C86.9847 22.0154 86.2829 19.9959 85.7416 17.9232C85.4646 16.8953 85.2657 15.8445 85.147 14.7815C84.9873 13.7029 85.0037 12.6024 85.1953 11.5299Z" fill="black"/>
<path d="M93.8629 6.55566C93.4423 7.15781 93.0556 7.77567 92.6689 8.39353C92.2822 9.01138 91.9148 9.65019 91.5474 10.2838C91.18 10.9173 90.8223 11.5561 90.4839 12.2106L89.9763 13.1898C89.8168 13.5196 89.6476 13.8443 89.4929 14.1846C89.7056 13.8862 89.899 13.5772 90.1068 13.2735L90.6869 12.3468C91.0785 11.7289 91.4459 11.0953 91.8133 10.4618C92.1807 9.82821 92.5335 9.18417 92.8719 8.5349C93.2103 7.88563 93.5535 7.23112 93.8629 6.55566Z" fill="#263238"/>
<path d="M95.2019 28.7985C95.985 28.7985 96.7633 28.7671 97.5416 28.7252C98.3199 28.6833 99.0933 28.6205 99.8716 28.5576C100.65 28.4948 101.423 28.411 102.197 28.3115L103.357 28.1597C103.744 28.0969 104.13 28.0445 104.517 27.9712C104.126 27.9712 103.734 27.9712 103.347 27.9712L102.177 28.0288C101.399 28.0654 100.621 28.1335 99.8474 28.1963C99.074 28.2592 98.2957 28.343 97.5223 28.4424C96.7488 28.5419 95.9705 28.6624 95.2019 28.7985Z" fill="#263238"/>
<path d="M108.408 22.0544C107.282 22.2691 106.161 22.5257 105.025 22.7823C103.889 23.0388 102.786 23.3059 101.675 23.5939C100.563 23.8818 99.4461 24.1698 98.3391 24.484L96.6762 24.9605C96.1251 25.128 95.5692 25.2851 95.0229 25.4841C95.5885 25.3794 96.1493 25.2537 96.71 25.1385L98.3923 24.7615C99.5138 24.5049 100.63 24.2379 101.742 23.9447C102.854 23.6514 103.971 23.3687 105.078 23.0545C106.185 22.7404 107.316 22.4157 108.408 22.0544Z" fill="#263238"/>
<path d="M100.108 5.05811C99.3205 5.98489 98.5568 6.93262 97.7978 7.88559C97.0389 8.83855 96.2944 9.80199 95.55 10.7654C94.8055 11.7289 94.0998 12.7132 93.3553 13.6976L92.2821 15.1847C91.9293 15.7083 91.5715 16.1795 91.2332 16.6927C91.6295 16.2319 92.0114 15.7554 92.3982 15.2894L93.5438 13.8652C94.3076 12.9175 95.0472 11.9488 95.7917 10.9853C96.5361 10.0219 97.2661 9.03752 97.9815 8.04791C98.6969 7.05829 99.4221 6.0739 100.108 5.05811Z" fill="#263238"/>
<path d="M93.4858 20.9601C94.7282 20.4051 95.9512 19.8186 97.1791 19.227C98.4069 18.6353 99.5961 18.0174 100.834 17.4153C102.071 16.8131 103.251 16.1691 104.464 15.5303L106.267 14.5616C106.862 14.2265 107.461 13.9071 108.056 13.5615C107.432 13.8338 106.818 14.127 106.199 14.4098L104.362 15.2947C103.135 15.8863 101.945 16.5042 100.703 17.1063C99.4607 17.7085 98.2861 18.3525 97.0776 18.9913C95.869 19.6301 94.6702 20.2794 93.4858 20.9601Z" fill="#263238"/>
<path d="M68.1601 46.8159C68.8224 48.4181 70.1904 46.6535 70.1904 46.6535C70.1904 46.6535 68.7885 49.7114 70.0647 51.078C71.3409 52.4446 72.8782 50.1984 72.9893 50.0308C72.9168 50.1931 71.6987 53.0363 73.1102 54.272C74.5217 55.5077 75.8173 53.052 75.8946 52.8897C75.8704 53.0677 75.5852 55.4083 76.8614 56.0785C79.0464 57.2356 79.9262 51.2665 81.5698 50.0936C81.5698 50.0936 83.721 52.874 83.7983 52.9421C83.7983 52.9421 84.7651 47.2871 83.165 44.978C82.9384 44.639 82.612 44.3936 82.2394 44.2822C81.8669 44.1709 81.4705 44.2002 81.1154 44.3654C81.1154 44.3654 81.5988 42.5799 80.5256 41.5693C79.9697 41.0457 78.708 41.5693 78.708 41.5693C78.7997 41.1594 78.7855 40.7301 78.667 40.3284C78.5485 39.9267 78.3302 39.568 78.0361 39.2916C77.224 38.6266 76.1025 39.234 76.1025 39.234C76.1025 39.234 75.8318 37.6632 74.8021 37.2914C72.7186 36.4956 66.7582 43.3601 68.1601 46.8159Z" fill="#F7A9A0"/>
<path d="M78.7323 41.5222C78.7323 41.5222 78.7323 41.4541 78.6888 41.4751C75.8701 43.4926 73.8121 46.5372 72.8879 50.057C72.8589 50.1827 72.9459 50.324 72.9894 50.1827C73.7193 47.8264 76.6343 43.559 78.7323 41.5222Z" fill="#263238"/>
<path d="M75.9286 53.1724C76.8664 49.7428 78.7275 46.9834 81.014 44.4439C81.043 44.4124 81.014 44.3706 80.9657 44.3915C79.5155 45.3026 78.2344 47.0828 77.3305 48.5804C76.465 49.9357 75.9448 51.5142 75.8222 53.1567C75.8174 53.2038 75.8947 53.2457 75.9286 53.1724Z" fill="#263238"/>
<path d="M70.1519 46.6693C70.1084 46.7897 70.3162 46.7269 70.2776 46.8421C70.118 47.3657 69.3881 50.4655 70.2776 51.0624C71.0027 51.5389 72.0952 50.8163 72.4142 50.3607L73.2215 49.2088L72.8348 50.5911C72.6578 51.2043 72.5729 51.8443 72.5834 52.4866C72.577 52.7796 72.6275 53.0709 72.7316 53.3415C72.8357 53.612 72.9911 53.856 73.1877 54.0574C73.3736 54.2465 73.6138 54.3606 73.8682 54.3806C74.1226 54.4007 74.3755 54.3254 74.5847 54.1674C75.0471 53.802 75.4163 53.3156 75.6579 52.7536L76.3685 51.2299L76.1558 52.9159C76.1002 53.3853 76.1002 53.8604 76.1558 54.3297C76.1888 54.7784 76.3435 55.2065 76.6005 55.5602C76.7218 55.7135 76.8802 55.8271 77.0578 55.8881C77.2355 55.9492 77.4253 55.9553 77.606 55.9057C77.9955 55.7296 78.3307 55.4372 78.5728 55.0627C79.1067 54.2603 79.5803 53.4128 79.9892 52.5285C80.2116 52.0939 80.4339 51.6488 80.6756 51.2195C80.8963 50.7736 81.203 50.3843 81.5748 50.078C81.2438 50.4235 80.9764 50.8339 80.7868 51.2875C80.579 51.7326 80.3904 52.1881 80.1971 52.6437C79.836 53.5769 79.3941 54.4711 78.8774 55.3141C78.6027 55.7752 78.2095 56.1393 77.7462 56.3613C77.4828 56.4538 77.2002 56.4609 76.9332 56.3819C76.6661 56.3028 76.4261 56.141 76.2428 55.9162C75.9139 55.4876 75.7103 54.9626 75.6579 54.4082C75.5954 53.8868 75.5954 53.3588 75.6579 52.8374L76.1413 52.9997C75.866 53.667 75.4344 54.2446 74.8893 54.6753C74.5818 54.9074 74.2087 55.015 73.8354 54.979C73.4772 54.9291 73.1407 54.7651 72.8686 54.5077C72.6169 54.2471 72.4187 53.932 72.2871 53.5828C72.1555 53.2336 72.0934 52.8583 72.1048 52.4813C72.0967 51.7696 72.1997 51.0615 72.4094 50.3869L72.8251 50.6173C72.3997 51.1828 71.2589 52.1358 70.0455 51.5493C68.5663 50.5702 69.8715 47.2558 70.1519 46.6693Z" fill="#263238"/>
<path d="M70.2051 46.6536C69.9447 46.8747 69.6545 47.0513 69.3447 47.1772C69.2203 47.2323 69.0848 47.2512 68.9517 47.2319C68.8185 47.2126 68.6923 47.1558 68.5857 47.0672C68.3789 46.8347 68.2394 46.5416 68.1845 46.2242C68.1072 45.8839 68.0395 45.5174 67.9863 45.1351C67.8615 45.5033 67.8104 45.8959 67.8364 46.2871C67.8382 46.5033 67.8797 46.717 67.9586 46.9157C68.0374 47.1144 68.152 47.2941 68.2957 47.4442C68.4692 47.5919 68.6798 47.6795 68.8999 47.6956C69.1073 47.6969 69.3112 47.6371 69.4897 47.5228C69.8084 47.3241 70.0593 47.0192 70.2051 46.6536Z" fill="#263238"/>
<path d="M84.0304 63.5136L66.8115 56.3925C66.8115 56.3925 65.6368 63.8068 65.4338 63.8435C65.2308 63.8801 60.1985 55.9632 54.7988 51.0884C49.3992 46.2136 50.1195 52.277 51.7582 57.3717C53.861 63.922 62.6204 84.5312 66.6181 85.9711C70.6159 87.411 76.7697 84.4003 77.6591 82.5729C78.8821 80.0544 84.0304 63.5136 84.0304 63.5136Z" fill="#37474F"/>
<path opacity="0.1" d="M55.316 51.5807V66.2993H55.1807C54.881 65.5819 54.5861 64.8855 54.3105 64.2049V50.6906L54.794 51.099L55.316 51.5807Z" fill="black"/>
<path d="M81.7971 65.7704C81.2266 65.4406 75.8512 63.32 74.6716 62.8854L71.1379 61.5868C69.9198 61.147 68.7209 60.6286 67.4496 60.2883C67.439 60.287 67.4283 60.2896 67.4192 60.2956C67.4102 60.3016 67.4031 60.3106 67.3993 60.3213C67.3954 60.3321 67.3949 60.3439 67.3979 60.355C67.4009 60.366 67.4071 60.3757 67.4157 60.3825C68.5856 60.9637 69.8327 61.3878 71.0413 61.8696L74.6088 63.2885C75.8028 63.7545 81.1638 65.7285 81.7777 65.8595C81.8309 65.8752 81.8357 65.7914 81.7971 65.7704Z" fill="#263238"/>
<path opacity="0.1" d="M73.961 85.2486C71.6938 86.2225 68.8224 86.7828 66.6132 85.9869C62.6154 84.5522 53.861 63.943 51.7485 57.3927C50.7188 54.1935 50.0469 50.5858 51.033 49.6014L73.961 85.2486Z" fill="black"/>
<path d="M65.4387 63.9377C65.3227 64.9431 65.2598 65.9536 65.2115 66.9642C65.1631 67.9748 65.1486 68.9906 65.1535 70.0011C65.1583 71.0117 65.1873 72.0275 65.2646 73.038C65.3266 74.0501 65.4444 75.0572 65.6175 76.054C65.6175 75.5304 65.5837 75.0435 65.5837 74.5408C65.5837 74.0381 65.5837 73.5302 65.5547 73.0276L65.5305 70.0011L65.5015 66.9694V65.4562C65.4628 64.9483 65.4628 64.4456 65.4387 63.9377Z" fill="#263238"/>
<path d="M64.6072 89.4375C64.1914 90.0134 34.636 92.3278 34.4764 92.1393C34.0269 91.6157 38.9625 57.8535 45.2226 51.5597C46.5713 50.2088 52.0628 49.9889 52.8314 50.235C53.7063 50.5282 56.4086 54.759 57.7428 58.2724C60.4257 65.2887 64.9745 88.9139 64.6072 89.4375Z" fill="#EBEBEB"/>
<path d="M51.5166 58.3928L52.2901 55.2407L54.4025 56.6597L54.0351 59.2777L52.3046 59.6547L51.5166 58.3928Z" fill="#263238"/>
<path d="M52.3044 59.6546L52.8604 80.9864L56.9983 87.7357L58.3905 79.6773L54.035 59.2776L52.3044 59.6546Z" fill="#263238"/>
<path d="M67.9233 96.4067C67.9233 96.4067 64.0561 96.7261 58.8256 97.124C58.2552 95.1814 56.9694 90.4271 56.892 90.4376C56.8485 90.5528 55.9542 95.4223 55.7028 97.3701C50.6464 97.7524 44.9229 98.1817 40.4079 98.4802C35.8928 98.7786 32.5235 98.9462 32.335 98.8205C32.1465 98.6949 33.9302 91.8618 34.1042 90.8669C35.4288 83.0128 37.6138 67.3988 39.939 61.4035C40.961 58.6781 42.1933 56.0508 43.6225 53.5494C43.7675 53.3086 43.9029 53.0834 44.0286 52.8845L44.9567 51.4236L54.9971 68.3675C54.9971 68.0167 54.1511 51.5702 54.1511 51.5702C56.8702 55.2299 59.0235 59.343 60.5272 63.7493C63.2826 72.0171 64.5782 84.3847 65.7142 90.2281C65.7093 90.2281 67.9088 96.2863 67.9233 96.4067Z" fill="#37474F"/>
<path d="M54.9922 68.3676C55.2484 70.1949 55.4514 72.0328 55.6496 73.8654C55.8478 75.6981 56.017 77.5307 56.1814 79.379C56.3457 81.2274 56.4859 83.0443 56.6019 84.9031L56.7711 87.6677C56.8098 88.5893 56.8678 89.5108 56.892 90.4376C56.7566 89.5213 56.6551 88.605 56.5343 87.6887L56.2297 84.9397C56.0315 83.1019 55.8623 81.2745 55.7028 79.4261C55.5433 77.5778 55.3934 75.7609 55.2822 73.9021C55.171 72.0433 55.0502 70.2159 54.9922 68.3676Z" fill="#263238"/>
<path d="M54.6637 74.965C54.6838 75.145 54.6545 75.3275 54.5793 75.4895C54.5042 75.6516 54.3866 75.786 54.2412 75.876C54.0958 75.9659 53.9292 76.0075 53.7622 75.9953C53.5951 75.9832 53.4351 75.918 53.3021 75.8078C53.1691 75.6976 53.0691 75.5474 53.0146 75.3759C52.9601 75.2044 52.9535 75.0194 52.9957 74.8439C53.0378 74.6684 53.1268 74.5102 53.2515 74.3893C53.3763 74.2683 53.5312 74.1899 53.6969 74.1639C53.8091 74.1462 53.9235 74.153 54.0332 74.184C54.143 74.2149 54.2459 74.2693 54.336 74.3439C54.4261 74.4185 54.5015 74.5119 54.5577 74.6186C54.614 74.7253 54.65 74.843 54.6637 74.965Z" fill="#263238"/>
<path d="M54.1269 81.2221C54.5968 81.2221 54.9777 80.8095 54.9777 80.3006C54.9777 79.7916 54.5968 79.379 54.1269 79.379C53.657 79.379 53.2761 79.7916 53.2761 80.3006C53.2761 80.8095 53.657 81.2221 54.1269 81.2221Z" fill="#263238"/>
<path d="M55.2823 85.4057C55.3025 85.5857 55.2731 85.7682 55.198 85.9302C55.1228 86.0923 55.0052 86.2267 54.8598 86.3167C54.7145 86.4066 54.5479 86.4482 54.3808 86.436C54.2138 86.4239 54.0537 86.3587 53.9208 86.2485C53.7878 86.1383 53.6878 85.9881 53.6333 85.8166C53.5788 85.6452 53.5722 85.4601 53.6143 85.2846C53.6565 85.1091 53.7455 84.9509 53.8702 84.83C53.9949 84.709 54.1498 84.6306 54.3155 84.6046C54.4277 84.5876 54.5418 84.595 54.6513 84.6262C54.7608 84.6574 54.8635 84.7119 54.9534 84.7864C55.0433 84.8609 55.1187 84.954 55.1752 85.0603C55.2316 85.1666 55.2681 85.284 55.2823 85.4057Z" fill="#263238"/>
<path d="M42.7767 53.497C32.5913 62.7334 19.0076 82.9395 20.7865 87.5158C22.7782 92.6052 36.9758 79.6617 37 78.8291C37 78.1956 42.7187 65.6499 47.0113 56.5392C51.304 47.4284 45.2952 51.2141 42.7767 53.497Z" fill="#F7A9A0"/>
<path d="M37.0966 78.8554C37.6187 77.5045 45.3145 60.9794 47.5817 55.7329C49.8489 50.4863 48.3407 48.638 42.8492 53.0834C37.3577 57.5288 24.8084 72.9805 21.4971 81.5415C18.3115 89.7831 22.3479 90.2019 28.0231 86.8456C32.6686 84.0914 37.0966 78.8554 37.0966 78.8554Z" fill="#37474F"/>
<path opacity="0.1" d="M23.1695 87.0551V88.7882C22.8355 88.8303 22.4981 88.8303 22.1641 88.7882V87.0655L23.1695 87.0551Z" fill="black"/>
<path d="M43.3518 65.252C43.5486 64.8521 43.7871 64.4779 44.0624 64.1367C44.3293 63.7927 44.6291 63.4803 44.9567 63.2047C44.7587 63.6022 44.5203 63.9745 44.2461 64.3148C43.9806 64.6617 43.6807 64.976 43.3518 65.252Z" fill="#263238"/>
<path d="M38.0103 76.4467C38.5227 75.1639 39.0689 73.902 39.6248 72.6454C40.1807 71.3887 40.7608 70.1478 41.3313 68.8963C41.9017 67.6449 42.5059 66.4197 43.115 65.1944C43.7241 63.9692 44.338 62.7439 44.9906 61.5292C44.4782 62.8068 43.9271 64.0687 43.3761 65.3253C42.825 66.582 42.2352 67.8229 41.6696 69.0744C41.1041 70.3258 40.495 71.551 39.8859 72.7763C39.2768 74.0015 38.6725 75.2425 38.0103 76.4467Z" fill="#263238"/>
<path d="M52.2077 55.1255C50.5013 55.7486 46.8516 52.9578 45.44 50.7325C45.3482 50.5754 45.44 48.8632 45.44 46.7688C45.44 45.5016 45.44 44.0879 45.3047 42.8051L52.9232 44.0146C52.6353 45.6672 52.5363 47.3519 52.6283 49.0307C52.6442 49.2084 52.6765 49.3838 52.725 49.5544C52.7282 49.5822 52.7282 49.6103 52.725 49.6381C52.9763 50.6277 53.8368 54.5234 52.2077 55.1255Z" fill="#F7A9A0"/>
<path d="M52.7202 49.5543C52.7202 49.5543 52.7202 49.6067 52.7202 49.6381C52.4707 49.7017 52.2169 49.7437 51.9613 49.7637C47.6396 50.0884 46.1314 44.4753 45.7979 42.8835L47.7025 43.1872L52.9039 44.0198C52.6159 45.6706 52.5169 47.3536 52.609 49.0307C52.632 49.2084 52.6692 49.3836 52.7202 49.5543Z" fill="#263238"/>
<path d="M52.6527 49.1877L51.8744 54.2196L45.3871 49.6433L44.2607 51.8738C44.2607 51.8738 51.3281 59.9426 51.275 59.5133L52.2418 55.1097L55.3404 57.2827L53.7258 50.3659L52.6527 49.1877Z" fill="#EBEBEB"/>
<path d="M54.712 53.8007C54.4123 52.6698 54.1367 51.5178 53.7887 50.4025C53.7887 50.3659 53.7114 50.3606 53.7114 50.4025C53.7114 51.5649 54.9005 55.8847 55.1084 56.9371C54.9779 56.8429 52.2611 55.0574 52.2466 55.0993C51.9904 55.8219 51.2798 59.0316 51.2508 59.3143C50.1341 58.0367 45.9043 53.4133 44.6475 52.2456C44.6401 52.2407 44.6314 52.2387 44.6227 52.2398C44.6141 52.2409 44.6061 52.2451 44.5999 52.2517C44.5938 52.2584 44.5899 52.2671 44.5889 52.2764C44.5879 52.2858 44.5898 52.2952 44.5943 52.3032C45.6336 53.6908 51.2557 59.9322 51.3185 59.8955C51.714 58.3646 52.0367 56.8127 52.2853 55.2459C52.7687 55.6596 55.5676 57.7383 55.5386 57.5655C55.3239 56.2958 55.0479 55.0392 54.712 53.8007Z" fill="#263238"/>
<path d="M43.6418 33.4796C43.0713 36.4851 45.2225 44.7843 47.306 46.4703C50.3224 48.9208 54.9003 48.7218 56.7276 44.8995C58.5017 41.1767 55.519 30.4165 53.2277 28.919C49.8535 26.7041 44.4732 29.0394 43.6418 33.4796Z" fill="#F7A9A0"/>
<path d="M51.009 37.9983C51.009 37.9983 50.9752 38.0349 51.009 38.0611C51.1637 38.6161 51.2604 39.2811 50.8398 39.6319C51.3764 39.3754 51.2411 38.4957 51.009 37.9983Z" fill="#263238"/>
<path d="M50.3998 37.5531C49.549 37.7312 49.9454 39.5533 50.7333 39.391C51.5213 39.2287 51.1104 37.4013 50.3998 37.5531Z" fill="#263238"/>
<path d="M53.8997 37.2129C53.8997 37.2129 53.948 37.2129 53.9528 37.2495C54.0543 37.8203 54.267 38.4538 54.7795 38.5219V38.5533C54.1849 38.6109 53.9142 37.7679 53.8997 37.2129Z" fill="#263238"/>
<path d="M54.238 36.506C55.0647 36.2233 55.5239 38.0297 54.7601 38.2915C53.9963 38.5533 53.5468 36.7416 54.238 36.506Z" fill="#263238"/>
<path d="M49.7278 37.2339C49.9166 37.0697 50.0973 36.8949 50.2693 36.7103C50.4895 36.5661 50.6595 36.347 50.7527 36.0872C50.7659 36.001 50.7521 35.9124 50.7136 35.8356C50.675 35.7588 50.6139 35.6981 50.54 35.6631C50.3841 35.6156 50.2193 35.6144 50.0628 35.6596C49.9064 35.7047 49.764 35.7945 49.6505 35.9197C49.3957 36.1414 49.2239 36.4559 49.1671 36.8046C49.1591 36.8801 49.17 36.9566 49.1987 37.026C49.2274 37.0954 49.2728 37.1552 49.3301 37.1991C49.3874 37.243 49.4546 37.2694 49.5246 37.2755C49.5945 37.2816 49.6647 37.2673 49.7278 37.2339Z" fill="#263238"/>
<path d="M54.8085 35.2651C54.5719 35.2808 54.3345 35.2808 54.0979 35.2651C53.8474 35.2951 53.5947 35.2363 53.3776 35.0975C53.3167 35.0395 53.2755 34.961 53.2606 34.8746C53.2457 34.7883 53.2579 34.699 53.2954 34.621C53.3891 34.478 53.5168 34.3651 53.6648 34.2941C53.8128 34.2232 53.9758 34.1968 54.1366 34.2179C54.4677 34.2015 54.7923 34.3212 55.0454 34.553C55.0969 34.6092 55.1327 34.6801 55.1486 34.7575C55.1644 34.8349 55.1596 34.9156 55.1348 34.9901C55.11 35.0647 55.0662 35.1301 55.0084 35.1788C54.9507 35.2275 54.8813 35.2574 54.8085 35.2651Z" fill="#263238"/>
<path d="M51.6858 41.4488C51.8663 41.6398 52.0817 41.7877 52.3181 41.8833C52.5545 41.9789 52.8067 42.0199 53.0586 42.0039C53.2774 41.996 53.494 41.9537 53.7016 41.8782L53.8224 41.8311L53.9336 41.7839C53.9597 41.7693 53.981 41.7465 53.9948 41.7184C54.0086 41.6904 54.0142 41.6584 54.0109 41.6269C54.0137 41.6078 54.0137 41.5884 54.0109 41.5693V41.5221C53.9288 41.0823 53.7499 40.4278 53.7499 40.4278C53.9094 40.4697 54.7167 40.6477 54.678 40.4278C54.2118 38.4785 53.5639 36.5855 52.7444 34.7781C52.7203 34.7205 52.6332 34.7781 52.6526 34.8147C53.078 36.6212 53.7934 38.3334 54.2478 40.1398C53.9526 40.0712 53.6496 40.05 53.3487 40.077C53.2955 40.1084 53.7209 41.3284 53.7451 41.5274C53.4239 41.6475 53.0835 41.696 52.7446 41.6699C52.4056 41.6438 52.0751 41.5437 51.7728 41.3755C51.6761 41.3651 51.6471 41.4122 51.6858 41.4488Z" fill="#263238"/>
<path d="M53.4598 41.8468C53.2871 42.1953 53.0339 42.4894 52.725 42.7003C52.5543 42.809 52.3569 42.8584 52.1594 42.8416C51.7292 42.7945 51.676 42.3861 51.676 42.0196C51.688 41.8255 51.7221 41.6338 51.7775 41.4489C52.2839 41.7749 52.8741 41.9145 53.4598 41.8468Z" fill="#263238"/>
<path d="M52.725 42.7003C52.5543 42.8091 52.3569 42.8584 52.1594 42.8417C51.7292 42.7946 51.676 42.3862 51.676 42.0196C51.8965 41.9848 52.1213 42.0335 52.3125 42.1575C52.5036 42.2816 52.6494 42.4733 52.725 42.7003Z" fill="#FF98B9"/>
<path d="M55.8237 32.092C53.4357 34.8985 48.8868 32.6784 48.8868 32.6784C48.7875 33.4084 48.4731 34.0841 47.9906 34.6049C47.508 35.1257 46.883 35.4638 46.2087 35.5687C46.2087 35.5687 46.7501 40.9043 45.4885 41.208C43.5548 41.674 41.4617 34.7362 41.7759 33.1915C42.0901 31.6469 43.6467 30.8877 43.6467 30.8877C43.6452 29.9992 43.9563 29.1435 44.5168 28.4948C45.6045 27.081 50.453 27.4476 50.453 27.4476C50.5747 26.726 50.8494 26.0449 51.2555 25.4579C51.3526 25.3134 51.4758 25.1918 51.6174 25.1003C51.7591 25.0087 51.9164 24.9492 52.0799 24.9252C52.2434 24.9012 52.4097 24.9133 52.5687 24.9608C52.7278 25.0082 52.8763 25.09 53.0054 25.2013C52.8473 25.6445 52.7828 26.1204 52.8169 26.5941C52.9136 28.1649 54.0592 27.8874 53.7547 26.5103C53.6584 25.9906 53.3924 25.5259 53.0054 25.2013C53.3825 24.1541 54.2429 23.6305 54.9052 23.9761C56.1089 24.5782 57.8105 29.7462 55.8237 32.092Z" fill="#263238"/>
<path d="M50.5255 40.899C50.0938 40.9616 49.6547 40.8915 49.258 40.6969C48.8613 40.5023 48.523 40.1909 48.2817 39.7983C48.0404 39.4056 47.9057 38.9475 47.8931 38.476C47.8804 38.0045 47.9902 37.5386 48.2101 37.1314C48.4299 36.7242 48.7508 36.3921 49.1364 36.1728C49.522 35.9535 49.9567 35.856 50.3909 35.8912C50.8252 35.9264 51.2416 36.093 51.5927 36.3721C51.9438 36.6511 52.2155 37.0313 52.3769 37.4694C52.509 37.8252 52.5641 38.2089 52.5382 38.5914C52.5122 38.9738 52.4058 39.3447 52.2271 39.6757C52.0484 40.0067 51.8022 40.289 51.5072 40.501C51.2123 40.7131 50.8765 40.8492 50.5255 40.899ZM49.955 36.2389C49.7895 36.2661 49.6273 36.3135 49.4716 36.3803C49.0006 36.5895 48.6209 36.9853 48.4098 37.487C48.1987 37.9888 48.1721 38.5588 48.3353 39.0811C48.4985 39.6034 48.8394 40.0386 49.2885 40.2983C49.7376 40.558 50.2611 40.6225 50.7526 40.4788C51.2441 40.335 51.6665 39.9938 51.9339 39.5246C52.2013 39.0554 52.2936 38.4935 52.1919 37.9532C52.0903 37.4129 51.8024 36.9348 51.3868 36.6164C50.9713 36.2979 50.4593 36.1629 49.955 36.2389Z" fill="#455A64"/>
<path d="M55.5917 39.4696C54.707 39.5481 53.8272 38.6371 53.5855 37.3752C53.4605 36.7617 53.5146 36.1213 53.7402 35.5425C53.8266 35.2921 53.9706 35.0697 54.1586 34.8964C54.3465 34.7231 54.5722 34.6047 54.8142 34.5522C55.0563 34.4998 55.3066 34.5151 55.5417 34.5968C55.7767 34.6785 55.9886 34.8238 56.1573 35.0189C56.5744 35.4569 56.8563 36.0239 56.9645 36.6421C57.2159 37.9983 56.6648 39.2601 55.727 39.4801L55.5917 39.4696ZM54.9971 34.82H54.8811C54.6882 34.8731 54.51 34.9755 54.3611 35.1185C54.2123 35.2615 54.0972 35.441 54.0254 35.642C53.822 36.1537 53.7746 36.7223 53.8901 37.2652C54.1076 38.4433 54.9101 39.2706 55.6835 39.0978C56.457 38.925 56.892 37.8359 56.6745 36.6526C56.581 36.106 56.3326 35.6046 55.9639 35.2179C55.8356 35.0801 55.6818 34.9734 55.5127 34.9048C55.3435 34.8362 55.1628 34.8073 54.9826 34.82H54.9971Z" fill="#455A64"/>
<path d="M52.3673 37.7679L52.116 37.5742C52.3818 37.171 53.0828 36.527 53.7741 37.0191L53.6097 37.3019C52.9813 36.8673 52.3915 37.7365 52.3673 37.7679Z" fill="#455A64"/>
<path d="M42.4721 41.1609L42.1724 41.0876C42.2014 40.9305 42.5107 39.5849 43.1392 39.2812C43.7676 38.9775 47.8766 38.2968 48.0554 38.2654L48.1038 38.6005C46.9146 38.7995 43.7289 39.3702 43.2697 39.5901C42.8105 39.81 42.5398 40.7944 42.4721 41.1609Z" fill="#455A64"/>
<path d="M46.2427 39.7419C46.2427 39.7419 44.1979 37.2338 43.1247 38.0559C42.0515 38.8779 43.7918 42.6584 45.1888 43.0354C45.3649 43.0971 45.5507 43.1196 45.735 43.1015C45.9193 43.0835 46.0983 43.0253 46.2613 42.9304C46.4243 42.8355 46.5679 42.7059 46.6835 42.5494C46.7991 42.3929 46.8843 42.2127 46.9339 42.0196L46.2427 39.7419Z" fill="#F7A9A0"/>
<path d="M43.6516 39.124V39.1658C44.6184 39.4643 45.2275 40.344 45.6771 41.2603C45.6116 41.1651 45.5278 41.0865 45.4316 41.0298C45.3354 40.973 45.2289 40.9395 45.1196 40.9316C45.0103 40.9236 44.9007 40.9414 44.7983 40.9837C44.696 41.0259 44.6032 41.0917 44.5266 41.1765C44.5266 41.1765 44.5266 41.2393 44.5604 41.2289C44.7208 41.1477 44.9008 41.1237 45.0745 41.1604C45.2483 41.1971 45.4068 41.2926 45.5272 41.4331C45.7296 41.6611 45.9065 41.9142 46.0541 42.1871C46.1073 42.2708 46.2572 42.1871 46.2137 42.1033C46.0686 40.7995 44.9568 39.0978 43.6516 39.124Z" fill="#263238"/>
<path d="M45.0485 52.785C44.9518 53.8322 44.8261 54.8376 44.7149 55.8586C44.6037 56.8796 44.4635 57.9059 44.3378 58.9269L44.1542 58.7123C44.8309 58.6494 45.5125 58.5761 46.1893 58.529L48.2244 58.3719L48.6015 58.3405L48.442 58.7123C47.8135 60.1574 47.1996 61.6026 46.547 63.0373L46.4552 62.7074C48.0697 63.7127 49.6988 64.6919 51.2892 65.7234C52.8796 66.7549 54.5039 67.7707 56.0846 68.865C54.4169 67.9592 52.7685 67.0219 51.1249 66.0689C49.4813 65.116 47.8522 64.1421 46.2183 63.1734L46.0298 63.0634L46.1216 62.8488C46.7355 61.3984 47.3881 59.9689 48.0311 58.5342L48.2438 58.8746L46.2086 59.0055C45.527 59.0526 44.8454 59.0736 44.1687 59.1102H43.9463L43.985 58.8798C44.1542 57.864 44.3137 56.8482 44.4684 55.8377C44.6231 54.8271 44.8551 53.7904 45.0485 52.785Z" fill="#263238"/>
<path d="M54.0352 51.7378C54.3349 52.12 54.6249 52.5075 54.915 52.9002C55.205 53.2929 55.4999 53.6751 55.7803 54.0731L57.4867 56.445L57.6994 56.7435L57.3465 56.7958L55.3645 57.0943L55.4757 56.6492C56.3217 57.3613 57.1676 58.0734 58.0039 58.8013L58.1151 58.9007L58.0909 59.0526C57.7912 60.6862 57.469 62.3182 57.1241 63.9483C56.7954 65.582 56.4522 67.2104 56.0751 68.8283C56.2878 67.1737 56.5295 65.5244 56.7906 63.8802C57.0516 62.2361 57.3175 60.592 57.6075 58.9531L57.6897 59.2044C56.8437 58.4923 56.0075 57.7645 55.1712 57.0419L54.7313 56.6649L55.2872 56.5969L57.274 56.356L57.1338 56.7068L55.5917 54.2459C55.3259 53.8375 55.0745 53.4133 54.8183 52.9997C54.5621 52.586 54.2817 52.1619 54.0352 51.7378Z" fill="#263238"/>
<path d="M60.2903 58.7541L56.0412 87.3064L51.9419 86.7252L54.9003 57.9896L60.2903 58.7541Z" fill="#263238"/>
<path d="M58.6178 49.9104C58.0569 49.8302 57.4869 49.8704 56.9404 50.0289C56.3939 50.1873 55.8816 50.4608 55.4327 50.8337C54.9838 51.2067 54.6071 51.6718 54.3242 52.2024C54.0412 52.7331 53.8576 53.3189 53.7837 53.9264L53.5904 55.5287C53.5218 56.0973 53.5573 56.6751 53.6948 57.2289C53.8324 57.7826 54.0693 58.3017 54.3921 58.7563C54.7148 59.2109 55.1171 59.5922 55.5759 59.8784C56.0347 60.1646 56.541 60.3502 57.066 60.4244L57.6075 60.503C58.1325 60.5772 58.6658 60.5388 59.1771 60.3898C59.6884 60.2408 60.1675 59.9842 60.5872 59.6346C61.007 59.285 61.359 58.8493 61.6232 58.3523C61.8875 57.8554 62.0588 57.3069 62.1273 56.7382L62.3207 55.1412C62.3947 54.5344 62.3577 53.9177 62.2117 53.3264C62.0656 52.735 61.8135 52.1807 61.4696 51.6949C61.1258 51.2092 60.6969 50.8016 60.2076 50.4954C59.7183 50.1892 59.178 49.9904 58.6178 49.9104Z" fill="#A6A6A6"/>
<path d="M62.5489 55.7164L53.4707 54.4288L53.3489 55.436L62.4272 56.7236L62.5489 55.7164Z" fill="#C7C7C7"/>
<path d="M62.2632 60.3281L52.8279 58.819L51.4946 68.5986L60.9299 70.1078L62.2632 60.3281Z" fill="#2563EB"/>
<path d="M55.3015 62.5136C55.0718 62.9502 54.9085 63.424 54.8181 63.9169L53.658 63.7284V63.6918C53.658 63.6603 53.658 63.6289 53.658 63.5975C53.6977 63.4283 53.7477 63.2621 53.8078 63.1001C53.9095 62.8371 54.0358 62.5862 54.1849 62.3513H54.2139L55.2919 62.5293L55.3015 62.5136Z" fill="white"/>
<path d="M54.8085 65.7494L53.7402 65.5714C53.6537 65.2673 53.6049 64.9521 53.5952 64.6341C53.5855 64.4807 53.5855 64.3267 53.5952 64.1733V64.121L54.7457 64.3095C54.7457 64.3095 54.7457 64.3095 54.7457 64.3357C54.7457 64.4404 54.7457 64.5451 54.7215 64.6498C54.6973 64.7545 54.7215 64.9849 54.7215 65.1472C54.7351 65.3496 54.7609 65.5507 54.7989 65.7494H54.8085Z" fill="white"/>
<path d="M59.3428 66.8753C59.2272 67.0136 59.1028 67.1431 58.9706 67.2627C58.809 67.405 58.6359 67.5312 58.4533 67.6397C58.2741 67.7451 58.0864 67.8327 57.8926 67.9015C57.7029 67.9647 57.5089 68.012 57.3125 68.0429C57.1523 68.0656 56.9906 68.0744 56.8291 68.0691H56.7566H56.7856C57.1458 67.8781 57.4729 67.6213 57.7524 67.3099C57.9147 67.1326 58.062 66.9398 58.1923 66.7339C58.1968 66.7316 58.2018 66.7303 58.2068 66.7303C58.2118 66.7303 58.2168 66.7316 58.2213 66.7339L59.3186 66.9172L59.3428 66.8753Z" fill="white"/>
<path d="M58.5551 64.5348L57.042 64.3044L57.245 62.854L58.4245 63.0477C58.4977 63.3383 58.5399 63.6369 58.5502 63.9379C58.5502 64.095 58.5502 64.252 58.5502 64.4091C58.5599 64.451 58.5599 64.4877 58.5551 64.5348Z" fill="white"/>
<path d="M58.492 64.917C58.4943 64.9518 58.4943 64.9868 58.492 65.0217C58.492 65.1002 58.4582 65.1788 58.4388 65.2573C58.4195 65.3358 58.376 65.4772 58.3373 65.5819C58.2588 65.8166 58.1601 66.0427 58.0425 66.2574C58.0425 66.2574 58.0425 66.2574 58.0086 66.2574L56.8049 66.0584L56.9983 64.6552L58.492 64.917Z" fill="white"/>
<path d="M56.8823 62.7859L56.6792 64.2363L55.1807 63.9902C55.1807 63.9536 55.1807 63.9169 55.1807 63.8803C55.1807 63.8436 55.2145 63.7232 55.2387 63.6447C55.2628 63.5661 55.3112 63.4038 55.3547 63.2834C55.4379 63.0472 55.5432 62.8209 55.6689 62.6079C55.6689 62.6079 55.6689 62.6079 55.6979 62.6079L56.8387 62.7964L56.8823 62.7859Z" fill="white"/>
<path d="M56.6212 64.629L56.4327 65.9956L55.258 65.8071C55.2519 65.806 55.2463 65.803 55.242 65.7983C55.2376 65.7936 55.2348 65.7875 55.2338 65.7809C55.1761 65.5305 55.142 65.2743 55.1323 65.0164C55.1323 64.8855 55.1323 64.7494 55.1323 64.6185C55.1323 64.4876 55.1323 64.4457 55.1323 64.3567L56.5825 64.5975C56.5825 64.5975 56.6261 64.6133 56.6212 64.629Z" fill="white"/>
<path d="M60.1793 64.8279L58.9225 64.6237C58.9685 64.1193 58.9391 63.61 58.8354 63.1157L59.986 63.3042C59.986 63.3042 59.986 63.3042 60.0101 63.3042C60.1061 63.6137 60.1614 63.9363 60.1745 64.2624C60.1843 64.4368 60.1843 64.6117 60.1745 64.786L60.1793 64.8279Z" fill="white"/>
<path d="M60.1259 65.1735C60.1259 65.2084 60.1259 65.2398 60.1259 65.2677C60.1259 65.3934 60.0679 65.5086 60.034 65.629C59.9466 65.903 59.8298 66.1648 59.686 66.4092L59.6183 66.5244C59.6183 66.5244 59.6183 66.5244 59.5941 66.5244L58.4436 66.3359L58.5064 66.2154C58.6034 66.0096 58.6858 65.796 58.753 65.5766C58.8028 65.4191 58.8432 65.2582 58.8738 65.0949C58.8837 65.057 58.8917 65.0185 58.898 64.9797L60.1259 65.1735Z" fill="white"/>
<path d="M59.865 62.8854L58.7676 62.7021C58.764 62.7044 58.7598 62.7056 58.7556 62.7056C58.7513 62.7056 58.7472 62.7044 58.7435 62.7021C58.642 62.3628 58.5007 62.039 58.3229 61.7387C58.216 61.5662 58.0963 61.4033 57.9652 61.2517L57.7573 61.037V61.0109C58.1358 61.1169 58.4942 61.2941 58.816 61.5345C59.2658 61.8811 59.6268 62.346 59.865 62.8854Z" fill="white"/>
<path d="M55.9445 67.933H55.9106C55.7919 67.8963 55.6756 67.8508 55.5626 67.7969C55.3503 67.7026 55.1491 67.5813 54.9632 67.4356C54.7473 67.2741 54.5508 67.0842 54.3782 66.8701C54.2533 66.7194 54.1416 66.5563 54.0447 66.3831C53.9726 66.2514 53.908 66.115 53.8513 65.9747L54.8761 66.1423C54.9474 66.3925 55.0413 66.6346 55.1565 66.8649C55.2631 67.0764 55.386 67.2779 55.5239 67.467C55.6364 67.6247 55.7609 67.7718 55.8961 67.9068L55.9445 67.933Z" fill="white"/>
<path d="M56.9162 60.8695L56.747 60.9689C56.5464 61.0884 56.3569 61.2287 56.1814 61.3878C55.9404 61.5937 55.7272 61.8352 55.5481 62.1052L55.5143 62.1575H55.4611L54.4604 61.9952C54.7749 61.6272 55.1574 61.3349 55.583 61.1373C56.0085 60.9397 56.4677 60.8414 56.9307 60.8485L56.9162 60.8695Z" fill="white"/>
<path d="M57.7959 66.6239C57.6177 66.8693 57.4133 67.0907 57.1868 67.2837C56.9854 67.4553 56.7664 67.6011 56.5342 67.7183L56.713 66.4459L57.7959 66.6239Z" fill="white"/>
<path d="M56.3748 66.3989L56.2007 67.6451C55.8136 67.2521 55.5172 66.766 55.3354 66.2261L56.3748 66.3989Z" fill="white"/>
<path d="M58.3181 62.6288L57.2788 62.456L57.448 61.2675C57.6313 61.4538 57.7935 61.6629 57.9314 61.8906C58.0851 62.1204 58.2149 62.368 58.3181 62.6288Z" fill="white"/>
<path d="M57.095 61.2465L56.9306 62.4089L55.9348 62.2466C56.2433 61.8187 56.6408 61.476 57.095 61.2465Z" fill="white"/>
<path d="M21.1055 88.0918C24.2041 90.1862 30.7736 88.652 45.0196 85.4737C46.987 85.0339 46.755 68.8963 44.628 69.2419C41.9548 69.687 31.6631 72.038 30.9283 72.3155C24.7504 74.6403 19.0075 86.6519 21.1055 88.0918Z" fill="#F7A9A0"/>
<path d="M62.2821 66.514C62.5062 66.9656 62.5972 67.4807 62.5427 67.99C62.4883 68.4993 62.291 68.9783 61.9776 69.3624C62.6904 69.7657 63.2498 70.4272 63.5583 71.2317C64.0417 72.6716 62.1613 74.122 62.1613 74.122C62.8177 74.7078 63.2961 75.4942 63.5341 76.3788C63.8628 77.8082 62.1661 79.5623 62.1661 79.5623C62.4948 80.4622 62.5137 81.4603 62.2193 82.3741C61.3395 84.7774 57.7574 85.5157 55.4854 85.9712C53.2134 86.4268 46.3442 85.5105 45.0197 85.4738L42.0564 69.6923C42.0564 69.6923 51.6858 64.3934 54.4316 64.2415C56.7374 64.1106 61.3636 64.828 62.2821 66.514Z" fill="#F7A9A0"/>
<path d="M61.8324 69.1319C59.3381 68.6083 56.8485 68.9539 54.3397 69.1319C54.3281 69.1319 54.317 69.1369 54.3089 69.1457C54.3007 69.1545 54.2961 69.1665 54.2961 69.179C54.2961 69.1915 54.3007 69.2035 54.3089 69.2123C54.317 69.2212 54.3281 69.2261 54.3397 69.2261C56.8292 69.0272 59.3236 69.3623 61.8131 69.2733C61.8759 69.2576 61.9001 69.1424 61.8324 69.1319Z" fill="#263238"/>
<path d="M62.074 73.923C61.4979 73.8698 60.9177 73.8979 60.3483 74.0067C59.7392 74.0801 59.1349 74.1691 58.5258 74.2633C57.3125 74.4571 56.1088 74.677 54.9051 74.9388C54.8519 74.9388 54.8519 75.0383 54.9051 75.033C56.1136 74.8445 57.3221 74.6717 58.5403 74.5408C59.1494 74.471 59.7585 74.4082 60.3676 74.3523C60.9447 74.3392 61.5186 74.2566 62.0789 74.1062C62.0977 74.1007 62.1144 74.0885 62.126 74.0715C62.1377 74.0545 62.1438 74.0337 62.1432 74.0125C62.1427 73.9914 62.1355 73.971 62.123 73.9548C62.1104 73.9385 62.0932 73.9273 62.074 73.923Z" fill="#263238"/>
<path d="M62.1127 79.5675C61.5904 79.527 61.0656 79.5837 60.561 79.735L58.9077 80.023C57.8056 80.2115 56.6986 80.3948 55.5916 80.5466C55.5384 80.5466 55.5432 80.6461 55.5916 80.6409C56.7227 80.4995 57.8491 80.3738 58.9754 80.222C59.5313 80.1487 60.0824 80.0701 60.6335 79.9864C61.1435 79.9658 61.646 79.847 62.1175 79.6356C62.1237 79.6323 62.1288 79.6272 62.1322 79.6208C62.1356 79.6144 62.1371 79.6071 62.1366 79.5997C62.136 79.5924 62.1335 79.5854 62.1292 79.5796C62.125 79.5739 62.1192 79.5696 62.1127 79.5675Z" fill="#263238"/>
<path d="M42.8974 68.9435L36.7726 88.3903C36.7726 88.3903 24.0059 90.7831 21.0426 88.3274C19.109 86.7095 24.5376 74.1324 31.5422 72.1375L42.8974 68.9435Z" fill="#37474F"/>
<path d="M24.5184 77.9809C25.8199 75.9506 27.4934 74.2324 29.4347 72.9333C32.0064 71.2473 41.1282 69.268 42.8782 68.912C42.912 68.912 42.9362 68.9643 42.8782 68.9748C41.4666 69.4251 31.7598 71.8442 29.5507 73.2632C27.6841 74.5904 25.997 76.1922 24.5377 78.0228C24.5426 78.0542 24.4991 78.0175 24.5184 77.9809Z" fill="#263238"/>
<path d="M32.7218 87.4844C33.2922 85.3428 33.969 83.2379 34.6554 81.133C35.3418 79.0281 36.0186 76.9442 36.7485 74.8497C37.1594 73.6716 37.5655 72.4883 38.0199 71.3259C38.0199 71.2944 38.0779 71.3259 38.0731 71.3259C37.5027 73.4674 36.8307 75.5775 36.1394 77.6824C35.4482 79.7873 34.7811 81.8713 34.0753 83.9657C33.6741 85.1491 33.2535 86.3272 32.8039 87.4896C32.7991 87.5734 32.7073 87.5472 32.7218 87.4844Z" fill="#263238"/>
<path d="M34.051 88.8143C34.9453 88.563 35.8541 88.4269 36.7484 88.2907L36.6759 88.364C36.8161 87.9818 36.9611 87.6048 37.1352 87.2383C37.066 87.641 36.9772 88.0395 36.8693 88.4321V88.4897H36.8064C35.9092 88.7235 34.9882 88.8326 34.0655 88.8143H34.051Z" fill="#263238"/>
<path d="M17.6201 20.4257C17.6199 22.543 18.1628 24.6188 19.1884 26.4214C20.214 28.2239 21.6818 29.6823 23.4282 30.6337C25.1745 31.5852 27.1305 31.9923 29.078 31.8097C31.0255 31.627 32.8878 30.8617 34.4572 29.5993L39.6393 31.0287L37.4881 25.7927C38.2378 24.2603 38.6556 22.5632 38.7099 20.8299C38.7641 19.0967 38.4534 17.3728 37.8012 15.7889C37.149 14.2051 36.1725 12.8028 34.9457 11.6885C33.7189 10.5741 32.2739 9.77689 30.7204 9.35724C29.1669 8.93759 27.5456 8.90651 25.9793 9.26637C24.4131 9.62623 22.943 10.3676 21.6806 11.4342C20.4181 12.5009 19.3964 13.8648 18.6929 15.4227C17.9894 16.9805 17.6225 18.6914 17.6201 20.4257Z" fill="#1E40AF"/>
<path d="M17.6202 20.4259C17.6344 22.5391 18.1882 24.6068 19.2203 26.4002C19.4747 26.8471 19.7557 27.2756 20.0614 27.6831C20.3758 28.0812 20.7132 28.4572 21.0717 28.8088C21.7819 29.5215 22.5869 30.1145 23.4597 30.5681C24.7571 31.2735 26.1806 31.6647 27.6315 31.7148C28.1149 31.7459 28.5997 31.7372 29.0818 31.6887C30.9992 31.4865 32.827 30.7106 34.3605 29.4476L34.4282 29.3953H34.5104L39.678 30.7933L39.4315 31.1127L37.261 25.908L37.2126 25.7981L37.2658 25.6881C37.9988 24.1919 38.4134 22.537 38.4792 20.8447C38.5421 19.1461 38.2479 17.4541 37.6187 15.8967C36.9772 14.3429 36.0322 12.9584 34.8488 11.8387C33.6488 10.7255 32.2303 9.92323 30.7012 9.49294C29.1681 9.05536 27.5636 8.99809 26.0073 9.32539C24.4489 9.66902 22.9808 10.3845 21.7098 11.4198C20.4424 12.4869 19.4155 13.8522 18.707 15.4125C17.9985 16.9727 17.6269 18.6871 17.6202 20.4259ZM17.6202 20.4259C17.6252 18.6916 17.9917 16.981 18.6923 15.4216C19.3929 13.8622 20.4095 12.4943 21.6663 11.4198C23.581 9.77986 25.9566 8.89994 28.3975 8.92661C30.8383 8.95329 33.1971 9.88496 35.0808 11.5664C36.3365 12.7055 37.338 14.1375 38.0103 15.7553C38.6811 17.3737 38.9999 19.1374 38.942 20.9104C38.8842 22.6833 38.4513 24.4182 37.6767 25.9813V25.7614L39.8085 30.9975L39.9874 31.4373L39.562 31.3117L34.4041 29.8456L34.5491 29.8141C32.9492 31.0779 31.056 31.8339 29.0818 31.9976C28.5992 32.0409 28.1141 32.0409 27.6315 31.9976C25.1693 31.8383 22.8356 30.7531 21.033 28.9292C20.6748 28.5734 20.3389 28.1921 20.0276 27.7878C19.7222 27.3776 19.4428 26.9455 19.1913 26.4945C18.1569 24.6691 17.6129 22.5676 17.6202 20.4259Z" fill="white"/>
<path d="M24.064 20.9024C24.064 21.1013 24.0096 21.2956 23.9076 21.4609C23.8056 21.6263 23.6607 21.7551 23.4911 21.8312C23.3215 21.9073 23.1349 21.9272 22.9548 21.8884C22.7748 21.8496 22.6094 21.7539 22.4796 21.6133C22.3498 21.4727 22.2614 21.2936 22.2256 21.0985C22.1898 20.9035 22.2082 20.7014 22.2784 20.5177C22.3487 20.334 22.4676 20.177 22.6203 20.0665C22.7729 19.9561 22.9523 19.8971 23.1359 19.8971C23.2578 19.8971 23.3785 19.9231 23.4911 19.9736C23.6037 20.0241 23.706 20.0982 23.7922 20.1915C23.8784 20.2849 23.9468 20.3957 23.9934 20.5177C24.04 20.6397 24.064 20.7704 24.064 20.9024Z" fill="white"/>
<path d="M28.932 20.9023C28.932 21.1014 28.8774 21.2959 28.7752 21.4614C28.673 21.6268 28.5278 21.7557 28.3579 21.8316C28.188 21.9075 28.0011 21.9271 27.821 21.8879C27.6408 21.8487 27.4754 21.7524 27.3458 21.6113C27.2162 21.4702 27.1282 21.2906 27.0929 21.0952C27.0577 20.8999 27.0767 20.6976 27.1477 20.5139C27.2187 20.3303 27.3384 20.1737 27.4917 20.0639C27.645 19.954 27.8249 19.8959 28.0087 19.897C28.1303 19.897 28.2508 19.923 28.3631 19.9736C28.4754 20.0242 28.5774 20.0983 28.6632 20.1918C28.749 20.2852 28.817 20.396 28.8631 20.518C28.9092 20.6399 28.9326 20.7705 28.932 20.9023Z" fill="white"/>
<path d="M33.8048 20.9023C33.8048 21.1009 33.7504 21.2951 33.6487 21.4603C33.5469 21.6255 33.4022 21.7544 33.2329 21.8306C33.0636 21.9068 32.8772 21.9271 32.6973 21.8887C32.5174 21.8503 32.352 21.7551 32.222 21.615C32.092 21.4749 32.0033 21.2963 31.9669 21.1016C31.9306 20.907 31.9482 20.705 32.0178 20.5212C32.0873 20.3374 32.2055 20.18 32.3575 20.069C32.5095 19.9579 32.6884 19.898 32.8718 19.897C32.9941 19.8963 33.1153 19.9218 33.2285 19.972C33.3416 20.0222 33.4445 20.0962 33.5312 20.1896C33.6179 20.283 33.6867 20.3941 33.7337 20.5164C33.7806 20.6387 33.8048 20.7698 33.8048 20.9023Z" fill="white"/>
<path d="M72.1291 68.7286C71.4062 69.8855 71.016 71.2483 71.0076 72.6452C71.0076 77.6143 76.0447 81.6408 82.2516 81.6408C88.4586 81.6408 93.4908 77.6143 93.4908 72.6452C93.4908 67.6762 88.4634 63.6549 82.2516 63.6549C79.4996 63.6097 76.8006 64.4775 74.5172 66.142L70.6499 65.0948L72.1291 68.7286Z" fill="#FFFEFD"/>
<path d="M72.1291 68.7286C71.4688 69.8356 71.1025 71.1182 71.0705 72.4357C71.0636 73.7471 71.3987 75.0339 72.0373 76.1481C73.3705 78.3397 75.3835 79.9425 77.7125 80.6668C80.0112 81.4507 82.4507 81.6214 84.8234 81.1643C86.0066 80.9534 87.1559 80.5602 88.2362 79.9966C89.3106 79.446 90.2913 78.7024 91.1367 77.7975C91.9839 76.9029 92.6163 75.7974 92.9784 74.5773C93.335 73.3618 93.3519 72.0593 93.0268 70.8335C92.6784 69.6083 92.0614 68.4927 91.2285 67.5819C90.3862 66.6618 89.4054 65.904 88.3281 65.3408C87.2568 64.7733 86.118 64.3698 84.9442 64.1418C83.7646 63.8959 82.5618 63.8062 81.3622 63.8747C78.9484 63.9753 76.6069 64.7942 74.5945 66.2415L74.551 66.2729H74.5027L70.6354 65.1523L70.7031 65.0633L72.1291 68.7286ZM72.1291 68.7286L70.5774 65.1L70.5291 64.9848L70.6451 65.0162L74.5123 66.0268H74.4205C76.4572 64.5052 78.8432 63.6244 81.3139 63.482C83.7851 63.2818 86.2623 63.7741 88.5069 64.9115C89.6301 65.4899 90.6523 66.2747 91.5282 67.2311C92.4221 68.1919 93.0859 69.3746 93.4618 70.6764C93.823 71.9973 93.8112 73.4051 93.428 74.7187C93.0336 76.0134 92.3571 77.1862 91.4557 78.1378C90.5649 79.0781 89.5336 79.8482 88.4054 80.4155C87.2859 80.9877 86.0982 81.3877 84.8766 81.6041C83.6619 81.8281 82.4268 81.8932 81.1978 81.7978C79.9686 81.6935 78.7559 81.4262 77.5868 81.0019C76.4146 80.5837 75.3103 79.9688 74.3141 79.1798C73.3074 78.4009 72.4626 77.402 71.8343 76.2476C71.2161 75.0841 70.9114 73.7563 70.9545 72.4148C71.0207 71.0914 71.4276 69.8145 72.1291 68.7286Z" fill="#263238"/>
<path d="M86.2927 72.6452C86.2937 72.3959 86.3628 72.1524 86.4914 71.9456C86.62 71.7387 86.8023 71.5778 87.0153 71.4831C87.2282 71.3884 87.4623 71.3642 87.688 71.4134C87.9136 71.4627 88.1208 71.5833 88.2832 71.76C88.4457 71.9367 88.5561 72.1615 88.6007 72.4062C88.6453 72.6508 88.6219 72.9043 88.5336 73.1346C88.4453 73.3648 88.296 73.5616 88.1045 73.7C87.913 73.8385 87.688 73.9123 87.4577 73.9123C87.3043 73.9123 87.1525 73.8795 87.0108 73.8158C86.8691 73.752 86.7405 73.6586 86.6322 73.5409C86.524 73.4232 86.4383 73.2834 86.38 73.1297C86.3218 72.976 86.2921 72.8114 86.2927 72.6452Z" fill="#263238"/>
<path d="M81.0818 72.6453C81.0818 72.3947 81.1504 72.1497 81.279 71.9413C81.4075 71.7329 81.5902 71.5705 81.804 71.4746C82.0177 71.3787 82.2529 71.3536 82.4799 71.4025C82.7068 71.4514 82.9152 71.5721 83.0788 71.7493C83.2424 71.9265 83.3539 72.1523 83.399 72.3981C83.4441 72.6439 83.421 72.8987 83.3324 73.1302C83.2439 73.3617 83.0939 73.5596 82.9016 73.6989C82.7092 73.8381 82.483 73.9124 82.2516 73.9124C82.0978 73.9131 81.9454 73.8808 81.8032 73.8174C81.661 73.754 81.5318 73.6606 81.423 73.5428C81.3143 73.425 81.2281 73.2851 81.1695 73.131C81.111 72.977 81.0812 72.8119 81.0818 72.6453Z" fill="#263238"/>
<path d="M75.8948 72.6452C75.8957 72.3959 75.9649 72.1524 76.0935 71.9456C76.2221 71.7387 76.4043 71.5778 76.6173 71.4831C76.8303 71.3884 77.0644 71.3642 77.29 71.4134C77.5157 71.4627 77.7228 71.5833 77.8853 71.76C78.0477 71.9367 78.1582 72.1615 78.2028 72.4062C78.2473 72.6508 78.224 72.9043 78.1357 73.1346C78.0473 73.3648 77.898 73.5616 77.7065 73.7C77.5151 73.8385 77.29 73.9123 77.0598 73.9123C76.9064 73.9123 76.7545 73.8795 76.6128 73.8158C76.4712 73.752 76.3425 73.6586 76.2343 73.5409C76.1261 73.4232 76.0403 73.2834 75.9821 73.1297C75.9238 72.976 75.8941 72.8114 75.8948 72.6452Z" fill="#263238"/>
<path d="M190.832 112.396L194.805 108.521L173.929 83.4078L169.956 87.2828L190.832 112.396Z" fill="#C7C7C7"/>
<path d="M200.425 126.153L206.434 120.294L191.854 102.753L185.846 108.612L200.425 126.153Z" fill="#263238"/>
<path d="M151.954 92.8513C147.228 91.8405 142.885 89.3344 139.473 85.6501C136.062 81.9657 133.736 77.2684 132.789 72.1522C131.842 67.0359 132.317 61.7305 134.154 56.9066C135.991 52.0828 139.107 47.9572 143.108 45.0514C147.109 42.1457 151.816 40.5903 156.634 40.5819C161.451 40.5736 166.163 42.1126 170.173 45.0045C174.182 47.8963 177.311 52.0111 179.162 56.8286C181.013 61.646 181.503 66.9498 180.572 72.0693C179.316 78.9328 175.597 84.9762 170.232 88.8725C164.866 92.7689 158.293 94.1999 151.954 92.8513ZM152.496 89.8876C156.681 90.7821 161.017 90.3121 164.956 88.537C168.895 86.762 172.259 83.7617 174.624 79.9155C176.988 76.0693 178.247 71.55 178.24 66.9292C178.233 62.3083 176.962 57.7933 174.586 53.9553C172.21 50.1172 168.837 47.1284 164.893 45.3669C160.949 43.6054 156.611 43.1503 152.429 44.0591C148.246 44.9678 144.406 47.1997 141.394 50.4725C138.382 53.7452 136.334 57.9118 135.509 62.4454C134.408 68.5236 135.579 74.8264 138.763 79.971C141.948 85.1156 146.886 88.6819 152.496 89.8876Z" fill="#37474F"/>
<path d="M181.036 60.4767C182.559 67.1043 181.734 74.1097 178.723 80.1106C175.712 86.1114 170.733 90.6718 164.77 92.8918C158.807 95.1118 152.292 94.8301 146.511 92.1023C140.731 89.3745 136.104 84.3988 133.544 78.157C130.984 71.9153 130.677 64.8609 132.683 58.3859C134.69 51.911 138.864 46.4858 144.382 43.1811C149.9 39.8763 156.362 38.932 162.491 40.5345C168.621 42.1369 173.973 46.1698 177.492 51.8372C179.132 54.4695 180.332 57.394 181.036 60.4767ZM133.71 73.0747C135.098 79.2033 138.526 84.5612 143.336 88.1209C148.146 91.6805 154.001 93.1911 159.776 92.3631C165.551 91.535 170.841 88.4266 174.631 83.6339C178.42 78.8413 180.443 72.7019 180.311 66.3933C180.178 60.0847 177.9 54.0511 173.914 49.4498C169.927 44.8485 164.512 42.0034 158.708 41.4603C152.904 40.9172 147.119 42.7142 142.463 46.5068C137.807 50.2993 134.608 55.8203 133.478 62.0109C132.81 65.6731 132.89 69.4491 133.71 73.0747ZM178.324 61.1993C179.216 65.1415 179.177 69.2636 178.211 73.1852C177.244 77.1067 175.381 80.7012 172.793 83.6368C170.205 86.5724 166.976 88.7545 163.404 89.9815C159.832 91.2086 156.032 91.441 152.355 90.6574C148.757 89.8916 145.388 88.176 142.548 85.6626C139.707 83.1492 137.484 79.9156 136.073 76.2485C134.663 72.5815 134.109 68.5942 134.462 64.64C134.814 60.6858 136.062 56.8869 138.094 53.58C140.127 50.2732 142.881 47.5604 146.113 45.6822C149.344 43.8041 152.954 42.8185 156.622 42.8129C160.289 42.8073 163.901 43.7818 167.138 45.65C170.375 47.5183 173.136 50.2226 175.177 53.5232C176.63 55.8642 177.695 58.4619 178.324 61.1993ZM152.636 89.1128C157.373 90.1311 162.289 89.3385 166.546 86.8701C170.804 84.4016 174.14 80.4102 175.984 75.5761C177.829 70.742 178.069 65.3645 176.663 60.3603C175.257 55.3561 172.292 51.0349 168.274 48.1334C164.256 45.2318 159.433 43.9296 154.628 44.4485C149.823 44.9675 145.332 47.2756 141.922 50.9794C138.512 54.6831 136.393 59.5533 135.927 64.7597C135.461 69.9661 136.677 75.1864 139.366 79.5308C142.444 84.5017 147.216 87.9476 152.636 89.1128Z" fill="#37474F"/>
<g opacity="0.2">
<path d="M135.973 65.7912C135.759 70.2244 136.764 74.6266 138.861 78.4411C140.957 82.2557 144.051 85.3113 147.75 87.2216C151.45 89.132 155.589 89.8113 159.645 89.1737C163.701 88.536 167.491 86.6101 170.536 83.6393C173.582 80.6686 175.746 76.7865 176.754 72.4838C177.763 68.1811 177.571 63.6511 176.203 59.4665C174.835 55.2819 172.352 51.6306 169.069 48.9743C165.785 46.318 161.848 44.776 157.755 44.5432C155.037 44.3886 152.317 44.8156 149.751 45.7998C147.185 46.7841 144.823 48.3062 142.8 50.2794C140.777 52.2526 139.133 54.6381 137.962 57.2996C136.79 59.9612 136.114 62.8467 135.973 65.7912Z" fill="white"/>
<path d="M136.495 72.1163C137.752 77.8769 141.056 82.8678 145.69 86.005C150.324 89.1422 155.914 90.1724 161.245 88.8718L136.495 72.1163Z" fill="#EBEBEB"/>
<path d="M142.605 50.4547L176.511 73.394C176.98 71.6905 177.26 69.9329 177.347 68.1579C177.45 66.1153 177.287 64.0673 176.864 62.0736L151.833 45.1349C148.388 46.0244 145.211 47.856 142.605 50.4547Z" fill="#EBEBEB"/>
<path d="M136.185 63.5606L168.482 85.4107C169.598 84.5708 170.635 83.6151 171.58 82.5571L137.191 59.288C136.723 60.6716 136.386 62.1032 136.185 63.5606Z" fill="#EBEBEB"/>
<path d="M140.671 52.6906L175.525 76.2529C175.631 76.0069 175.733 75.7293 175.83 75.5042L141.155 52.0728C141 52.2613 140.831 52.4759 140.671 52.6906Z" fill="#EBEBEB"/>
<path d="M158.794 44.6323L174.263 55.1045C173.939 54.5337 173.582 53.9787 173.209 53.4394L160.641 44.9255C160.008 44.7946 159.413 44.6952 158.794 44.6323Z" fill="#EBEBEB"/>
</g>
<path d="M152.515 84.5207C150.287 83.9794 148.186 82.9475 146.342 81.489C145.402 80.7632 144.531 79.9389 143.741 79.028C142.955 78.1029 142.251 77.1001 141.638 76.033C140.443 73.8714 139.684 71.4607 139.41 68.959C139.147 66.5028 139.319 64.0148 139.917 61.6285C139.893 64.0186 140.097 66.4049 140.526 68.7496C140.757 69.8917 141.07 71.0123 141.464 72.1007C141.842 73.1847 142.316 74.2263 142.88 75.2109C144.003 77.2056 145.405 78.9987 147.038 80.5255C148.71 82.0889 150.549 83.4301 152.515 84.5207Z" fill="white"/>
</svg>
