<svg width="250" height="241" viewBox="0 0 250 241" fill="none" xmlns="http://www.w3.org/2000/svg">
<g filter="url(#filter0_d_95_1309)">
<path d="M240.528 227.26C240.528 230.002 187.574 232.225 122.264 232.225C56.9537 232.225 4 230.002 4 227.26C4 224.519 56.9469 222.288 122.264 222.288C187.581 222.288 240.528 224.512 240.528 227.26Z" fill="#2563EB"/>
<path opacity="0.5" d="M240.528 227.26C240.528 230.002 187.574 232.225 122.264 232.225C56.9537 232.225 4 230.002 4 227.26C4 224.519 56.9469 222.288 122.264 222.288C187.581 222.288 240.528 224.512 240.528 227.26Z" fill="white"/>
<path d="M224.379 177.156C222.734 179.117 221.622 181.491 221.157 184.037L214.7 187.764V170.149L214.822 170.331L225.119 162.576C226.418 162.785 231.413 163.373 235.994 160.848C241.241 157.918 245.102 147.855 245.102 147.855C245.102 147.855 232.507 146.394 228.239 151.827C225.898 154.648 224.652 158.259 224.739 161.967L214.7 169.534V156.527C216.579 155.626 218.24 154.307 219.562 152.664C220.885 151.022 221.836 149.097 222.346 147.03C224.175 139.709 214.421 125.282 214.421 125.282C214.421 125.282 204.26 140.128 206.265 147.66C207.985 154.037 212.613 156.051 213.993 156.527V184.743L206.768 178.541C206.931 177.058 207.06 172.408 203.037 167.743C198.157 162.1 185.154 162.52 185.154 162.52C185.154 162.52 190.639 173.806 195.349 177.576C199.428 180.862 205.069 179.52 206.421 179.128L214.047 185.666V194.24H202.69L207.312 223.96H221.177L225.799 194.24H214.7V188.568L221.796 184.478C223.522 184.967 228.348 185.988 232.915 183.638C238.604 180.722 243.274 174.429 243.274 174.429C243.274 174.429 229.66 170.883 224.379 177.156Z" fill="#2563EB"/>
<path opacity="0.5" d="M224.379 177.156C222.734 179.117 221.622 181.491 221.157 184.037L214.7 187.764V170.149L214.822 170.331L225.119 162.576C226.418 162.785 231.413 163.373 235.994 160.848C241.241 157.918 245.102 147.855 245.102 147.855C245.102 147.855 232.507 146.394 228.239 151.827C225.898 154.648 224.652 158.259 224.739 161.967L214.7 169.534V156.527C216.579 155.626 218.24 154.307 219.562 152.664C220.885 151.022 221.836 149.097 222.346 147.03C224.175 139.709 214.421 125.282 214.421 125.282C214.421 125.282 204.26 140.128 206.265 147.66C207.985 154.037 212.613 156.051 213.993 156.527V184.743L206.768 178.541C206.931 177.058 207.06 172.408 203.037 167.743C198.157 162.1 185.154 162.52 185.154 162.52C185.154 162.52 190.639 173.806 195.349 177.576C199.428 180.862 205.069 179.52 206.421 179.128L214.047 185.666V194.24H202.69L207.312 223.96H221.177L225.799 194.24H214.7V188.568L221.796 184.478C223.522 184.967 228.348 185.988 232.915 183.638C238.604 180.722 243.274 174.429 243.274 174.429C243.274 174.429 229.66 170.883 224.379 177.156Z" fill="white"/>
<path d="M196.22 8.70264H40.6887C36.3118 8.70264 32.7637 12.3532 32.7637 16.8564V117.702C32.7637 122.205 36.3118 125.856 40.6887 125.856H196.22C200.596 125.856 204.145 122.205 204.145 117.702V16.8564C204.145 12.3532 200.596 8.70264 196.22 8.70264Z" fill="#2563EB" stroke="#263238" stroke-miterlimit="10" stroke-linecap="round"/>
<path opacity="0.7" d="M196.22 8.70264H40.6887C36.3118 8.70264 32.7637 12.3532 32.7637 16.8564V117.702C32.7637 122.205 36.3118 125.856 40.6887 125.856H196.22C200.596 125.856 204.145 122.205 204.145 117.702V16.8564C204.145 12.3532 200.596 8.70264 196.22 8.70264Z" fill="#2563EB" stroke="#263238" stroke-miterlimit="10" stroke-linecap="round"/>
<path d="M105.048 74.1986H84.9971V85.7719H105.048V74.1986Z" fill="white"/>
<path d="M105.048 87.8629H84.9971V99.4362H105.048V87.8629Z" fill="white"/>
<path d="M127.137 74.1986H107.086V85.7719H127.137V74.1986Z" fill="white"/>
<path d="M149.234 60.5275H129.183V72.1008H149.234V60.5275Z" fill="white"/>
<path d="M149.234 46.8562H129.183V58.4295H149.234V46.8562Z" fill="white"/>
<path d="M149.234 21.5907H129.183V31.0871H149.234V21.5907Z" fill="#263238"/>
<path d="M127.137 21.5907H107.086V31.0871H127.137V21.5907Z" fill="#263238"/>
<path d="M127.137 87.8629H107.086V99.4362H127.137V87.8629Z" fill="white"/>
<path d="M127.137 33.1851H107.086V44.7584H127.137V33.1851Z" fill="white"/>
<path d="M127.137 46.8562H107.086V58.4295H127.137V46.8562Z" fill="white"/>
<path d="M127.137 60.5275H107.086V72.1008H127.137V60.5275Z" fill="white"/>
<path d="M149.234 87.8629H129.183V99.4362H149.234V87.8629Z" fill="white"/>
<path d="M60.8617 33.1851H39.4858V44.7584H60.8617V33.1851Z" fill="white"/>
<path d="M60.8617 60.5275H39.4858V72.1008H60.8617V60.5275Z" fill="white"/>
<path d="M60.8617 74.1986H39.4858V85.7719H60.8617V74.1986Z" fill="white"/>
<path d="M60.8617 46.8562H39.4858V58.4295H60.8617V46.8562Z" fill="white"/>
<path d="M194.745 21.5907H173.369V31.0871H194.745V21.5907Z" fill="#263238"/>
<path d="M60.8617 87.8629H39.4858V99.4362H60.8617V87.8629Z" fill="white"/>
<path d="M171.323 33.1851H151.272V44.7584H171.323V33.1851Z" fill="white"/>
<path d="M149.234 74.1986H129.183V85.7719H149.234V74.1986Z" fill="white"/>
<path d="M171.323 74.1986H151.272V85.7719H171.323V74.1986Z" fill="white"/>
<path d="M171.323 46.8562H151.272V58.4295H171.323V46.8562Z" fill="white"/>
<path d="M171.323 60.5275H151.272V72.1008H171.323V60.5275Z" fill="white"/>
<path d="M171.323 87.8629H151.272V99.4362H171.323V87.8629Z" fill="white"/>
<path d="M149.234 33.1851H129.183V44.7584H149.234V33.1851Z" fill="white"/>
<path d="M194.745 87.8629H173.369V99.4362H194.745V87.8629Z" fill="white"/>
<path d="M171.323 21.5907H151.272V31.0871H171.323V21.5907Z" fill="#263238"/>
<path d="M194.745 74.1986H173.369V85.7719H194.745V74.1986Z" fill="white"/>
<path d="M171.323 101.534H151.272V113.765H171.323V101.534Z" fill="white"/>
<path d="M194.745 60.5275H173.369V72.1008H194.745V60.5275Z" fill="white"/>
<path d="M127.137 101.534H107.086V113.765H127.137V101.534Z" fill="white"/>
<path d="M149.234 101.534H129.183V113.765H149.234V101.534Z" fill="white"/>
<path d="M194.745 46.8562H173.369V58.4295H194.745V46.8562Z" fill="white"/>
<path d="M194.745 101.534H173.369V113.765H194.745V101.534Z" fill="white"/>
<path d="M60.8617 101.534H39.4858V113.765H60.8617V101.534Z" fill="white"/>
<path d="M194.745 33.1851H173.369V44.7584H194.745V33.1851Z" fill="white"/>
<path d="M60.8617 21.5907H39.4858V31.0871H60.8617V21.5907Z" fill="#263238"/>
<path d="M82.9509 21.5907H62.9004V31.0871H82.9509V21.5907Z" fill="#263238"/>
<path d="M82.9509 74.1986H62.9004V85.7719H82.9509V74.1986Z" fill="white"/>
<path d="M105.048 21.5907H84.9971V31.0871H105.048V21.5907Z" fill="#263238"/>
<path d="M105.048 46.8562H84.9971V58.4295H105.048V46.8562Z" fill="white"/>
<path d="M82.9509 87.8629H62.9004V99.4362H82.9509V87.8629Z" fill="white"/>
<path d="M105.048 33.1851H84.9971V44.7584H105.048V33.1851Z" fill="white"/>
<path d="M82.9509 33.1851H62.9004V44.7584H82.9509V33.1851Z" fill="white"/>
<path d="M105.048 60.5275H84.9971V72.1008H105.048V60.5275Z" fill="white"/>
<path d="M82.9509 60.5275H62.9004V72.1008H82.9509V60.5275Z" fill="white"/>
<path d="M82.9509 101.534H62.9004V113.765H82.9509V101.534Z" fill="white"/>
<path d="M82.9509 46.8562H62.9004V58.4295H82.9509V46.8562Z" fill="white"/>
<path d="M105.048 101.534H84.9971V113.765H105.048V101.534Z" fill="white"/>
<path d="M48.9199 15.2061C50.5152 15.2061 51.8085 13.8755 51.8085 12.2341C51.8085 10.5927 50.5152 9.26208 48.9199 9.26208C47.3245 9.26208 46.0312 10.5927 46.0312 12.2341C46.0312 13.8755 47.3245 15.2061 48.9199 15.2061Z" fill="white" stroke="#263238" stroke-miterlimit="10" stroke-linecap="round"/>
<path d="M61.5887 12.2341C61.59 11.6444 61.4212 11.0674 61.1036 10.5765C60.7859 10.0855 60.3338 9.70261 59.8045 9.47627C59.2751 9.24993 58.6924 9.19035 58.1301 9.30507C57.5678 9.41979 57.0512 9.70365 56.6459 10.1207C56.2406 10.5377 55.9647 11.0692 55.8532 11.6477C55.7417 12.2262 55.7996 12.8258 56.0196 13.3704C56.2395 13.915 56.6117 14.3802 57.0889 14.707C57.5661 15.0338 58.1268 15.2075 58.7001 15.2062C59.4662 15.2062 60.2009 14.893 60.7426 14.3357C61.2844 13.7783 61.5887 13.0224 61.5887 12.2341Z" fill="white" stroke="#263238" stroke-miterlimit="10" stroke-linecap="round"/>
<path d="M48.9742 14.1712C48.5722 14.1712 48.1867 14.0069 47.9024 13.7145C47.6182 13.422 47.4585 13.0254 47.4585 12.6118V2.06642C47.4576 1.86104 47.4962 1.65751 47.5719 1.46751C47.6477 1.2775 47.7592 1.10476 47.9 0.959216C48.0409 0.813669 48.2083 0.698175 48.3926 0.61937C48.5769 0.540564 48.7746 0.499998 48.9742 0.5C49.378 0.5 49.7652 0.665034 50.0507 0.958795C50.3363 1.25256 50.4967 1.65098 50.4967 2.06642V12.6118C50.4967 12.8172 50.4572 13.0205 50.3807 13.2102C50.3041 13.3998 50.1918 13.5721 50.0503 13.717C49.9089 13.8619 49.741 13.9766 49.5563 14.0545C49.3716 14.1325 49.1738 14.1721 48.9742 14.1712Z" fill="white" stroke="#263238" stroke-miterlimit="10" stroke-linecap="round"/>
<path d="M58.8428 14.1712C58.4409 14.1712 58.0553 14.0069 57.7711 13.7145C57.4869 13.422 57.3272 13.0254 57.3272 12.6118V2.06642C57.3263 1.86104 57.3648 1.65751 57.4406 1.46751C57.5164 1.2775 57.6278 1.10476 57.7687 0.959216C57.9095 0.813669 58.0769 0.698175 58.2612 0.61937C58.4456 0.540564 58.6432 0.499998 58.8428 0.5C59.2466 0.5 59.6339 0.665034 59.9194 0.958795C60.2049 1.25256 60.3653 1.65098 60.3653 2.06642V12.6118C60.3653 12.8172 60.3259 13.0205 60.2493 13.2102C60.1727 13.3998 60.0605 13.5721 59.919 13.717C59.7775 13.8619 59.6096 13.9766 59.425 14.0545C59.2403 14.1325 59.0425 14.1721 58.8428 14.1712Z" fill="white" stroke="#263238" stroke-miterlimit="10" stroke-linecap="round"/>
<path d="M182.245 12.2341C182.247 11.6444 182.078 11.0674 181.76 10.5765C181.443 10.0855 180.991 9.70261 180.461 9.47627C179.932 9.24993 179.349 9.19035 178.787 9.30507C178.225 9.41979 177.708 9.70365 177.303 10.1207C176.897 10.5377 176.621 11.0692 176.51 11.6477C176.398 12.2262 176.456 12.8258 176.676 13.3704C176.896 13.915 177.268 14.3802 177.746 14.707C178.223 15.0338 178.784 15.2075 179.357 15.2062C180.123 15.2062 180.858 14.893 181.399 14.3357C181.941 13.7783 182.245 13.0224 182.245 12.2341Z" fill="white" stroke="#263238" stroke-miterlimit="10" stroke-linecap="round"/>
<path d="M189.13 15.2061C190.726 15.2061 192.019 13.8755 192.019 12.2341C192.019 10.5927 190.726 9.26208 189.13 9.26208C187.535 9.26208 186.242 10.5927 186.242 12.2341C186.242 13.8755 187.535 15.2061 189.13 15.2061Z" fill="white" stroke="#263238" stroke-miterlimit="10" stroke-linecap="round"/>
<path d="M179.404 14.1712C179.002 14.1712 178.617 14.0069 178.333 13.7145C178.048 13.422 177.889 13.0254 177.889 12.6118V2.06642C177.888 1.86104 177.926 1.65751 178.002 1.46751C178.078 1.2775 178.189 1.10476 178.33 0.959216C178.471 0.813669 178.638 0.698175 178.823 0.61937C179.007 0.540564 179.205 0.499998 179.404 0.5C179.808 0.5 180.195 0.665034 180.481 0.958795C180.766 1.25256 180.927 1.65098 180.927 2.06642V12.6118C180.927 12.8172 180.887 13.0205 180.811 13.2102C180.734 13.3998 180.622 13.5721 180.48 13.717C180.339 13.8619 180.171 13.9766 179.986 14.0545C179.802 14.1325 179.604 14.1721 179.404 14.1712Z" fill="white" stroke="#263238" stroke-miterlimit="10" stroke-linecap="round"/>
<path d="M189.28 14.1712C189.079 14.1749 188.879 14.1373 188.692 14.0606C188.505 13.9839 188.334 13.8697 188.191 13.7245C188.047 13.5793 187.933 13.4061 187.855 13.2151C187.777 13.024 187.737 12.819 187.737 12.6118V2.06642C187.737 1.65098 187.898 1.25256 188.183 0.958795C188.469 0.665034 188.856 0.5 189.26 0.5C189.459 0.499998 189.657 0.540564 189.841 0.61937C190.026 0.698175 190.193 0.813669 190.334 0.959216C190.475 1.10476 190.586 1.2775 190.662 1.46751C190.738 1.65751 190.776 1.86104 190.775 2.06642V12.6118C190.776 13.0218 190.619 13.4153 190.339 13.7071C190.059 13.999 189.679 14.1657 189.28 14.1712Z" fill="white" stroke="#263238" stroke-miterlimit="10" stroke-linecap="round"/>
<path d="M114.142 15.2061C115.737 15.2061 117.03 13.8755 117.03 12.2341C117.03 10.5927 115.737 9.26208 114.142 9.26208C112.546 9.26208 111.253 10.5927 111.253 12.2341C111.253 13.8755 112.546 15.2061 114.142 15.2061Z" fill="white" stroke="#263238" stroke-miterlimit="10" stroke-linecap="round"/>
<path d="M123.915 15.2061C125.511 15.2061 126.804 13.8755 126.804 12.2341C126.804 10.5927 125.511 9.26208 123.915 9.26208C122.32 9.26208 121.027 10.5927 121.027 12.2341C121.027 13.8755 122.32 15.2061 123.915 15.2061Z" fill="white" stroke="#263238" stroke-miterlimit="10" stroke-linecap="round"/>
<path d="M114.189 14.1712C113.787 14.1712 113.402 14.0069 113.117 13.7145C112.833 13.422 112.673 13.0254 112.673 12.6118V2.06642C112.672 1.86104 112.711 1.65751 112.787 1.46751C112.863 1.2775 112.974 1.10476 113.115 0.959216C113.256 0.813669 113.423 0.698175 113.607 0.61937C113.792 0.540564 113.989 0.499998 114.189 0.5C114.593 0.5 114.98 0.665034 115.266 0.958795C115.551 1.25256 115.712 1.65098 115.712 2.06642V12.6118C115.712 12.8172 115.672 13.0205 115.595 13.2102C115.519 13.3998 115.407 13.5721 115.265 13.717C115.124 13.8619 114.956 13.9766 114.771 14.0545C114.586 14.1325 114.389 14.1721 114.189 14.1712Z" fill="white" stroke="#263238" stroke-miterlimit="10" stroke-linecap="round"/>
<path d="M124.058 14.1712C123.656 14.1712 123.271 14.0069 122.986 13.7145C122.702 13.422 122.542 13.0254 122.542 12.6118V2.06642C122.542 1.86104 122.58 1.65751 122.656 1.46751C122.732 1.2775 122.843 1.10476 122.984 0.959216C123.125 0.813669 123.292 0.698175 123.477 0.61937C123.661 0.540564 123.859 0.499998 124.058 0.5C124.258 0.5 124.456 0.540516 124.641 0.619236C124.826 0.697956 124.993 0.813339 125.135 0.958795C125.276 1.10425 125.388 1.27693 125.465 1.46698C125.541 1.65702 125.581 1.86071 125.581 2.06642V12.6118C125.581 12.8172 125.541 13.0205 125.465 13.2102C125.388 13.3998 125.276 13.5721 125.134 13.717C124.993 13.8619 124.825 13.9766 124.64 14.0545C124.456 14.1325 124.258 14.1721 124.058 14.1712Z" fill="white" stroke="#263238" stroke-miterlimit="10" stroke-linecap="round"/>
<path d="M53.3646 47.8632L43.251 57.0379" stroke="#263238" stroke-width="2" stroke-linecap="round" stroke-linejoin="round"/>
<path d="M46.3643 47.8632L53.3649 56.4225" stroke="#263238" stroke-width="2" stroke-linecap="round" stroke-linejoin="round"/>
<path d="M165.301 34.8143L155.188 43.9821" stroke="#263238" stroke-width="2" stroke-linecap="round" stroke-linejoin="round"/>
<path d="M158.3 34.8143L165.301 43.3737" stroke="#263238" stroke-width="2" stroke-linecap="round" stroke-linejoin="round"/>
<path d="M99.0257 34.8143L88.9053 43.9821" stroke="#263238" stroke-width="2" stroke-linecap="round" stroke-linejoin="round"/>
<path d="M92.0181 34.8143L99.0255 43.3737" stroke="#263238" stroke-width="2" stroke-linecap="round" stroke-linejoin="round"/>
<path d="M188.437 34.5557L178.317 43.7304" stroke="#263238" stroke-width="2" stroke-linecap="round" stroke-linejoin="round"/>
<path d="M181.43 34.5557L188.437 43.115" stroke="#263238" stroke-width="2" stroke-linecap="round" stroke-linejoin="round"/>
<path d="M150.892 143.086C150.892 143.086 148.792 155.212 148.472 162.191C148.153 169.17 149.764 174.149 150.409 181.128C151.055 188.107 155.249 214.848 155.249 217.009C155.366 219.027 154.796 221.025 153.638 222.659C152.346 224.484 148.146 226.155 148.472 226.806C148.798 227.456 150.729 228.47 154.12 227.309C157.512 226.148 157.675 224.981 158.966 224.981C160.258 224.981 163.004 224.148 162.514 222.183C162.025 220.218 159.632 216.044 159.796 208.729C160.115 191.785 159.306 162.576 159.306 162.576L164.472 146.296L150.892 143.086Z" fill="white" stroke="#263238" stroke-linecap="round" stroke-linejoin="round"/>
<path d="M153.814 222.386L153.638 222.659C152.346 224.484 148.146 226.155 148.472 226.806C148.798 227.456 150.729 228.47 154.12 227.309C157.512 226.148 157.675 224.981 158.966 224.981C160.258 224.981 163.004 224.149 162.514 222.183C162.365 221.554 162.018 220.708 161.624 219.617C160.074 220.833 158.428 221.913 156.703 222.848C155.935 223.142 154.793 222.813 153.814 222.386Z" fill="#263238" stroke="#263238" stroke-linecap="round" stroke-linejoin="round"/>
<path d="M165.213 71.4784C165.213 71.4784 164.451 68.8071 163.928 66.4295C163.405 64.0519 167.326 63.0239 171.629 62.5834C175.931 62.1428 182.014 65.4435 183.809 70.6882C185.603 75.9329 184.094 95.3453 184.278 99.583C184.461 103.821 184.869 115.562 180.689 116.296C176.509 117.03 172.111 117.317 168.455 109.947C164.798 102.576 168.808 83.1916 169.243 79.2965C169.678 75.4014 165.43 72.0448 165.43 72.0448L165.213 71.4784Z" fill="#263238" stroke="#263238" stroke-linecap="round" stroke-linejoin="round"/>
<path d="M174.402 65.9679C174.402 65.9679 174.116 70.4154 176.998 72.786C179.88 75.1566 183.618 80.786 183.618 85.2335" stroke="white" stroke-width="0.5" stroke-linecap="round" stroke-linejoin="round"/>
<path d="M179.88 78.1217C179.88 78.1217 181.919 85.8139 180.165 92.3454" stroke="white" stroke-width="0.5" stroke-linecap="round" stroke-linejoin="round"/>
<path d="M157.702 145.17C157.702 145.17 154.304 160.974 157.437 174.631C158.293 178.366 171.499 211.862 172.539 217.218C173.579 222.575 173.579 227.4 175.666 229.274C177.752 231.148 179.064 230.344 178.004 224.183C177.292 220.743 176.15 217.412 174.606 214.274C174.606 214.274 170.697 188.561 170.174 182.939C169.651 177.317 166.531 170.617 166.531 170.617L171.479 148.653L157.702 145.17Z" fill="white" stroke="#263238" stroke-linecap="round" stroke-linejoin="round"/>
<path d="M177.331 221.281C177.08 222.68 176.536 223.89 175.401 223.659C174.87 223.555 174.38 223.291 173.993 222.902C173.606 222.513 173.339 222.015 173.226 221.47C173.736 225.009 174.15 227.925 175.666 229.281C177.746 231.156 179.065 230.351 178.004 224.191C177.834 223.209 177.609 222.237 177.331 221.281Z" fill="#263238" stroke="#263238" stroke-linecap="round" stroke-linejoin="round"/>
<path d="M173.063 219.883H173.001C173.001 220.009 173.035 220.135 173.056 220.253C173.052 220.13 173.054 220.006 173.063 219.883Z" fill="#263238" stroke="#263238" stroke-linecap="round" stroke-linejoin="round"/>
<path d="M162.412 90.9957C160.783 91.3976 159.361 92.4163 158.429 93.8489C157.07 96.1635 144.407 105.961 143.197 107.024C141.988 108.086 142.158 113.436 145.237 113.436C148.315 113.436 158.742 105.247 158.742 105.247C158.742 105.247 161.855 101.324 162.895 97.7649C163.934 94.2055 164.662 91.3524 162.412 90.9957Z" fill="white" stroke="#263238" stroke-linecap="round" stroke-linejoin="round"/>
<path d="M165.872 81.919C164.662 81.919 163.466 84.842 163.466 84.842L162.324 85.0168C163.35 83.7651 164.662 81.919 164.662 81.919C165.695 80.1358 165.341 77.4644 164.662 77.6463C163.982 77.8281 159.469 79.6043 158.776 80.4924C158.082 81.3805 156.003 88.5063 155.316 89.2196C154.63 89.9329 143.197 104.891 141.988 108.101C140.778 111.31 144.061 115.226 146.834 113.268C149.607 111.31 152.027 105.247 153.073 101.003C154.12 96.758 158.443 88.7091 158.443 88.7091C158.443 88.7091 159.449 87.87 160.482 86.9329C161.61 86.6403 162.722 86.2831 163.812 85.863C164.492 85.5063 166.409 83.0099 166.409 83.0099C166.409 83.0099 167.081 81.919 165.872 81.919Z" fill="white" stroke="#263238" stroke-linecap="round" stroke-linejoin="round"/>
<path d="M162.963 76.1566L159.456 81.8769C159.268 82.1826 159.196 82.5482 159.253 82.9049C159.309 83.2616 159.49 83.5849 159.762 83.8139L161.359 85.1636C161.514 85.294 161.694 85.3896 161.887 85.4444C162.081 85.4991 162.283 85.5117 162.481 85.4814C162.68 85.4512 162.87 85.3787 163.039 85.2685C163.209 85.1584 163.354 85.0131 163.466 84.8419L167.184 79.1706C167.39 78.8539 167.471 78.4678 167.409 78.0918C167.347 77.7158 167.147 77.3786 166.851 77.1496L165.043 75.7511C164.883 75.6293 164.7 75.5428 164.507 75.4971C164.313 75.4515 164.112 75.4476 163.917 75.4857C163.721 75.5237 163.536 75.603 163.371 75.7185C163.207 75.834 163.068 75.9832 162.963 76.1566Z" fill="#263238" stroke="#263238" stroke-linecap="round" stroke-linejoin="round"/>
<path d="M174.973 78.7581C174.973 78.7581 173.96 85.4363 173.675 87.9887C173.389 90.5412 173.464 91.0936 175.551 91.3384C177.637 91.5831 181.083 92.674 182.436 95.9607C183.788 99.2474 175.931 109.198 173.6 111.345C171.269 113.492 170.229 116.387 170.745 118.653C171.262 120.919 177.358 128.247 177.093 135.681C176.828 143.114 168.094 164.785 168.094 164.785C168.094 164.785 156.452 159.932 148.044 161.555C148.044 161.555 152.013 132.842 154.372 125.275C156.73 117.709 159.129 113.611 158.939 111.989C158.749 110.366 155.813 105.632 156.526 101.632C157.24 97.632 159.748 94.1286 160.917 91.9538C162.086 89.7789 164.594 89.8069 165.505 89.9118C166.416 90.0167 167.707 90.3104 168.353 89.2964C168.998 88.2824 169.576 83.0517 169.576 83.0517L174.973 78.7581Z" fill="#2563EB" stroke="#263238" stroke-linecap="round" stroke-linejoin="round"/>
<path d="M161.447 107.751L166.626 111.604" stroke="#263238" stroke-linecap="round" stroke-linejoin="round"/>
<path d="M166.239 124.408C166.239 124.408 161.046 134.604 159.87 141.89" stroke="#263238" stroke-linecap="round" stroke-linejoin="round"/>
<path d="M160.108 134.849C160.108 134.849 158.687 141.142 157.98 146.737" stroke="#263238" stroke-linecap="round" stroke-linejoin="round"/>
<path d="M180.587 94.0098C180.587 94.0098 178.853 94.9049 176.95 97.9328C175.047 100.961 173.314 106.122 173.661 107.366C174.007 108.611 177.297 106.478 177.297 106.478C177.297 106.478 180.77 122.499 183.869 121.261C190.102 118.765 181.796 95.2615 181.796 95.2615C181.796 95.2615 181.796 94.3804 180.587 94.0098Z" fill="white" stroke="#263238" stroke-linecap="round" stroke-linejoin="round"/>
<path d="M167.204 96.1985C163.683 95.3034 164.621 91.8488 165.498 89.9048H165.532C166.45 90.0167 167.734 90.3034 168.38 89.2894C169.026 88.2754 169.603 83.0447 169.603 83.0447L174.973 78.786C174.973 78.786 173.96 85.4643 173.675 88.0167C173.389 90.5691 173.464 91.1216 175.55 91.3663C175.55 91.3384 172.22 97.5061 167.204 96.1985Z" fill="white" stroke="#263238" stroke-linecap="round" stroke-linejoin="round"/>
<path d="M170.222 65.6813C169.891 67.5796 170.087 69.5352 170.786 71.3246C171.948 73.912 176.903 76.9189 176.903 76.9189C176.903 76.9189 178.854 74.8211 179.139 77.0518C179.424 79.2826 178.507 81.4644 177.059 81.4294C175.611 81.3944 175.401 79.7371 175.401 79.7371C174.117 81.6581 172.231 83.0676 170.058 83.7301C166.211 85.0378 164.254 84.807 163.799 81.7651C163.343 78.7231 163.873 75.2406 165.219 71.4574C166.565 67.6743 169.685 65.7512 170.222 65.6813Z" fill="white" stroke="#263238" stroke-linecap="round" stroke-linejoin="round"/>
<path d="M184.563 91.7091L184.74 88.8629C185.595 88.0823 186.403 87.2486 187.159 86.3664C188.199 85.1217 188.892 83.3385 189.756 84.0518C190.619 84.7651 188.546 86.9049 188.546 86.9049L188.369 88.3035L191.835 87.2406C191.835 87.2406 195.125 83.856 195.295 84.7441C195.465 85.6322 193.562 88.6601 192.182 90.2685C190.802 91.8769 186.643 92.3664 186.643 92.3664C186.643 92.3664 186.466 106.611 186.466 110.891C186.466 115.17 185.949 119.982 184.74 120.863C183.53 121.744 179.717 121.037 180.587 114.093C181.457 107.149 184.563 91.7091 184.563 91.7091Z" fill="white" stroke="#263238" stroke-linecap="round" stroke-linejoin="round"/>
<path d="M177.297 106.492L176.257 103.108" stroke="#263238" stroke-linecap="round" stroke-linejoin="round"/>
<path d="M82.6591 64.3107C82.6591 64.3107 85.7788 68.3806 86.0983 69.2757C86.3237 69.9276 86.5098 70.5932 86.6556 71.2687L88.6946 72.8211C88.7588 72.8686 88.8128 72.9291 88.8533 72.9989C88.8938 73.0687 88.9199 73.1463 88.9301 73.2269C88.9403 73.3075 88.9343 73.3894 88.9125 73.4676C88.8907 73.5457 88.8536 73.6184 88.8034 73.6812L87.2605 75.6323C87.2605 75.6323 88.6946 80.5273 88.6199 81.2266C88.5451 81.9259 83.5631 83.6672 83.5631 83.6672L83.1009 87.4154L73.6534 87.2895L73.6194 80.3455L69.8472 71.2547C69.8472 71.2547 73.2252 64.6953 82.6591 64.3107Z" fill="white" stroke="#263238" stroke-linecap="round" stroke-linejoin="round"/>
<path d="M81.0278 78.0099L82.2988 77.87C82.4285 78.4519 82.6728 79.0004 83.0165 79.4815C83.3601 79.9625 83.796 80.3661 84.2971 80.6672" fill="white"/>
<path d="M81.0278 78.0099L82.2988 77.87C82.4285 78.4519 82.6728 79.0004 83.0165 79.4815C83.3601 79.9625 83.796 80.3661 84.2971 80.6672" stroke="#263238" stroke-linecap="round" stroke-linejoin="round"/>
<path d="M71.8522 64.5414C71.8522 64.5414 68.2839 64.7163 68.3043 69.8002C68.3247 74.884 73.3271 79.5903 73.599 80.3385C73.8709 81.0868 76.5488 80.7371 78.4315 80.0169C79.4845 79.6638 80.3917 78.957 81.0075 78.0099C81.0075 78.0099 79.2063 75.3106 79.5734 74.5134C79.9404 73.7162 81.8707 74.4784 81.8707 74.4784C82.298 74.2288 82.6836 73.91 83.0125 73.5344C83.3388 73.0659 85.0855 71.0449 83.8757 69.982C82.6659 68.919 80.7832 68.2757 81.6192 66.933C82.4552 65.5904 85.4458 64.2827 84.569 61.3946C83.6922 58.5065 81.7347 58.5974 80.1035 59.5415C78.4723 60.4855 78.0237 57.4436 74.8496 59.1709C71.6755 60.8981 70.7851 63.4226 71.8522 64.5414Z" fill="#263238" stroke="#263238" stroke-linecap="round" stroke-linejoin="round"/>
<path d="M76.0253 74.4994C75.9577 75.0379 75.9577 75.5832 76.0253 76.1217" stroke="white" stroke-width="0.5" stroke-linecap="round" stroke-linejoin="round"/>
<path d="M81.5307 66.3317C81.5307 66.3317 80.8511 67.6254 78.1324 70.1358C77.1794 71.0152 76.5027 72.1667 76.1885 73.4435" stroke="white" stroke-width="0.5" stroke-linecap="round" stroke-linejoin="round"/>
<path d="M82.1695 68.8981C82.1695 68.8981 79.4032 72.7582 77.9487 73.905" stroke="white" stroke-width="0.5" stroke-linecap="round" stroke-linejoin="round"/>
<path d="M110.043 64.7372C112.854 66.1277 115.822 67.1519 118.879 67.7862C118.879 67.7862 114.522 64.7512 110.308 63.996C109.921 63.94 109.71 64.5624 110.043 64.7372Z" fill="#263238" stroke="#263238" stroke-linecap="round" stroke-linejoin="round"/>
<path d="M109.234 87.7161L114.427 74.0379C114.427 74.0379 112.388 70.5903 112.388 69.5484C112.388 68.5064 115.637 64.7582 115.637 64.7582C115.637 64.7582 115.902 62.7233 117.316 63.6953C117.724 63.9842 118.052 64.3769 118.269 64.8353C118.486 65.2936 118.584 65.8019 118.553 66.3106C119.205 67.2564 119.798 68.2445 120.327 69.2687C120.653 70.0798 117.567 74.5903 117.567 74.5903C117.567 74.5903 117.051 87.0168 115.691 91.2895C114.332 95.5622 113.992 96.4503 113.088 97.702C112.184 98.9537 107.889 96.751 107.889 96.751L109.234 87.7161Z" fill="white" stroke="#263238" stroke-linecap="round" stroke-linejoin="round"/>
<path d="M85.4934 219.687L93.9418 222.848C94.1398 222.917 94.3214 223.029 94.4751 223.175C94.6288 223.321 94.7512 223.498 94.8344 223.696C94.9176 223.893 94.9597 224.106 94.9582 224.322C94.9566 224.537 94.9114 224.749 94.8254 224.946C94.709 225.185 94.5067 225.368 94.2612 225.456C93.1874 225.855 82.027 229.792 78.7714 228.372C78.4392 228.2 78.1591 227.938 77.9614 227.614C77.7637 227.289 77.656 226.916 77.6499 226.533C77.7577 223.953 78.0324 221.383 78.4723 218.841C78.4723 218.841 82.6184 220.862 85.4934 219.687Z" fill="#263238" stroke="#263238" stroke-linecap="round" stroke-linejoin="round"/>
<path d="M94.8387 224.953C94.9279 224.77 94.9771 224.57 94.983 224.366C94.9889 224.161 94.9512 223.958 94.8727 223.771C92.5346 224.939 87.5661 227.127 83.0395 227.211C81.2415 227.325 79.437 227.167 77.6836 226.743C77.7268 227.086 77.8493 227.414 78.0408 227.699C78.2324 227.983 78.4875 228.217 78.7847 228.379C82.0607 229.778 93.2007 225.862 94.2745 225.463C94.52 225.375 94.7223 225.192 94.8387 224.953Z" fill="white" stroke="#263238" stroke-linecap="round" stroke-linejoin="round"/>
<path d="M62.0712 217.044C62.0712 217.044 61.31 224.254 61.7178 224.967C62.1256 225.68 63.3422 226.163 65.4356 226.023C66.0774 226.008 66.6984 225.786 67.2107 225.388C67.723 224.991 68.1007 224.437 68.2903 223.806C68.4806 223.288 67.9912 218.575 67.9776 217.75C67.964 216.925 62.0712 217.044 62.0712 217.044Z" fill="#263238" stroke="#263238" stroke-linecap="round" stroke-linejoin="round"/>
<path d="M68.3109 222.456C67.6652 223.736 66.8428 224.554 64.7086 224.596C63.611 224.642 62.5257 224.344 61.5957 223.743C61.5642 224.155 61.6056 224.57 61.718 224.967C62.1326 225.666 63.3424 226.163 65.4358 226.023C66.0776 226.008 66.6986 225.786 67.2109 225.388C67.7232 224.991 68.1009 224.437 68.2905 223.806C68.3498 223.359 68.3566 222.905 68.3109 222.456Z" fill="white" stroke="#263238" stroke-linecap="round" stroke-linejoin="round"/>
<path d="M90.0132 134.086C88.0294 135.096 85.9376 135.863 83.7805 136.373L65.0418 131.919C65.0418 131.919 63.798 142.73 63.832 144.59C63.8659 146.45 64.5116 179.925 64.5116 179.925L61.9561 217.547C62.2211 218.108 62.6393 218.578 63.1596 218.898C63.6799 219.219 64.2796 219.376 64.8855 219.351C66.1291 219.345 67.3572 219.066 68.4878 218.533L76.5216 179.373L78.3091 220.946C78.3091 220.946 79.417 222.044 81.9454 221.988C82.6855 221.963 83.406 221.737 84.0339 221.332C84.6617 220.928 85.1746 220.361 85.5205 219.687C85.5205 219.687 86.7643 203.603 88.6198 192.093C90.4754 180.583 90.6996 148.897 90.6996 148.897L90.0132 134.086Z" fill="white" stroke="#263238" stroke-linecap="round" stroke-linejoin="round"/>
<path d="M72.1919 139.758C74.6496 140.306 77.1539 140.603 79.6684 140.646" stroke="#263238" stroke-linecap="round" stroke-linejoin="round"/>
<path d="M65.2456 137.681C65.2456 137.681 66.1156 138.87 68.4197 138.87" stroke="#263238" stroke-linecap="round" stroke-linejoin="round"/>
<path d="M84.2563 209.687C84.2563 209.687 85.9827 188.352 87.1382 172.946C87.8354 163.873 87.9307 154.761 87.4237 145.674C87.4237 145.674 90.3055 142.415 88.2868 136.786" stroke="#263238" stroke-linecap="round" stroke-linejoin="round"/>
<path d="M84.2563 212.058L83.3931 218.876" stroke="#263238" stroke-linecap="round" stroke-linejoin="round"/>
<path d="M76.5011 179.38L74.4485 151.45L69.6567 146.709" stroke="#263238" stroke-linecap="round" stroke-linejoin="round"/>
<path d="M66.4619 118.758C66.5611 118.44 66.5571 118.097 66.4504 117.782C66.3437 117.467 66.1402 117.195 65.8706 117.01C63.7908 115.562 58.7476 112.583 57.1367 116.506C56.6659 118.037 56.3382 119.61 56.158 121.205C55.7094 124.345 55.8725 145.604 55.8929 147.779C55.8932 147.896 55.8795 148.014 55.8521 148.128C55.6754 148.96 54.9346 152.597 55.4511 154.765C56.0288 157.233 57.1367 159.135 59.0194 159.66C60.9021 160.184 61.9285 157.946 61.6362 156.576C61.3439 155.205 62.044 154.142 61.7517 152.772C61.5138 151.667 60.4943 148.779 60.1069 147.709C60.0134 147.445 59.9899 147.16 60.0389 146.883C60.5691 144.086 63.5393 128.401 63.7636 127.646C63.9879 126.891 65.7279 121.198 66.4619 118.758Z" fill="white" stroke="#263238" stroke-linecap="round" stroke-linejoin="round"/>
<path d="M58.4556 155.233C58.4556 155.233 60.8548 156.96 61.1335 158.555" stroke="#263238" stroke-linecap="round" stroke-linejoin="round"/>
<path d="M59.2168 153.799C59.2168 153.799 61.1199 155.079 61.6297 156.086" stroke="#263238" stroke-linecap="round" stroke-linejoin="round"/>
<path d="M59.5635 152.352L60.2432 153.317C60.2432 153.317 60.583 157.163 61.6433 156.59C62.7036 156.016 62.0783 151.352 62.0783 151.352C62.0783 151.352 61.5413 150.212 59.8829 147.492" fill="white"/>
<path d="M59.5635 152.352L60.2432 153.317C60.2432 153.317 60.583 157.163 61.6433 156.59C62.7036 156.016 62.0783 151.352 62.0783 151.352C62.0783 151.352 61.5413 150.212 59.8829 147.492" stroke="#263238" stroke-linecap="round" stroke-linejoin="round"/>
<path d="M59.4413 148.331C59.8078 149.709 59.7748 151.168 59.3462 152.527C58.7342 153.71 58.0532 154.854 57.3071 155.953C58.3037 156.934 59.2368 157.98 60.1006 159.086" stroke="#263238" stroke-linecap="round" stroke-linejoin="round"/>
<path d="M60.6373 93.5273L54.4727 116.835C54.4727 116.835 59.6314 121.135 66.0272 121.031L70.1528 98.9049C70.1528 98.9049 65.5446 88.2546 60.6373 93.5273Z" fill="#263238" stroke="#263238" stroke-linecap="round" stroke-linejoin="round"/>
<path d="M70.8327 85.884C70.8327 85.884 61.7794 90.5134 60.9298 92.6112C60.2502 94.3595 62.33 106.737 62.3708 108.912C62.4115 111.087 64.2195 129.772 64.7089 133.387C65.1982 137.002 76.9431 138.541 81.4153 137.149C85.8876 135.758 90.0405 135.226 90.0133 134.065C89.9861 132.905 89.388 123.073 89.6327 121.191C89.8773 119.31 91.7736 105.199 91.7736 105.199L108.84 101.562C108.84 101.562 109.629 101.073 109.649 97.8979C109.652 94.9013 109.502 91.9065 109.201 88.926C106.99 89.4716 104.704 89.6183 102.445 89.3595C98.3257 88.9819 93.4456 87.842 92.5757 88.0938C91.7057 88.3455 85.7789 87.0728 83.8282 86.8211C81.1163 86.4435 74.2311 84.0798 70.8327 85.884Z" fill="#263238" stroke="#263238" stroke-linecap="round" stroke-linejoin="round"/>
<path d="M63.2339 119.905L60.8618 99.4363" stroke="white" stroke-width="0.5" stroke-linecap="round" stroke-linejoin="round"/>
<path d="M61.5075 108.345L60.3521 105.681" stroke="white" stroke-width="0.5" stroke-linecap="round" stroke-linejoin="round"/>
<path d="M91.7732 105.163L85.1191 106.268" stroke="white" stroke-width="0.5" stroke-linecap="round" stroke-linejoin="round"/>
<path d="M90.3053 105.681L85.4116 110.422" stroke="white" stroke-width="0.5" stroke-linecap="round" stroke-linejoin="round"/>
<path d="M105.278 89.9749C105.278 89.9749 100.67 97.0867 89.4419 99.765" stroke="white" stroke-width="0.5" stroke-linecap="round" stroke-linejoin="round"/>
</g>
<defs>
<filter id="filter0_d_95_1309" x="0" y="0" width="249.102" height="240.225" filterUnits="userSpaceOnUse" color-interpolation-filters="sRGB">
<feFlood flood-opacity="0" result="BackgroundImageFix"/>
<feColorMatrix in="SourceAlpha" type="matrix" values="0 0 0 0 0 0 0 0 0 0 0 0 0 0 0 0 0 0 127 0" result="hardAlpha"/>
<feOffset dy="4"/>
<feGaussianBlur stdDeviation="2"/>
<feComposite in2="hardAlpha" operator="out"/>
<feColorMatrix type="matrix" values="0 0 0 0 0 0 0 0 0 0 0 0 0 0 0 0 0 0 0.25 0"/>
<feBlend mode="normal" in2="BackgroundImageFix" result="effect1_dropShadow_95_1309"/>
<feBlend mode="normal" in="SourceGraphic" in2="effect1_dropShadow_95_1309" result="shape"/>
</filter>
</defs>
</svg>
