<svg width="235" height="206" viewBox="0 0 235 206" fill="none" xmlns="http://www.w3.org/2000/svg">
<path d="M235 189.339H215.474V189.495H235V189.339Z" fill="#EBEBEB"/>
<path d="M165.032 191.036H159.909V191.192H165.032V191.036Z" fill="#EBEBEB"/>
<path d="M214.885 183.55H203.571V183.706H214.885V183.55Z" fill="#EBEBEB"/>
<path d="M26.1524 184.598H0.689819V184.754H26.1524V184.598Z" fill="#EBEBEB"/>
<path d="M35.1371 184.598H31.4053V184.754H35.1371V184.598Z" fill="#EBEBEB"/>
<path d="M102.499 187.23H47.27V187.386H102.499V187.23Z" fill="#EBEBEB"/>
<path d="M206.531 134.332H169.248V179.682H206.531V134.332Z" fill="#F5F5F5"/>
<path d="M229.429 134.332H206.531V179.682H229.429V134.332Z" fill="#EBEBEB"/>
<path d="M215.692 134.332V151.495L216.282 150.84L217.331 151.638L218.245 150.84L219.424 151.638L220.668 150.84L221.452 151.638L222.36 151.052V134.332H215.692Z" fill="#E0E0E0"/>
<path opacity="0.7" d="M215.692 134.332V151.495L216.282 150.84L217.331 151.638L218.245 150.84L219.424 151.638L220.668 150.84L221.452 151.638L222.36 151.052V134.332H215.692Z" fill="#E0E0E0"/>
<path d="M206.318 59.5114H177.649V94.3858H206.318V59.5114Z" fill="#F5F5F5"/>
<path d="M223.928 59.5114H206.318V94.3858H223.928V59.5114Z" fill="#E6E6E6"/>
<path d="M200.842 69.3124H172.172L177.655 59.5114H206.318L200.842 69.3124Z" fill="#E6E6E6"/>
<path d="M211.512 69.3124H229.122L223.934 59.5114H206.318L211.512 69.3124Z" fill="#F5F5F5"/>
<path d="M190.353 134.401H223.309V94.311H190.353V134.401Z" fill="#F5F5F5"/>
<path d="M170.114 134.401H190.359V94.311H170.114V134.401Z" fill="#E6E6E6"/>
<path d="M219.342 98.8215H207.097V106.452H219.342V98.8215Z" fill="#E0E0E0"/>
<path d="M203.848 9.35817L176.729 6.34487C175.867 6.24876 175.004 6.51868 174.33 7.09536C173.655 7.67203 173.225 8.50832 173.133 9.42056L172.785 12.9392C172.74 13.3906 172.78 13.847 172.901 14.2823C173.023 14.7175 173.225 15.1231 173.495 15.476C173.764 15.8288 174.097 16.1219 174.474 16.3385C174.851 16.5552 175.265 16.6911 175.691 16.7386L184.947 17.743L187.789 21.8044C187.911 21.98 188.066 22.1267 188.245 22.2352C188.423 22.3437 188.621 22.4116 188.826 22.4345C189.031 22.4574 189.238 22.4348 189.434 22.3682C189.63 22.3016 189.81 22.1925 189.964 22.0477L193.537 18.7038L202.805 19.7332C203.231 19.7807 203.663 19.7389 204.074 19.6101C204.485 19.4812 204.869 19.2679 205.202 18.9823C205.535 18.6967 205.812 18.3444 206.017 17.9455C206.222 17.5466 206.35 17.1089 206.395 16.6575L206.743 13.1326C206.827 12.2269 206.571 11.3225 206.029 10.6159C205.487 9.90923 204.703 9.45729 203.848 9.35817Z" fill="#E0E0E0"/>
<path d="M176.694 12.8581L175.727 13.4196C175.682 13.4458 175.63 13.4566 175.579 13.4504C175.528 13.4442 175.48 13.4213 175.442 13.385C175.404 13.3486 175.377 13.3006 175.366 13.2476C175.355 13.1945 175.359 13.1391 175.379 13.0889L175.803 12.0159C175.823 11.9665 175.828 11.9119 175.817 11.8595C175.807 11.807 175.781 11.7593 175.744 11.7227L174.925 10.9241C174.886 10.8872 174.86 10.8384 174.849 10.7847C174.838 10.7309 174.843 10.6748 174.864 10.6244C174.885 10.574 174.92 10.5318 174.965 10.5039C175.01 10.4759 175.062 10.4636 175.114 10.4687L176.216 10.5685C176.266 10.5723 176.316 10.56 176.359 10.5333C176.402 10.5065 176.436 10.4666 176.458 10.4188L176.929 9.36443C176.951 9.31494 176.987 9.27383 177.031 9.24682C177.076 9.21981 177.128 9.20824 177.179 9.21374C177.23 9.21923 177.279 9.24151 177.317 9.27746C177.356 9.31342 177.383 9.36126 177.395 9.41433L177.643 10.5498C177.655 10.6017 177.682 10.6484 177.72 10.684C177.758 10.7196 177.805 10.7424 177.855 10.7494L178.952 10.8992C179.001 10.9073 179.048 10.9314 179.084 10.9681C179.121 11.0049 179.146 11.0526 179.156 11.1048C179.166 11.157 179.161 11.2113 179.142 11.2604C179.122 11.3095 179.088 11.351 179.046 11.3795L178.103 12.0034C178.059 12.0309 178.025 12.0723 178.005 12.1215C177.985 12.1708 177.98 12.2255 177.991 12.2779L178.197 13.4258C178.208 13.4798 178.202 13.5359 178.181 13.5862C178.16 13.6365 178.124 13.6785 178.079 13.7062C178.034 13.7338 177.982 13.7457 177.93 13.7402C177.878 13.7346 177.829 13.712 177.79 13.6754L176.959 12.908C176.923 12.8748 176.88 12.8526 176.833 12.8438C176.786 12.835 176.738 12.8399 176.694 12.8581Z" fill="#FAFAFA"/>
<path d="M183.084 13.5756L182.118 14.1371C182.073 14.1633 182.021 14.174 181.97 14.1678C181.919 14.1616 181.871 14.1388 181.833 14.1024C181.794 14.0661 181.768 14.0181 181.757 13.965C181.745 13.912 181.75 13.8566 181.77 13.8064L182.2 12.7271C182.22 12.6777 182.225 12.6231 182.214 12.5707C182.204 12.5183 182.178 12.4705 182.141 12.4339L181.333 11.6353C181.297 11.5976 181.272 11.5488 181.262 11.4955C181.253 11.4422 181.259 11.3872 181.281 11.3379C181.302 11.2887 181.337 11.2476 181.381 11.2204C181.426 11.1932 181.477 11.1813 181.528 11.1861L182.625 11.2797C182.675 11.2848 182.726 11.2732 182.771 11.2464C182.815 11.2196 182.85 11.1789 182.872 11.13L183.338 10.0756C183.36 10.0262 183.396 9.98531 183.441 9.95872C183.486 9.93212 183.538 9.92115 183.59 9.92734C183.641 9.93354 183.689 9.95658 183.728 9.99324C183.766 10.0299 183.793 10.0784 183.804 10.1318L184.057 11.261C184.069 11.314 184.095 11.3621 184.133 11.3989C184.171 11.4357 184.218 11.4594 184.269 11.4669L185.36 11.6104C185.412 11.616 185.461 11.6388 185.5 11.6756C185.539 11.7124 185.566 11.7613 185.577 11.8152C185.588 11.8692 185.583 11.9255 185.562 11.9761C185.541 12.0267 185.505 12.069 185.46 12.097L184.517 12.7209C184.473 12.7482 184.438 12.7892 184.417 12.8384C184.396 12.8875 184.39 12.9423 184.399 12.9954L184.605 14.1371C184.616 14.191 184.61 14.2471 184.589 14.2974C184.568 14.3478 184.532 14.3897 184.487 14.4174C184.442 14.445 184.39 14.4569 184.338 14.4514C184.286 14.4459 184.238 14.4232 184.199 14.3866L183.367 13.6255C183.331 13.5863 183.285 13.5603 183.234 13.5513C183.183 13.5423 183.13 13.5508 183.084 13.5756Z" fill="#FAFAFA"/>
<path d="M189.505 14.2868L188.538 14.8483C188.493 14.8745 188.441 14.8853 188.39 14.8791C188.339 14.8729 188.291 14.85 188.253 14.8137C188.215 14.7773 188.188 14.7293 188.177 14.6763C188.165 14.6233 188.17 14.5678 188.19 14.5177L188.614 13.4446C188.634 13.3952 188.639 13.3406 188.628 13.2882C188.618 13.2357 188.592 13.188 188.555 13.1514L187.754 12.3528C187.715 12.316 187.688 12.2672 187.677 12.2134C187.666 12.1596 187.672 12.1035 187.693 12.0531C187.714 12.0027 187.749 11.9606 187.794 11.9326C187.838 11.9047 187.89 11.8923 187.942 11.8974L189.045 11.9972C189.095 12.001 189.144 11.9887 189.187 11.962C189.231 11.9353 189.265 11.8953 189.286 11.8475L189.758 10.7931C189.78 10.7437 189.815 10.7025 189.86 10.6755C189.905 10.6485 189.956 10.637 190.008 10.6424C190.059 10.6479 190.107 10.6702 190.146 10.7062C190.185 10.7421 190.212 10.79 190.224 10.843L190.477 11.9785C190.488 12.0303 190.513 12.0773 190.55 12.1131C190.587 12.1489 190.634 12.1716 190.684 12.1781L191.78 12.3216C191.832 12.3283 191.88 12.3519 191.918 12.3891C191.956 12.4263 191.982 12.4753 191.993 12.5291C192.003 12.5828 191.997 12.6387 191.976 12.6888C191.955 12.7389 191.919 12.7807 191.875 12.8082L190.931 13.4321C190.889 13.4609 190.856 13.5024 190.836 13.5513C190.816 13.6002 190.81 13.6543 190.819 13.7066L191.026 14.8545C191.035 14.908 191.028 14.9631 191.006 15.0122C190.984 15.0613 190.948 15.102 190.904 15.1288C190.859 15.1555 190.808 15.1668 190.757 15.1613C190.706 15.1558 190.657 15.1336 190.619 15.0979L189.788 14.3492C189.752 14.3103 189.705 14.2835 189.655 14.2724C189.605 14.2613 189.552 14.2663 189.505 14.2868Z" fill="#FAFAFA"/>
<path d="M195.919 15.0042L194.97 15.5969C194.924 15.6226 194.872 15.6327 194.82 15.6259C194.769 15.6192 194.72 15.5958 194.682 15.5591C194.643 15.5224 194.616 15.474 194.604 15.4205C194.593 15.367 194.597 15.311 194.616 15.26L195.046 14.187C195.066 14.1376 195.071 14.083 195.06 14.0306C195.05 13.9781 195.024 13.9304 194.987 13.8938L194.186 13.0952C194.147 13.0583 194.12 13.0095 194.109 12.9557C194.098 12.902 194.104 12.8459 194.125 12.7955C194.146 12.7451 194.181 12.7029 194.226 12.675C194.27 12.647 194.322 12.6347 194.374 12.6398L195.471 12.7396C195.522 12.7447 195.573 12.733 195.617 12.7062C195.661 12.6794 195.697 12.6388 195.718 12.5899L196.184 11.5355C196.207 11.4868 196.243 11.4467 196.289 11.4204C196.334 11.3941 196.385 11.3829 196.436 11.3883C196.487 11.3937 196.536 11.4155 196.575 11.4507C196.614 11.4859 196.642 11.5329 196.656 11.5854L196.903 12.7209C196.916 12.7735 196.942 12.8212 196.98 12.8578C197.018 12.8945 197.065 12.9185 197.116 12.9268L198.206 13.0702C198.258 13.0759 198.307 13.0987 198.346 13.1355C198.385 13.1723 198.412 13.2211 198.423 13.2751C198.434 13.3291 198.429 13.3854 198.408 13.436C198.387 13.4866 198.352 13.5289 198.307 13.5569L197.363 14.1807C197.32 14.2093 197.286 14.2505 197.265 14.2993C197.245 14.3481 197.238 14.4023 197.245 14.4552L197.452 15.6032C197.461 15.656 197.454 15.7105 197.433 15.7594C197.412 15.8082 197.377 15.849 197.334 15.8762C197.29 15.9035 197.239 15.9158 197.189 15.9116C197.138 15.9074 197.09 15.8868 197.051 15.8527L196.214 15.0916C196.182 15.0433 196.135 15.0082 196.081 14.9922C196.027 14.9763 195.97 14.9806 195.919 15.0042Z" fill="#FAFAFA"/>
<path d="M202.339 15.7155L201.372 16.2769C201.327 16.3032 201.275 16.3139 201.224 16.3077C201.173 16.3015 201.125 16.2787 201.087 16.2423C201.049 16.206 201.022 16.158 201.011 16.1049C201 16.0519 201.004 15.9964 201.024 15.9463L201.449 14.8732C201.469 14.8229 201.474 14.7673 201.464 14.7137C201.453 14.6602 201.427 14.6114 201.39 14.5738L200.588 13.7815C200.549 13.7443 200.522 13.6949 200.511 13.6403C200.5 13.5858 200.506 13.529 200.527 13.4783C200.549 13.4275 200.586 13.3853 200.631 13.358C200.677 13.3306 200.73 13.3194 200.783 13.326L201.879 13.4258C201.929 13.4296 201.979 13.4173 202.022 13.3906C202.065 13.3639 202.1 13.324 202.121 13.2761L202.592 12.2155C202.615 12.1661 202.651 12.1252 202.696 12.0986C202.741 12.072 202.793 12.061 202.844 12.0672C202.896 12.0734 202.944 12.0965 202.982 12.1331C203.021 12.1698 203.047 12.2182 203.058 12.2717L203.312 13.4071C203.322 13.4589 203.348 13.506 203.385 13.5417C203.422 13.5775 203.468 13.6002 203.518 13.6068L204.615 13.7503C204.666 13.7569 204.714 13.7805 204.752 13.8178C204.791 13.855 204.817 13.9039 204.827 13.9577C204.837 14.0115 204.832 14.0673 204.81 14.1174C204.789 14.1675 204.754 14.2093 204.709 14.2369L203.772 14.8608C203.728 14.8881 203.693 14.9291 203.672 14.9783C203.65 15.0274 203.644 15.0822 203.654 15.1353L203.86 16.2769C203.871 16.3309 203.865 16.387 203.844 16.4373C203.823 16.4877 203.787 16.5296 203.742 16.5573C203.697 16.5849 203.645 16.5968 203.593 16.5913C203.541 16.5858 203.492 16.5631 203.453 16.5265L202.634 15.7467C202.595 15.7076 202.545 15.6833 202.491 15.6777C202.438 15.672 202.384 15.6853 202.339 15.7155Z" fill="#FAFAFA"/>
<path d="M22.2319 121.137H23.2813C23.2813 107.481 27.8326 96.3697 33.4275 96.3697C39.0223 96.3697 43.5795 107.481 43.5795 121.137H44.6348C44.6348 106.632 39.6118 94.8287 33.4334 94.8287C27.2549 94.8287 22.2319 106.632 22.2319 121.137Z" fill="#E0E0E0"/>
<path d="M15.6349 121.137H16.6784C16.6784 107.481 21.2356 96.3697 26.8304 96.3697C32.4252 96.3697 36.9707 107.481 36.9707 121.137H38.0142C38.0142 106.632 32.9912 94.8287 26.8127 94.8287C20.6343 94.8287 15.6349 106.632 15.6349 121.137Z" fill="#E0E0E0"/>
<path d="M7.3104 117.201H43.8683L48.0482 179.682H0L7.3104 117.201Z" fill="#E0E0E0"/>
<path d="M13.5774 117.201H53.2717L57.4457 179.682H9.39746L13.5774 117.201Z" fill="#F0F0F0"/>
<path d="M18.8007 156.542H45.9553V140.34H18.8007L18.8007 156.542Z" fill="#FAFAFA"/>
<path d="M69.3958 131.519H70.2565C70.2565 120.289 74.0001 111.149 78.6045 111.149C83.2089 111.149 86.9525 120.289 86.9525 131.519H87.8133C87.8133 119.59 83.6864 109.877 78.6045 109.877C73.5226 109.877 69.3958 119.59 69.3958 131.519Z" fill="#E0E0E0"/>
<path d="M63.9425 131.519H64.8032C64.8032 120.289 68.5469 111.149 73.1513 111.149C77.7556 111.149 81.4993 120.289 81.4993 131.519H82.3659C82.3659 119.59 78.2391 109.877 73.1572 109.877C68.0752 109.877 63.9425 119.59 63.9425 131.519Z" fill="#E0E0E0"/>
<path d="M57.0919 128.281H87.1707L90.6018 179.682H51.0785L57.0919 128.281Z" fill="#E0E0E0"/>
<path d="M62.2504 128.281H94.8996L98.3367 179.682H58.8134L62.2504 128.281Z" fill="#F5F5F5"/>
<path d="M66.5482 160.647H88.8862V147.321H66.5482V160.647Z" fill="#E0E0E0"/>
<path d="M117.149 205.073C180.28 205.073 231.457 201.911 231.457 198.011C231.457 194.111 180.28 190.949 117.149 190.949C54.0189 190.949 2.84167 194.111 2.84167 198.011C2.84167 201.911 54.0189 205.073 117.149 205.073Z" fill="#F5F5F5"/>
<path d="M157.639 0H145.017V153.99H157.639C160.454 153.99 163.153 152.807 165.143 150.701C167.133 148.595 168.251 145.739 168.251 142.761V11.2297C168.251 8.2514 167.133 5.39508 165.143 3.28911C163.153 1.18313 160.454 0 157.639 0Z" fill="#263238"/>
<path d="M166.736 15.4471C166.726 15.2988 166.744 15.1499 166.79 15.0095C166.836 14.8692 166.91 14.7405 167.005 14.6314C167.101 14.5224 167.216 14.4354 167.345 14.376C167.474 14.3165 167.613 14.2858 167.753 14.2858C167.894 14.2858 168.033 14.3165 168.161 14.376C168.29 14.4354 168.406 14.5224 168.501 14.6314C168.597 14.7405 168.67 14.8692 168.716 15.0095C168.762 15.1499 168.781 15.2988 168.77 15.4471V25.7597C168.751 26.0309 168.635 26.2844 168.446 26.4693C168.258 26.6542 168.01 26.757 167.753 26.757C167.496 26.757 167.249 26.6542 167.06 26.4693C166.871 26.2844 166.756 26.0309 166.736 25.7597V15.4471Z" fill="#407BFF"/>
<path opacity="0.3" d="M166.736 15.4471C166.726 15.2988 166.744 15.1499 166.79 15.0095C166.836 14.8692 166.91 14.7405 167.005 14.6314C167.101 14.5224 167.216 14.4354 167.345 14.376C167.474 14.3165 167.613 14.2858 167.753 14.2858C167.894 14.2858 168.033 14.3165 168.161 14.376C168.29 14.4354 168.406 14.5224 168.501 14.6314C168.597 14.7405 168.67 14.8692 168.716 15.0095C168.762 15.1499 168.781 15.2988 168.77 15.4471V25.7597C168.751 26.0309 168.635 26.2844 168.446 26.4693C168.258 26.6542 168.01 26.757 167.753 26.757C167.496 26.757 167.249 26.6542 167.06 26.4693C166.871 26.2844 166.756 26.0309 166.736 25.7597V15.4471Z" fill="white"/>
<path d="M155.057 153.99H72.1196C69.3051 153.99 66.606 152.807 64.6158 150.701C62.6257 148.595 61.5077 145.739 61.5077 142.761V11.2297C61.5077 8.2514 62.6257 5.39508 64.6158 3.28911C66.606 1.18313 69.3051 0 72.1196 0H155.057C157.872 0 160.571 1.18313 162.561 3.28911C164.551 5.39508 165.669 8.2514 165.669 11.2297V142.773C165.666 145.749 164.547 148.602 162.557 150.706C160.567 152.809 157.87 153.99 155.057 153.99Z" fill="#407BFF"/>
<path opacity="0.6" d="M64.7679 142.973H161.772L161.772 11.0238H64.7679L64.7679 142.973Z" fill="white"/>
<path opacity="0.2" d="M111.383 6.08906C111.382 6.48567 111.492 6.87371 111.7 7.204C111.907 7.53428 112.203 7.79193 112.549 7.94428C112.895 8.09663 113.276 8.13681 113.644 8.05974C114.011 7.98267 114.349 7.7918 114.614 7.51136C114.879 7.23091 115.059 6.8735 115.132 6.48445C115.205 6.0954 115.167 5.69222 115.023 5.32603C114.879 4.95985 114.636 4.64714 114.324 4.42757C114.011 4.20799 113.645 4.09143 113.27 4.09266C112.77 4.09431 112.291 4.30517 111.938 4.67921C111.584 5.05325 111.385 5.56009 111.383 6.08906Z" fill="black"/>
<path d="M128.433 34.1633C128.317 35.0894 128.391 36.0314 128.65 36.9244C128.91 37.8174 129.349 38.6404 129.938 39.3368C130.527 40.0332 131.251 40.5865 132.06 40.9589C132.87 41.3312 133.747 41.5137 134.629 41.4938C136.527 41.4542 138.348 40.6908 139.756 39.3439C141.164 37.9971 142.065 36.1573 142.294 34.1633L143.013 26.8265H129.164L128.433 34.1633Z" fill="#407BFF"/>
<path d="M100.736 34.1633C100.618 35.0896 100.692 36.032 100.951 36.9254C101.21 37.8189 101.65 38.6423 102.239 39.339C102.827 40.0357 103.552 40.589 104.362 40.961C105.172 41.333 106.049 41.5147 106.932 41.4938C108.83 41.4529 110.65 40.6891 112.057 39.3424C113.465 37.9958 114.367 36.1568 114.597 34.1633L115.31 26.8265H101.461L100.736 34.1633Z" fill="#407BFF"/>
<path d="M73.0333 34.1633C72.9166 35.0894 72.9906 36.0314 73.2504 36.9244C73.5101 37.8174 73.9494 38.6404 74.538 39.3368C75.1267 40.0332 75.8507 40.5865 76.6606 40.9589C77.4704 41.3312 78.3467 41.5137 79.2295 41.4938C81.1273 41.4542 82.9477 40.6908 84.3559 39.3439C85.7641 37.9971 86.6652 36.1573 86.8936 34.1633L87.6129 26.8265H73.7644L73.0333 34.1633Z" fill="#407BFF"/>
<path d="M142.282 34.1633C142.166 35.0898 142.241 36.0318 142.501 36.9248C142.762 37.8178 143.202 38.6407 143.791 39.3369C144.38 40.0332 145.104 40.5865 145.914 40.9587C146.724 41.331 147.601 41.5135 148.484 41.4938C150.381 41.4517 152.2 40.6873 153.608 39.3409C155.015 37.9945 155.917 36.1563 156.148 34.1633L156.861 26.8265H143.013L142.282 34.1633Z" fill="#407BFF"/>
<path d="M114.585 34.1633C114.468 35.0894 114.542 36.0314 114.802 36.9244C115.061 37.8174 115.501 38.6404 116.089 39.3368C116.678 40.0332 117.402 40.5865 118.212 40.9589C119.022 41.3312 119.898 41.5137 120.781 41.4938C122.679 41.4542 124.499 40.6908 125.907 39.3439C127.315 37.9971 128.217 36.1573 128.445 34.1633L129.164 26.8265H115.31L114.585 34.1633Z" fill="#407BFF"/>
<path d="M86.8818 34.1633C86.7651 35.0894 86.8391 36.0314 87.0989 36.9244C87.3586 37.8174 87.7979 38.6404 88.3865 39.3368C88.9752 40.0332 89.6993 40.5865 90.5091 40.9589C91.3189 41.3312 92.1953 41.5137 93.078 41.4938C94.975 41.4517 96.7942 40.6873 98.2018 39.3409C99.6095 37.9945 100.511 36.1563 100.742 34.1633L101.461 26.8265H87.6129L86.8818 34.1633Z" fill="#407BFF"/>
<path d="M59.1848 34.1633C59.0681 35.0894 59.1421 36.0314 59.4019 36.9244C59.6616 37.8174 60.1008 38.6404 60.6895 39.3368C61.2781 40.0332 62.0022 40.5865 62.8121 40.9589C63.6219 41.3312 64.4982 41.5137 65.381 41.4938C67.2788 41.4542 69.0992 40.6908 70.5074 39.3439C71.9156 37.9971 72.8167 36.1573 73.0451 34.1633L73.7644 26.8265H59.91L59.1848 34.1633Z" fill="#407BFF"/>
<g opacity="0.9">
<path d="M142.282 34.1633C142.166 35.0898 142.241 36.0318 142.501 36.9248C142.762 37.8178 143.202 38.6407 143.791 39.3369C144.38 40.0332 145.104 40.5865 145.914 40.9587C146.724 41.331 147.601 41.5135 148.484 41.4938C150.381 41.4517 152.2 40.6873 153.608 39.3409C155.015 37.9945 155.917 36.1563 156.148 34.1633L156.861 26.8265H143.013L142.282 34.1633Z" fill="white"/>
<path d="M114.585 34.1633C114.468 35.0894 114.542 36.0314 114.802 36.9244C115.061 37.8174 115.501 38.6404 116.089 39.3368C116.678 40.0332 117.402 40.5865 118.212 40.9589C119.022 41.3312 119.898 41.5137 120.781 41.4938C122.679 41.4542 124.499 40.6908 125.907 39.3439C127.315 37.9971 128.217 36.1573 128.445 34.1633L129.164 26.8265H115.31L114.585 34.1633Z" fill="white"/>
<path d="M86.8818 34.1633C86.7651 35.0894 86.8391 36.0314 87.0989 36.9244C87.3586 37.8174 87.7979 38.6404 88.3865 39.3368C88.9752 40.0332 89.6993 40.5865 90.5091 40.9589C91.3189 41.3312 92.1953 41.5137 93.078 41.4938C94.975 41.4517 96.7942 40.6873 98.2018 39.3409C99.6095 37.9945 100.511 36.1563 100.742 34.1633L101.461 26.8265H87.6129L86.8818 34.1633Z" fill="white"/>
<path d="M59.1848 34.1633C59.0681 35.0894 59.1421 36.0314 59.4019 36.9244C59.6616 37.8174 60.1008 38.6404 60.6895 39.3368C61.2781 40.0332 62.0022 40.5865 62.8121 40.9589C63.6219 41.3312 64.4982 41.5137 65.381 41.4938C67.2788 41.4542 69.0992 40.6908 70.5074 39.3439C71.9156 37.9971 72.8167 36.1573 73.0451 34.1633L73.7644 26.8265H59.91L59.1848 34.1633Z" fill="white"/>
</g>
<path d="M59.91 26.8327H156.914L161.519 11.0176H64.5144L59.91 26.8327Z" fill="#407BFF"/>
<path opacity="0.2" d="M59.91 26.8327H156.914L161.519 11.0176H64.5144L59.91 26.8327Z" fill="black"/>
<g opacity="0.2">
<path d="M128.905 149.106H97.6588C97.4634 149.106 97.2759 149.023 97.1377 148.877C96.9995 148.731 96.9219 148.533 96.9219 148.326C96.9219 148.119 96.9995 147.921 97.1377 147.774C97.2759 147.628 97.4634 147.546 97.6588 147.546H128.905C129.1 147.546 129.288 147.628 129.426 147.774C129.564 147.921 129.642 148.119 129.642 148.326C129.642 148.533 129.564 148.731 129.426 148.877C129.288 149.023 129.1 149.106 128.905 149.106Z" fill="black"/>
</g>
<path opacity="0.2" d="M108.253 43.6586H76.9361C75.1323 43.6586 73.67 45.206 73.67 47.1148V80.2549C73.67 82.1638 75.1323 83.7112 76.9361 83.7112H108.253C110.057 83.7112 111.519 82.1638 111.519 80.2549V47.1148C111.519 45.206 110.057 43.6586 108.253 43.6586Z" fill="black"/>
<path d="M106.738 42.0553H75.421C73.6172 42.0553 72.1549 43.6027 72.1549 45.5115V78.6517C72.1549 80.5605 73.6172 82.1079 75.421 82.1079H106.738C108.542 82.1079 110.004 80.5605 110.004 78.6517V45.5115C110.004 43.6027 108.542 42.0553 106.738 42.0553Z" fill="#407BFF"/>
<path d="M78.1448 51.4507L76.441 52.6985C76.3609 52.7562 76.266 52.7865 76.1691 52.7851C76.0722 52.7837 75.978 52.7508 75.8994 52.6908C75.8208 52.6308 75.7616 52.5467 75.7298 52.4498C75.698 52.353 75.6952 52.2481 75.7217 52.1495L76.3113 50.047C76.3403 49.9496 76.34 49.845 76.3104 49.7478C76.2808 49.6506 76.2235 49.5655 76.1462 49.5042L74.4896 48.1754C74.4131 48.1122 74.3569 48.0255 74.3287 47.9272C74.3005 47.829 74.3016 47.7239 74.3319 47.6263C74.3622 47.5288 74.4202 47.4435 74.498 47.3821C74.5758 47.3207 74.6696 47.2862 74.7666 47.2833L76.8419 47.2396C76.9377 47.2379 77.0308 47.2054 77.1088 47.1463C77.1867 47.0872 77.2458 47.0044 77.2781 46.9089L77.962 44.8252C77.9928 44.7268 78.052 44.6412 78.1314 44.5805C78.2108 44.5198 78.3062 44.4872 78.4042 44.4872C78.5021 44.4872 78.5975 44.5198 78.6769 44.5805C78.7563 44.6412 78.8156 44.7268 78.8463 44.8252L79.5302 46.9089C79.5622 47.0035 79.6204 47.0856 79.6971 47.1446C79.7739 47.2036 79.8657 47.2367 79.9606 47.2396L82.0417 47.2833C82.1382 47.2874 82.2312 47.3228 82.3081 47.3846C82.385 47.4465 82.4421 47.5318 82.4717 47.6291C82.5012 47.7264 82.5019 47.831 82.4735 47.9287C82.4451 48.0264 82.389 48.1125 82.3129 48.1754L80.6562 49.5042C80.5809 49.5672 80.525 49.6524 80.4956 49.749C80.4662 49.8457 80.4647 49.9494 80.4912 50.047L81.0807 52.1495C81.1096 52.2478 81.1087 52.3532 81.078 52.451C81.0474 52.5487 80.9886 52.6339 80.9099 52.6944C80.8312 52.755 80.7366 52.788 80.6393 52.7887C80.5419 52.7894 80.4469 52.7579 80.3674 52.6985L78.6577 51.4507C78.5813 51.3984 78.4922 51.3705 78.4012 51.3705C78.3102 51.3705 78.2211 51.3984 78.1448 51.4507Z" fill="white"/>
<path d="M92.6771 58.5504L101.951 58.7376C102.146 58.7394 102.335 58.8123 102.485 58.9442C102.635 59.076 102.738 59.2586 102.776 59.4613L104.545 68.6759C104.584 68.8701 104.587 69.0707 104.553 69.2662C104.519 69.4616 104.449 69.648 104.346 69.8145C104.244 69.981 104.111 70.1243 103.956 70.2362C103.801 70.3481 103.626 70.4264 103.442 70.4664C103.344 70.4894 103.243 70.4999 103.142 70.4976C99.3037 70.3541 95.8902 70.0609 91.103 69.9735C85.4552 69.8612 86.876 70.5974 80.2377 70.5974C76.2346 70.5974 75.592 65.7499 77.2899 65.5503C85.072 64.6644 87.3122 62.225 90.3484 59.349C91.0044 58.7868 91.8342 58.5022 92.6771 58.5504Z" fill="#263238"/>
<path d="M91.1443 67.453C92.7125 67.453 93.6793 66.2053 94.4634 65.2383C94.882 64.7018 95.3596 64.1028 95.6425 64.1028H103.637L103.342 62.5681H95.672C94.6875 62.5681 94.0095 63.4228 93.3551 64.2526C92.7007 65.0823 92.0345 65.9183 91.1443 65.9183V67.453Z" fill="white"/>
<path d="M94.2158 87.9536H73.9236C72.9468 87.9536 72.1549 88.7916 72.1549 89.8252V90.8921C72.1549 91.9257 72.9468 92.7637 73.9236 92.7637H94.2158C95.1926 92.7637 95.9845 91.9257 95.9845 90.8921V89.8252C95.9845 88.7916 95.1926 87.9536 94.2158 87.9536Z" fill="#263238"/>
<path opacity="0.4" d="M94.2158 87.9536H73.9236C72.9468 87.9536 72.1549 88.7916 72.1549 89.8252V90.8921C72.1549 91.9257 72.9468 92.7637 73.9236 92.7637H94.2158C95.1926 92.7637 95.9845 91.9257 95.9845 90.8921V89.8252C95.9845 88.7916 95.1926 87.9536 94.2158 87.9536Z" fill="white"/>
<path d="M108.925 87.9536H104.238C103.261 87.9536 102.469 88.7916 102.469 89.8252V90.8921C102.469 91.9257 103.261 92.7637 104.238 92.7637H108.925C109.902 92.7637 110.694 91.9257 110.694 90.8921V89.8252C110.694 88.7916 109.902 87.9536 108.925 87.9536Z" fill="#407BFF"/>
<path opacity="0.2" d="M150.73 49.0302H126.983C125.179 49.0302 123.717 50.5776 123.717 52.4864V77.616C123.717 79.5248 125.179 81.0722 126.983 81.0722H150.73C152.534 81.0722 153.996 79.5248 153.996 77.616V52.4864C153.996 50.5776 152.534 49.0302 150.73 49.0302Z" fill="black"/>
<path d="M149.521 47.7512H125.774C123.971 47.7512 122.508 49.2986 122.508 51.2075V76.3371C122.508 78.2459 123.971 79.7933 125.774 79.7933H149.521C151.325 79.7933 152.788 78.2459 152.788 76.3371V51.2075C152.788 49.2986 151.325 47.7512 149.521 47.7512Z" fill="#407BFF"/>
<path opacity="0.8" d="M149.521 47.7512H125.774C123.971 47.7512 122.508 49.2986 122.508 51.2075V76.3371C122.508 78.2459 123.971 79.7933 125.774 79.7933H149.521C151.325 79.7933 152.788 78.2459 152.788 76.3371V51.2075C152.788 49.2986 151.325 47.7512 149.521 47.7512Z" fill="white"/>
<path d="M127.578 56.3419L126.181 57.3962C126.116 57.4457 126.038 57.4723 125.957 57.4723C125.877 57.4722 125.799 57.4455 125.734 57.3958C125.669 57.3462 125.62 57.2762 125.594 57.1957C125.569 57.1151 125.568 57.0282 125.592 56.947L126.087 55.2189C126.109 55.1392 126.108 55.0542 126.084 54.9752C126.06 54.8961 126.013 54.8267 125.951 54.7759L124.589 53.653C124.525 53.6022 124.478 53.5316 124.454 53.4509C124.43 53.3703 124.43 53.2837 124.455 53.2032C124.479 53.1228 124.527 53.0525 124.592 53.0023C124.656 52.952 124.733 52.9243 124.813 52.923L126.517 52.8856C126.596 52.884 126.673 52.8569 126.738 52.8079C126.802 52.7588 126.85 52.6902 126.877 52.6111L127.437 50.9017C127.463 50.8217 127.512 50.7522 127.577 50.703C127.642 50.6539 127.72 50.6274 127.799 50.6274C127.879 50.6274 127.957 50.6539 128.022 50.703C128.087 50.7522 128.136 50.8217 128.162 50.9017L128.722 52.6111C128.749 52.6902 128.797 52.7588 128.861 52.8079C128.926 52.8569 129.003 52.884 129.082 52.8856L130.786 52.923C130.865 52.9243 130.943 52.952 131.007 53.0023C131.072 53.0525 131.119 53.1228 131.144 53.2032C131.169 53.2837 131.169 53.3703 131.145 53.4509C131.121 53.5316 131.074 53.6022 131.01 53.653L129.648 54.7447C129.586 54.7955 129.539 54.8649 129.515 54.944C129.491 55.023 129.49 55.108 129.512 55.1877L130.007 56.9158C130.031 56.997 130.03 57.0839 130.005 57.1645C129.979 57.245 129.93 57.315 129.865 57.3646C129.8 57.4143 129.722 57.441 129.642 57.4411C129.561 57.4411 129.483 57.4145 129.418 57.365L128.021 56.3356C127.955 56.2882 127.878 56.2633 127.799 56.2644C127.719 56.2656 127.642 56.2926 127.578 56.3419Z" fill="#407BFF"/>
<path d="M139.806 84.4661H124.277C123.3 84.4661 122.508 85.304 122.508 86.3377V86.4437C122.508 87.4774 123.3 88.3154 124.277 88.3154H139.806C140.782 88.3154 141.574 87.4774 141.574 86.4437V86.3377C141.574 85.304 140.782 84.4661 139.806 84.4661Z" fill="#263238"/>
<path opacity="0.4" d="M139.806 84.4661H124.277C123.3 84.4661 122.508 85.304 122.508 86.3377V86.4437C122.508 87.4774 123.3 88.3154 124.277 88.3154H139.806C140.782 88.3154 141.574 87.4774 141.574 86.4437V86.3377C141.574 85.304 140.782 84.4661 139.806 84.4661Z" fill="white"/>
<path d="M151.567 84.4661H148.525C147.548 84.4661 146.756 85.304 146.756 86.3377V86.4437C146.756 87.4774 147.548 88.3154 148.525 88.3154H151.567C152.544 88.3154 153.336 87.4774 153.336 86.4437V86.3377C153.336 85.304 152.544 84.4661 151.567 84.4661Z" fill="#407BFF"/>
<path d="M136.923 61.8133C135.537 64.9701 132.672 66.0993 126.411 66.8042C125.043 66.9665 125.562 70.8469 128.769 70.8657C134.116 70.8968 132.973 70.2979 137.518 70.3853C141.368 70.4539 144.115 70.691 147.21 70.8095C147.291 70.816 147.372 70.816 147.452 70.8095C147.747 70.7363 148.004 70.5458 148.17 70.2775C148.335 70.0091 148.397 69.6836 148.342 69.3684C148.342 69.3684 147.098 63.8284 146.921 61.9505C146.809 60.7839 146.921 57.2777 146.921 57.2777H137.041C137.041 57.2777 137.377 60.7839 136.923 61.8133Z" fill="#407BFF"/>
<g opacity="0.4">
<path d="M136.923 61.8133C135.537 64.9701 132.672 66.0993 126.411 66.8042C125.043 66.9665 125.562 70.8469 128.769 70.8657C134.116 70.8968 132.973 70.2979 137.518 70.3853C141.368 70.4539 144.115 70.691 147.21 70.8095C147.291 70.816 147.372 70.816 147.452 70.8095C147.747 70.7363 148.004 70.5458 148.17 70.2775C148.335 70.0091 148.397 69.6836 148.342 69.3684C148.342 69.3684 147.098 63.8284 146.921 61.9505C146.809 60.7839 146.921 57.2777 146.921 57.2777H137.041C137.041 57.2777 137.377 60.7839 136.923 61.8133Z" fill="black"/>
</g>
<path d="M148.354 69.3497C148.354 69.3497 148.195 68.6322 147.983 67.6403C146.686 67.7463 142.187 68.0645 135.272 68.0645C129.571 68.0645 127.525 67.2597 126.806 66.7606L126.411 66.8105C125.503 66.9166 125.432 68.6821 126.411 69.8301V70.9094L127.06 71.6019L127.649 70.978L128.239 71.6019L128.828 70.978L129.418 71.6019L130.007 70.978L130.597 71.6019L131.186 70.978L131.776 71.6019L132.366 70.978L132.955 71.6019L133.545 70.978L134.134 71.6019L134.789 70.9094V70.429C135.378 70.3916 136.174 70.3666 137.3 70.3916C138.426 70.4165 139.576 70.4539 140.602 70.4976V70.9094L141.25 71.6019L141.84 70.978L142.429 71.6019L143.019 70.978L143.608 71.6019L144.198 70.978L144.787 71.6019L145.377 70.978L145.966 71.6019L146.556 70.978L147.146 71.6019L147.8 70.9094V70.2169C147.946 70.1234 148.071 69.9975 148.167 69.8478C148.263 69.698 148.327 69.5281 148.354 69.3497Z" fill="#263238"/>
<path opacity="0.5" d="M148.354 69.3497C148.354 69.3497 148.195 68.6322 147.983 67.6403C146.686 67.7463 142.187 68.0645 135.272 68.0645C129.571 68.0645 127.525 67.2597 126.806 66.7606L126.411 66.8105C125.503 66.9166 125.432 68.6821 126.411 69.8301V70.9094L127.06 71.6019L127.649 70.978L128.239 71.6019L128.828 70.978L129.418 71.6019L130.007 70.978L130.597 71.6019L131.186 70.978L131.776 71.6019L132.366 70.978L132.955 71.6019L133.545 70.978L134.134 71.6019L134.789 70.9094V70.429C135.378 70.3916 136.174 70.3666 137.3 70.3916C138.426 70.4165 139.576 70.4539 140.602 70.4976V70.9094L141.25 71.6019L141.84 70.978L142.429 71.6019L143.019 70.978L143.608 71.6019L144.198 70.978L144.787 71.6019L145.377 70.978L145.966 71.6019L146.556 70.978L147.146 71.6019L147.8 70.9094V70.2169C147.946 70.1234 148.071 69.9975 148.167 69.8478C148.263 69.698 148.327 69.5281 148.354 69.3497Z" fill="white"/>
<path opacity="0.2" d="M150.73 98.1851H126.983C125.179 98.1851 123.717 99.7325 123.717 101.641V126.771C123.717 128.68 125.179 130.227 126.983 130.227H150.73C152.534 130.227 153.996 128.68 153.996 126.771V101.641C153.996 99.7325 152.534 98.1851 150.73 98.1851Z" fill="black"/>
<path d="M149.521 96.8999H125.774C123.971 96.8999 122.508 98.4473 122.508 100.356V125.486C122.508 127.395 123.971 128.942 125.774 128.942H149.521C151.325 128.942 152.788 127.395 152.788 125.486V100.356C152.788 98.4473 151.325 96.8999 149.521 96.8999Z" fill="#407BFF"/>
<path opacity="0.8" d="M149.521 96.8999H125.774C123.971 96.8999 122.508 98.4473 122.508 100.356V125.486C122.508 127.395 123.971 128.942 125.774 128.942H149.521C151.325 128.942 152.788 127.395 152.788 125.486V100.356C152.788 98.4473 151.325 96.8999 149.521 96.8999Z" fill="white"/>
<path d="M127.578 104.91L126.181 105.94C126.116 105.989 126.038 106.016 125.957 106.016C125.877 106.016 125.799 105.989 125.734 105.939C125.669 105.89 125.62 105.82 125.594 105.739C125.569 105.659 125.568 105.572 125.592 105.491L126.087 103.762C126.109 103.683 126.108 103.598 126.084 103.519C126.06 103.44 126.013 103.37 125.951 103.319L124.589 102.228C124.526 102.176 124.48 102.105 124.457 102.024C124.433 101.943 124.434 101.857 124.458 101.777C124.483 101.696 124.53 101.626 124.593 101.575C124.657 101.524 124.734 101.495 124.813 101.491L126.517 101.46C126.596 101.459 126.673 101.432 126.738 101.383C126.802 101.334 126.85 101.265 126.877 101.186L127.437 99.4764C127.463 99.3964 127.512 99.3269 127.577 99.2778C127.642 99.2286 127.719 99.2021 127.799 99.2021C127.879 99.2021 127.957 99.2286 128.022 99.2778C128.087 99.3269 128.136 99.3964 128.162 99.4764L128.722 101.186C128.748 101.265 128.797 101.334 128.861 101.383C128.926 101.432 129.002 101.459 129.082 101.46L130.785 101.491C130.865 101.495 130.942 101.524 131.005 101.575C131.069 101.626 131.116 101.696 131.141 101.777C131.165 101.857 131.166 101.943 131.142 102.024C131.119 102.105 131.072 102.176 131.01 102.228L129.648 103.319C129.585 103.37 129.539 103.44 129.515 103.519C129.491 103.598 129.49 103.683 129.512 103.762L130.007 105.491C130.031 105.572 130.03 105.659 130.004 105.739C129.979 105.82 129.93 105.89 129.865 105.939C129.8 105.989 129.722 106.016 129.641 106.016C129.561 106.016 129.483 105.989 129.418 105.94L128.02 104.91C127.956 104.862 127.879 104.836 127.799 104.836C127.72 104.836 127.643 104.862 127.578 104.91Z" fill="#407BFF"/>
<path d="M139.806 133.621H124.277C123.3 133.621 122.508 134.459 122.508 135.493V135.599C122.508 136.632 123.3 137.47 124.277 137.47H139.806C140.782 137.47 141.574 136.632 141.574 135.599V135.493C141.574 134.459 140.782 133.621 139.806 133.621Z" fill="#263238"/>
<path opacity="0.4" d="M139.806 133.621H124.277C123.3 133.621 122.508 134.459 122.508 135.493V135.599C122.508 136.632 123.3 137.47 124.277 137.47H139.806C140.782 137.47 141.574 136.632 141.574 135.599V135.493C141.574 134.459 140.782 133.621 139.806 133.621Z" fill="white"/>
<path d="M151.567 133.621H148.525C147.548 133.621 146.756 134.459 146.756 135.493V135.599C146.756 136.632 147.548 137.47 148.525 137.47H151.567C152.544 137.47 153.336 136.632 153.336 135.599V135.493C153.336 134.459 152.544 133.621 151.567 133.621Z" fill="#407BFF"/>
<path d="M139.387 110.301L146.75 110.45C146.905 110.452 147.055 110.509 147.174 110.614C147.294 110.719 147.375 110.864 147.405 111.024L148.808 118.342C148.839 118.496 148.841 118.656 148.813 118.81C148.786 118.965 148.73 119.113 148.648 119.244C148.566 119.376 148.461 119.489 148.337 119.578C148.214 119.666 148.076 119.727 147.93 119.759C147.851 119.771 147.772 119.771 147.694 119.759C144.646 119.646 141.934 119.415 138.137 119.347C133.651 119.259 134.777 119.846 129.506 119.821C126.334 119.821 125.822 115.972 127.148 115.809C133.321 115.111 135.095 113.177 137.512 110.887C138.047 110.453 138.715 110.244 139.387 110.301Z" fill="#263238"/>
<path d="M133.362 109.739L133.256 109.926C133.189 110.044 133.153 110.179 133.153 110.316C133.153 110.454 133.189 110.588 133.256 110.706C133.845 111.711 136.993 111.729 137.618 111.723C137.668 111.725 137.717 111.71 137.758 111.681C137.799 111.652 137.831 111.61 137.848 111.561C137.868 111.513 137.874 111.46 137.864 111.409C137.855 111.357 137.831 111.31 137.795 111.274C136.97 110.394 135.437 108.959 134.258 109.14C134.076 109.165 133.902 109.232 133.748 109.335C133.593 109.439 133.461 109.577 133.362 109.739ZM136.988 111.187C135.608 111.137 133.951 110.906 133.68 110.432C133.651 110.382 133.633 110.313 133.68 110.176C133.736 110.044 133.822 109.928 133.929 109.838C134.037 109.749 134.164 109.689 134.299 109.664C134.918 109.571 135.897 110.132 136.988 111.187Z" fill="#407BFF"/>
<path d="M133.745 112.74C133.704 112.802 133.67 112.869 133.645 112.94C133.586 113.105 133.583 113.287 133.637 113.454C133.69 113.622 133.798 113.764 133.94 113.857C134.069 113.968 134.22 114.049 134.382 114.094C134.543 114.14 134.712 114.148 134.877 114.119C136.221 113.925 137.754 111.711 137.825 111.623C137.851 111.584 137.867 111.539 137.871 111.491C137.875 111.444 137.868 111.396 137.848 111.352C137.829 111.309 137.799 111.272 137.762 111.245C137.725 111.218 137.681 111.202 137.636 111.199C136.646 111.137 134.341 111.823 133.745 112.74ZM137.082 111.754C136.522 112.459 135.561 113.482 134.812 113.595C134.714 113.612 134.613 113.606 134.516 113.58C134.42 113.553 134.33 113.505 134.252 113.439C134.058 113.276 134.093 113.177 134.116 113.127C134.305 112.584 135.956 111.904 137.082 111.754Z" fill="#407BFF"/>
<path opacity="0.2" d="M103.136 98.1851H79.3887C77.5848 98.1851 76.1226 99.7325 76.1226 101.641V126.771C76.1226 128.68 77.5848 130.227 79.3887 130.227H103.136C104.939 130.227 106.402 128.68 106.402 126.771V101.641C106.402 99.7325 104.939 98.1851 103.136 98.1851Z" fill="black"/>
<path d="M101.927 96.8999H78.18C76.3762 96.8999 74.9139 98.4473 74.9139 100.356V125.486C74.9139 127.395 76.3762 128.942 78.18 128.942H101.927C103.731 128.942 105.193 127.395 105.193 125.486V100.356C105.193 98.4473 103.731 96.8999 101.927 96.8999Z" fill="#407BFF"/>
<path opacity="0.8" d="M101.927 96.8999H78.18C76.3762 96.8999 74.9139 98.4473 74.9139 100.356V125.486C74.9139 127.395 76.3762 128.942 78.18 128.942H101.927C103.731 128.942 105.193 127.395 105.193 125.486V100.356C105.193 98.4473 103.731 96.8999 101.927 96.8999Z" fill="white"/>
<path d="M79.2354 104.91L77.8382 105.94C77.773 105.989 77.6947 106.016 77.6145 106.016C77.5342 106.016 77.456 105.989 77.3909 105.939C77.3257 105.89 77.277 105.82 77.2515 105.739C77.2259 105.659 77.225 105.572 77.2487 105.491L77.7439 103.762C77.7679 103.683 77.7677 103.597 77.7434 103.518C77.7191 103.438 77.6718 103.369 77.6083 103.319L76.2464 102.228C76.1835 102.176 76.1372 102.105 76.1138 102.024C76.0903 101.943 76.0908 101.857 76.1153 101.777C76.1397 101.696 76.1869 101.626 76.2504 101.575C76.314 101.524 76.3908 101.495 76.4705 101.491L78.1801 101.46C78.2583 101.457 78.3339 101.43 78.397 101.381C78.4601 101.332 78.5078 101.264 78.5339 101.186L79.0939 99.4764C79.1198 99.3964 79.1687 99.3269 79.2337 99.2778C79.2987 99.2286 79.3766 99.2021 79.4565 99.2021C79.5364 99.2021 79.6143 99.2286 79.6794 99.2778C79.7444 99.3269 79.7932 99.3964 79.8191 99.4764L80.3792 101.186C80.4056 101.265 80.4541 101.334 80.5184 101.383C80.5827 101.432 80.6596 101.459 80.7388 101.46L82.4426 101.491C82.5223 101.495 82.5991 101.524 82.6626 101.575C82.7261 101.626 82.7733 101.696 82.7977 101.777C82.8222 101.857 82.8227 101.943 82.7993 102.024C82.7758 102.105 82.7295 102.176 82.6666 102.228L81.3106 103.319C81.2471 103.369 81.1998 103.438 81.1755 103.518C81.1512 103.597 81.151 103.683 81.175 103.762L81.6644 105.491C81.6881 105.572 81.6871 105.659 81.6616 105.739C81.6361 105.82 81.5873 105.89 81.5222 105.939C81.457 105.989 81.3788 106.016 81.2986 106.016C81.2183 106.016 81.14 105.989 81.0748 105.94L79.6776 104.91C79.6129 104.862 79.5357 104.836 79.4565 104.836C79.3773 104.836 79.3001 104.862 79.2354 104.91Z" fill="#407BFF"/>
<path d="M92.2113 133.621H76.6826C75.7058 133.621 74.9139 134.459 74.9139 135.493V135.599C74.9139 136.632 75.7058 137.47 76.6826 137.47H92.2113C93.1881 137.47 93.9799 136.632 93.9799 135.599V135.493C93.9799 134.459 93.1881 133.621 92.2113 133.621Z" fill="#263238"/>
<path opacity="0.4" d="M92.2113 133.621H76.6826C75.7058 133.621 74.9139 134.459 74.9139 135.493V135.599C74.9139 136.632 75.7058 137.47 76.6826 137.47H92.2113C93.1881 137.47 93.9799 136.632 93.9799 135.599V135.493C93.9799 134.459 93.1881 133.621 92.2113 133.621Z" fill="white"/>
<path d="M103.973 133.621H100.931C99.954 133.621 99.1621 134.459 99.1621 135.493V135.599C99.1621 136.632 99.954 137.47 100.931 137.47H103.973C104.95 137.47 105.741 136.632 105.741 135.599V135.493C105.741 134.459 104.95 133.621 103.973 133.621Z" fill="#407BFF"/>
<path d="M91.8459 109.858L99.457 110.014C99.6208 110.019 99.7779 110.083 99.9016 110.197C100.025 110.311 100.108 110.467 100.135 110.638L101.585 118.199C101.62 118.382 101.615 118.571 101.571 118.751C101.528 118.932 101.446 119.1 101.333 119.243C101.22 119.386 101.078 119.501 100.918 119.578C100.757 119.655 100.582 119.694 100.406 119.69C97.2579 119.571 94.4517 119.334 90.5312 119.26C85.8973 119.172 87.0587 119.777 81.6113 119.752C78.3275 119.752 77.7969 115.772 79.1942 115.61C85.579 114.886 87.4125 112.884 89.9122 110.519C90.4571 110.053 91.1462 109.817 91.8459 109.858Z" fill="#407BFF"/>
<g opacity="0.2">
<path d="M91.8459 109.858L99.457 110.014C99.6208 110.019 99.7779 110.083 99.9016 110.197C100.025 110.311 100.108 110.467 100.135 110.638L101.585 118.199C101.62 118.382 101.615 118.571 101.571 118.751C101.528 118.932 101.446 119.1 101.333 119.243C101.22 119.386 101.078 119.501 100.918 119.578C100.757 119.655 100.582 119.694 100.406 119.69C97.2579 119.571 94.4517 119.334 90.5312 119.26C85.8973 119.172 87.0587 119.777 81.6113 119.752C78.3275 119.752 77.7969 115.772 79.1942 115.61C85.579 114.886 87.4125 112.884 89.9122 110.519C90.4571 110.053 91.1462 109.817 91.8459 109.858Z" fill="black"/>
</g>
<path opacity="0.5" d="M100.677 119.64C100.98 119.571 101.246 119.379 101.415 119.104C101.585 118.83 101.646 118.496 101.585 118.174L101.055 115.404C100.234 116.147 99.5413 117.036 99.0089 118.031C96.4774 118.022 93.9484 117.865 91.4332 117.563C89.0311 117.328 86.6092 117.486 84.2525 118.031C84.2089 117.434 84.0498 116.853 83.7851 116.323C83.5204 115.794 83.1557 115.329 82.7137 114.955C81.563 115.246 80.395 115.454 79.2177 115.579C77.8205 115.741 78.3511 119.702 81.6349 119.721C87.0823 119.721 85.9209 119.141 90.5547 119.228C94.4752 119.303 97.2815 119.54 100.43 119.659C100.513 119.662 100.596 119.656 100.677 119.64Z" fill="white"/>
<g opacity="0.5">
<path d="M90.8908 111.836L89.806 110.588C89.5407 110.844 89.2813 111.093 89.016 111.336L90.1184 112.584C90.2167 112.683 90.3468 112.738 90.4822 112.738C90.6176 112.738 90.7479 112.684 90.8466 112.586C90.9453 112.488 91.0049 112.354 91.0131 112.211C91.0213 112.068 90.9775 111.927 90.8908 111.817V111.836Z" fill="black"/>
<path d="M86.1154 115.797C86.2144 115.692 86.27 115.549 86.27 115.401C86.27 115.253 86.2144 115.11 86.1154 115.005L85.3136 114.038C84.9834 114.194 84.6356 114.344 84.2583 114.481L85.3961 115.772C85.4911 115.871 85.6179 115.929 85.7511 115.933C85.8844 115.938 86.0145 115.889 86.1154 115.797Z" fill="black"/>
<path d="M87.9784 114.531C88.0773 114.622 88.2045 114.671 88.3356 114.668C88.4667 114.666 88.5923 114.612 88.6883 114.518C88.7842 114.423 88.8437 114.295 88.8552 114.156C88.8667 114.018 88.8295 113.88 88.7507 113.769L87.6659 112.522C87.3888 112.74 87.0764 112.952 86.7875 113.146L87.9784 114.531Z" fill="black"/>
</g>
<path opacity="0.5" d="M96.8216 113.626C96.8228 114.023 96.7124 114.413 96.5045 114.744C96.2966 115.075 96.0006 115.333 95.6538 115.486C95.307 115.639 94.9252 115.68 94.5565 115.603C94.1879 115.526 93.8491 115.336 93.583 115.055C93.3169 114.774 93.1355 114.416 93.0618 114.026C92.9881 113.637 93.0253 113.232 93.1688 112.865C93.3123 112.497 93.5557 112.183 93.868 111.962C94.1803 111.741 94.5475 111.623 94.9232 111.623C95.4257 111.623 95.9077 111.834 96.2635 112.209C96.6193 112.585 96.82 113.094 96.8216 113.626Z" fill="white"/>
<path d="M182.017 130.514H157.875C157.361 130.514 156.944 130.955 156.944 131.5C156.944 132.044 157.361 132.486 157.875 132.486H182.017C182.532 132.486 182.949 132.044 182.949 131.5C182.949 130.955 182.532 130.514 182.017 130.514Z" fill="#263238"/>
<g opacity="0.5">
<path d="M182.017 130.514H157.875C157.361 130.514 156.944 130.955 156.944 131.5C156.944 132.044 157.361 132.486 157.875 132.486H182.017C182.532 132.486 182.949 132.044 182.949 131.5C182.949 130.955 182.532 130.514 182.017 130.514Z" fill="white"/>
</g>
<path d="M159.054 131.5C159.054 130.955 158.637 130.514 158.123 130.514C157.608 130.514 157.191 130.955 157.191 131.5V144.558C157.191 145.102 157.608 145.543 158.123 145.543C158.637 145.543 159.054 145.102 159.054 144.558V131.5Z" fill="#263238"/>
<g opacity="0.7">
<path d="M159.054 131.5C159.054 130.955 158.637 130.514 158.123 130.514C157.608 130.514 157.191 130.955 157.191 131.5V144.558C157.191 145.102 157.608 145.543 158.123 145.543C158.637 145.543 159.054 145.102 159.054 144.558V131.5Z" fill="white"/>
</g>
<path d="M182.955 131.5C182.955 130.955 182.538 130.514 182.023 130.514C181.509 130.514 181.092 130.955 181.092 131.5V144.558C181.092 145.102 181.509 145.543 182.023 145.543C182.538 145.543 182.955 145.102 182.955 144.558V131.5Z" fill="#263238"/>
<g opacity="0.7">
<path d="M182.955 131.5C182.955 130.955 182.538 130.514 182.023 130.514C181.509 130.514 181.092 130.955 181.092 131.5V144.558C181.092 145.102 181.509 145.543 182.023 145.543C182.538 145.543 182.955 145.102 182.955 144.558V131.5Z" fill="white"/>
</g>
<path d="M181.371 170.347L212.568 173.235C214.365 173.402 215.949 171.995 216.107 170.093L218.836 137.079C218.993 135.178 217.664 133.501 215.867 133.335L184.669 130.447C182.872 130.28 181.288 131.687 181.131 133.589L178.402 166.603C178.244 168.504 179.574 170.181 181.371 170.347Z" fill="#407BFF"/>
<path opacity="0.5" d="M181.371 170.347L212.568 173.235C214.365 173.402 215.949 171.995 216.107 170.093L218.836 137.079C218.993 135.178 217.664 133.501 215.867 133.335L184.669 130.447C182.872 130.28 181.288 131.687 181.131 133.589L178.402 166.603C178.244 168.504 179.574 170.181 181.371 170.347Z" fill="black"/>
<path d="M183.014 168.892L214.211 171.78C216.008 171.947 217.592 170.54 217.75 168.639L220.479 135.625C220.636 133.723 219.307 132.047 217.51 131.88L186.312 128.992C184.515 128.826 182.931 130.232 182.774 132.134L180.045 165.148C179.887 167.049 181.217 168.726 183.014 168.892Z" fill="#407BFF"/>
<path opacity="0.3" d="M183.014 168.892L214.211 171.78C216.008 171.947 217.592 170.54 217.75 168.639L220.479 135.625C220.636 133.723 219.307 132.047 217.51 131.88L186.312 128.992C184.515 128.826 182.931 130.232 182.774 132.134L180.045 165.148C179.887 167.049 181.217 168.726 183.014 168.892Z" fill="white"/>
<path d="M198.961 146.716L189.705 146.049C189.514 146.034 189.324 146.088 189.164 146.201C189.005 146.314 188.886 146.48 188.826 146.673L186.309 155.687C186.201 156.069 186.24 156.48 186.418 156.831C186.596 157.182 186.898 157.444 187.258 157.559C187.354 157.592 187.453 157.613 187.553 157.621C191.397 157.827 194.816 157.852 199.592 158.208C205.228 158.62 203.748 159.231 210.369 159.811C214.354 160.154 215.397 155.407 213.717 155.051C206.053 153.454 204.019 150.815 201.219 147.664C200.599 147.07 199.797 146.733 198.961 146.716Z" fill="white"/>
<path d="M199.751 155.731C198.194 155.588 197.328 154.271 196.632 153.236C196.255 152.668 195.83 152.019 195.524 151.988L187.559 151.252L187.978 149.748L195.642 150.459C196.626 150.553 197.228 151.464 197.811 152.331C198.395 153.198 198.99 154.115 199.875 154.203L199.751 155.731Z" fill="#407BFF"/>
<path d="M163.576 175.77C163.689 175.748 163.797 175.703 163.894 175.637C163.991 175.571 164.074 175.485 164.139 175.385C164.204 175.284 164.25 175.171 164.274 175.052C164.298 174.933 164.299 174.81 164.278 174.691L159.143 145.369C159.122 145.249 159.079 145.134 159.017 145.032C158.954 144.93 158.874 144.842 158.779 144.773C158.684 144.704 158.577 144.655 158.465 144.63C158.352 144.605 158.236 144.604 158.123 144.626C158.01 144.649 157.903 144.694 157.807 144.761C157.711 144.827 157.628 144.913 157.564 145.013C157.499 145.113 157.454 145.226 157.43 145.345C157.407 145.464 157.406 145.586 157.427 145.705L162.556 175.027C162.599 175.269 162.731 175.482 162.922 175.621C163.113 175.76 163.348 175.814 163.576 175.77Z" fill="#263238"/>
<path d="M174.117 175.77C174.231 175.755 174.341 175.717 174.441 175.657C174.541 175.598 174.629 175.518 174.699 175.422C174.77 175.326 174.822 175.217 174.853 175.1C174.883 174.983 174.892 174.861 174.878 174.741L171.458 145.419C171.445 145.298 171.408 145.182 171.352 145.076C171.296 144.97 171.22 144.877 171.13 144.803C171.039 144.728 170.936 144.673 170.825 144.64C170.715 144.608 170.6 144.599 170.486 144.614C170.372 144.628 170.262 144.667 170.162 144.726C170.062 144.786 169.974 144.866 169.904 144.962C169.833 145.057 169.781 145.167 169.75 145.284C169.72 145.4 169.711 145.523 169.725 145.643L173.145 174.965C173.158 175.086 173.195 175.202 173.251 175.308C173.307 175.413 173.383 175.506 173.473 175.581C173.564 175.656 173.667 175.711 173.778 175.743C173.888 175.776 174.003 175.785 174.117 175.77Z" fill="#263238"/>
<path d="M184.658 175.77C184.773 175.763 184.885 175.732 184.989 175.679C185.092 175.626 185.184 175.551 185.26 175.46C185.336 175.369 185.395 175.263 185.432 175.148C185.47 175.033 185.485 174.912 185.478 174.791L183.768 145.468C183.753 145.224 183.647 144.996 183.474 144.833C183.301 144.671 183.074 144.588 182.843 144.601C182.612 144.617 182.396 144.729 182.242 144.913C182.089 145.096 182.01 145.336 182.023 145.581L183.733 174.903C183.74 175.024 183.769 175.143 183.819 175.252C183.869 175.361 183.939 175.459 184.025 175.54C184.111 175.62 184.212 175.682 184.32 175.722C184.429 175.761 184.544 175.778 184.658 175.77Z" fill="#263238"/>
<path d="M195.205 144.614H195.2C194.718 144.614 194.327 145.027 194.327 145.537V174.847C194.327 175.356 194.718 175.77 195.2 175.77H195.205C195.687 175.77 196.078 175.356 196.078 174.847V145.537C196.078 145.027 195.687 144.614 195.205 144.614Z" fill="#263238"/>
<g opacity="0.5">
<path d="M163.576 175.77C163.689 175.749 163.797 175.704 163.894 175.637C163.991 175.571 164.074 175.486 164.139 175.385C164.204 175.285 164.25 175.172 164.274 175.053C164.298 174.934 164.299 174.811 164.278 174.691L159.143 145.369C159.122 145.249 159.079 145.135 159.017 145.033C158.954 144.931 158.874 144.842 158.779 144.773C158.684 144.704 158.577 144.656 158.465 144.631C158.352 144.606 158.236 144.604 158.123 144.627C158.01 144.649 157.903 144.695 157.807 144.761C157.711 144.828 157.628 144.914 157.564 145.014C157.499 145.114 157.454 145.227 157.43 145.346C157.407 145.464 157.406 145.587 157.427 145.706L162.556 175.028C162.599 175.269 162.731 175.483 162.922 175.622C163.113 175.761 163.348 175.814 163.576 175.77Z" fill="white"/>
<path d="M174.117 175.77C174.231 175.755 174.341 175.717 174.441 175.657C174.541 175.598 174.629 175.518 174.699 175.422C174.77 175.326 174.822 175.217 174.853 175.1C174.883 174.983 174.892 174.861 174.878 174.741L171.458 145.419C171.445 145.298 171.408 145.182 171.352 145.076C171.296 144.97 171.22 144.877 171.13 144.803C171.039 144.728 170.936 144.673 170.825 144.64C170.715 144.608 170.6 144.599 170.486 144.614C170.372 144.628 170.262 144.667 170.162 144.726C170.062 144.786 169.974 144.866 169.904 144.962C169.833 145.057 169.781 145.167 169.75 145.284C169.72 145.4 169.711 145.523 169.725 145.643L173.145 174.965C173.158 175.086 173.195 175.202 173.251 175.308C173.307 175.413 173.383 175.506 173.473 175.581C173.564 175.656 173.667 175.711 173.778 175.743C173.888 175.776 174.003 175.785 174.117 175.77Z" fill="white"/>
<path d="M184.658 175.77C184.773 175.763 184.885 175.732 184.989 175.679C185.092 175.625 185.184 175.551 185.26 175.46C185.336 175.369 185.395 175.263 185.432 175.148C185.47 175.033 185.485 174.912 185.478 174.79L183.768 145.468C183.753 145.224 183.647 144.996 183.474 144.833C183.301 144.671 183.074 144.588 182.843 144.601C182.612 144.617 182.396 144.729 182.242 144.913C182.089 145.096 182.01 145.336 182.023 145.581L183.733 174.903C183.74 175.024 183.769 175.143 183.819 175.252C183.869 175.361 183.939 175.459 184.025 175.54C184.111 175.62 184.212 175.682 184.32 175.722C184.429 175.761 184.544 175.777 184.658 175.77Z" fill="white"/>
<path d="M195.205 144.614H195.2C194.718 144.614 194.327 145.027 194.327 145.537V174.847C194.327 175.357 194.718 175.77 195.2 175.77H195.205C195.687 175.77 196.078 175.357 196.078 174.847V145.537C196.078 145.027 195.687 144.614 195.205 144.614Z" fill="white"/>
</g>
<path d="M194.327 143.69H158.995C158.513 143.69 158.123 144.104 158.123 144.614V144.62C158.123 145.13 158.513 145.543 158.995 145.543H194.327C194.809 145.543 195.2 145.13 195.2 144.62V144.614C195.2 144.104 194.809 143.69 194.327 143.69Z" fill="#263238"/>
<path d="M194.327 154.072H160.817C160.335 154.072 159.945 154.485 159.945 154.995V155.001C159.945 155.511 160.335 155.925 160.817 155.925H194.327C194.809 155.925 195.2 155.511 195.2 155.001V154.995C195.2 154.485 194.809 154.072 194.327 154.072Z" fill="#263238"/>
<path d="M194.327 164.459H162.633C162.151 164.459 161.76 164.873 161.76 165.382V165.389C161.76 165.899 162.151 166.312 162.633 166.312H194.327C194.809 166.312 195.2 165.899 195.2 165.389V165.382C195.2 164.873 194.809 164.459 194.327 164.459Z" fill="#263238"/>
<path d="M194.327 174.847H164.449C163.967 174.847 163.576 175.26 163.576 175.77V175.776C163.576 176.286 163.967 176.699 164.449 176.699H194.327C194.809 176.699 195.2 176.286 195.2 175.776V175.77C195.2 175.26 194.809 174.847 194.327 174.847Z" fill="#263238"/>
<g opacity="0.7">
<path d="M194.327 143.69H158.995C158.513 143.69 158.123 144.104 158.123 144.614V144.62C158.123 145.13 158.513 145.543 158.995 145.543H194.327C194.809 145.543 195.2 145.13 195.2 144.62V144.614C195.2 144.104 194.809 143.69 194.327 143.69Z" fill="white"/>
<path d="M194.327 154.072H160.817C160.335 154.072 159.944 154.485 159.944 154.995V155.001C159.944 155.511 160.335 155.925 160.817 155.925H194.327C194.809 155.925 195.199 155.511 195.199 155.001V154.995C195.199 154.485 194.809 154.072 194.327 154.072Z" fill="white"/>
<path d="M194.327 164.459H162.633C162.151 164.459 161.76 164.873 161.76 165.382V165.389C161.76 165.899 162.151 166.312 162.633 166.312H194.327C194.809 166.312 195.2 165.899 195.2 165.389V165.382C195.2 164.873 194.809 164.459 194.327 164.459Z" fill="white"/>
<path d="M194.327 174.847H164.449C163.967 174.847 163.576 175.26 163.576 175.77V175.776C163.576 176.286 163.967 176.7 164.449 176.7H194.327C194.809 176.7 195.2 176.286 195.2 175.776V175.77C195.2 175.26 194.809 174.847 194.327 174.847Z" fill="white"/>
</g>
<path d="M224.282 143.69H196.166C195.684 143.69 195.294 144.104 195.294 144.614V144.62C195.294 145.13 195.684 145.543 196.166 145.543H224.282C224.764 145.543 225.154 145.13 225.154 144.62V144.614C225.154 144.104 224.764 143.69 224.282 143.69Z" fill="#263238"/>
<path d="M222.466 154.072H196.166C195.684 154.072 195.294 154.485 195.294 154.995V155.001C195.294 155.511 195.684 155.925 196.166 155.925H222.466C222.948 155.925 223.339 155.511 223.339 155.001V154.995C223.339 154.485 222.948 154.072 222.466 154.072Z" fill="#263238"/>
<path d="M220.65 164.459H196.166C195.684 164.459 195.294 164.873 195.294 165.382V165.389C195.294 165.899 195.684 166.312 196.166 166.312H220.65C221.132 166.312 221.523 165.899 221.523 165.389V165.382C221.523 164.873 221.132 164.459 220.65 164.459Z" fill="#263238"/>
<path d="M218.829 174.847H196.166C195.684 174.847 195.294 175.26 195.294 175.77V175.776C195.294 176.286 195.684 176.699 196.166 176.699H218.829C219.311 176.699 219.701 176.286 219.701 175.776V175.77C219.701 175.26 219.311 174.847 218.829 174.847Z" fill="#263238"/>
<g opacity="0.5">
<path d="M224.282 143.69H196.166C195.684 143.69 195.294 144.104 195.294 144.614V144.62C195.294 145.13 195.684 145.543 196.166 145.543H224.282C224.764 145.543 225.154 145.13 225.154 144.62V144.614C225.154 144.104 224.764 143.69 224.282 143.69Z" fill="white"/>
<path d="M222.466 154.072H196.166C195.684 154.072 195.294 154.485 195.294 154.995V155.001C195.294 155.511 195.684 155.925 196.166 155.925H222.466C222.948 155.925 223.339 155.511 223.339 155.001V154.995C223.339 154.485 222.948 154.072 222.466 154.072Z" fill="white"/>
<path d="M220.65 164.459H196.166C195.684 164.459 195.294 164.873 195.294 165.382V165.389C195.294 165.899 195.684 166.312 196.166 166.312H220.65C221.132 166.312 221.523 165.899 221.523 165.389V165.382C221.523 164.873 221.132 164.459 220.65 164.459Z" fill="white"/>
<path d="M218.829 174.847H196.166C195.684 174.847 195.294 175.26 195.294 175.77V175.776C195.294 176.286 195.684 176.7 196.166 176.7H218.829C219.311 176.7 219.701 176.286 219.701 175.776V175.77C219.701 175.26 219.311 174.847 218.829 174.847Z" fill="white"/>
</g>
<path d="M195.63 187.755H163.824C163.309 187.755 162.892 188.196 162.892 188.74C162.892 189.285 163.309 189.726 163.824 189.726H195.63C196.144 189.726 196.561 189.285 196.561 188.74C196.561 188.196 196.144 187.755 195.63 187.755Z" fill="#263238"/>
<g opacity="0.5">
<path d="M195.63 187.755H163.824C163.309 187.755 162.892 188.196 162.892 188.74C162.892 189.285 163.309 189.726 163.824 189.726H195.63C196.144 189.726 196.561 189.285 196.561 188.74C196.561 188.196 196.144 187.755 195.63 187.755Z" fill="white"/>
</g>
<path d="M221.723 187.755H197.593C197.079 187.755 196.662 188.196 196.662 188.74C196.662 189.285 197.079 189.726 197.593 189.726H221.723C222.238 189.726 222.655 189.285 222.655 188.74C222.655 188.196 222.238 187.755 221.723 187.755Z" fill="#263238"/>
<g opacity="0.7">
<path d="M221.723 187.755H197.593C197.079 187.755 196.662 188.196 196.662 188.74C196.662 189.285 197.079 189.726 197.593 189.726H221.723C222.238 189.726 222.655 189.285 222.655 188.74C222.655 188.196 222.238 187.755 221.723 187.755Z" fill="white"/>
</g>
<path d="M164.508 175.714C164.508 175.169 164.091 174.728 163.576 174.728C163.062 174.728 162.645 175.169 162.645 175.714V188.771C162.645 189.316 163.062 189.757 163.576 189.757C164.091 189.757 164.508 189.316 164.508 188.771V175.714Z" fill="#263238"/>
<g opacity="0.7">
<path d="M164.508 175.714C164.508 175.169 164.091 174.728 163.576 174.728C163.062 174.728 162.645 175.169 162.645 175.714V188.771C162.645 189.316 163.062 189.757 163.576 189.757C164.091 189.757 164.508 189.316 164.508 188.771V175.714Z" fill="white"/>
</g>
<path d="M219.731 175.77C219.503 175.724 219.301 175.586 219.17 175.383C219.038 175.181 218.988 174.932 219.029 174.691L224.164 145.369C224.207 145.127 224.338 144.914 224.529 144.775C224.721 144.636 224.956 144.582 225.184 144.626C225.297 144.648 225.405 144.693 225.502 144.759C225.598 144.825 225.682 144.911 225.747 145.011C225.812 145.112 225.858 145.225 225.882 145.344C225.906 145.463 225.907 145.586 225.886 145.706L220.751 175.028C220.73 175.147 220.687 175.262 220.625 175.364C220.562 175.466 220.481 175.554 220.387 175.623C220.292 175.692 220.185 175.741 220.072 175.766C219.96 175.791 219.844 175.792 219.731 175.77Z" fill="#263238"/>
<path d="M212.002 175.77C211.888 175.755 211.778 175.717 211.678 175.657C211.578 175.598 211.49 175.518 211.42 175.422C211.349 175.326 211.297 175.217 211.266 175.1C211.236 174.983 211.227 174.861 211.241 174.74L214.661 145.418C214.69 145.175 214.809 144.953 214.993 144.802C215.176 144.651 215.409 144.584 215.639 144.614C215.753 144.628 215.863 144.667 215.963 144.726C216.063 144.786 216.15 144.866 216.221 144.962C216.292 145.057 216.344 145.167 216.375 145.283C216.405 145.4 216.414 145.523 216.4 145.643L212.98 174.965C212.951 175.209 212.831 175.43 212.648 175.581C212.465 175.732 212.232 175.8 212.002 175.77Z" fill="#263238"/>
<path d="M203.43 175.77C203.315 175.763 203.203 175.732 203.1 175.679C202.996 175.625 202.904 175.551 202.828 175.46C202.752 175.369 202.693 175.263 202.656 175.148C202.619 175.033 202.603 174.912 202.61 174.79L204.32 145.468C204.327 145.347 204.356 145.228 204.406 145.119C204.456 145.01 204.527 144.912 204.613 144.831C204.699 144.751 204.799 144.689 204.907 144.65C205.016 144.61 205.131 144.594 205.246 144.601C205.477 144.617 205.692 144.729 205.846 144.913C205.999 145.096 206.078 145.336 206.065 145.581L204.355 174.903C204.349 175.024 204.319 175.143 204.269 175.252C204.219 175.361 204.149 175.459 204.063 175.54C203.977 175.62 203.876 175.682 203.768 175.722C203.659 175.761 203.544 175.778 203.43 175.77Z" fill="#263238"/>
<path d="M195.3 144.614H195.294C194.812 144.614 194.421 145.027 194.421 145.537V174.847C194.421 175.356 194.812 175.77 195.294 175.77H195.3C195.782 175.77 196.172 175.356 196.172 174.847V145.537C196.172 145.027 195.782 144.614 195.3 144.614Z" fill="#263238"/>
<g opacity="0.7">
<path d="M219.731 175.77C219.503 175.725 219.301 175.586 219.17 175.384C219.038 175.181 218.988 174.932 219.029 174.691L224.164 145.369C224.207 145.128 224.338 144.914 224.529 144.775C224.721 144.636 224.956 144.583 225.184 144.626C225.297 144.648 225.405 144.693 225.502 144.76C225.598 144.826 225.682 144.911 225.747 145.012C225.812 145.112 225.858 145.225 225.882 145.344C225.906 145.463 225.907 145.586 225.886 145.706L220.751 175.028C220.73 175.148 220.687 175.262 220.625 175.364C220.562 175.466 220.481 175.555 220.387 175.624C220.292 175.693 220.185 175.741 220.072 175.766C219.96 175.791 219.844 175.793 219.731 175.77Z" fill="white"/>
<path d="M212.002 175.77C211.888 175.755 211.778 175.717 211.678 175.657C211.578 175.598 211.49 175.518 211.42 175.422C211.349 175.327 211.297 175.217 211.266 175.1C211.236 174.983 211.227 174.861 211.241 174.741L214.661 145.419C214.69 145.175 214.809 144.953 214.993 144.802C215.176 144.652 215.409 144.584 215.639 144.614C215.753 144.628 215.863 144.667 215.963 144.726C216.063 144.786 216.15 144.866 216.221 144.962C216.292 145.057 216.344 145.167 216.375 145.284C216.405 145.401 216.414 145.523 216.4 145.643L212.98 174.965C212.951 175.209 212.831 175.431 212.648 175.581C212.465 175.732 212.232 175.8 212.002 175.77Z" fill="white"/>
<path d="M203.43 175.77C203.315 175.763 203.203 175.732 203.1 175.679C202.996 175.625 202.904 175.551 202.828 175.46C202.752 175.369 202.693 175.263 202.656 175.148C202.619 175.033 202.603 174.912 202.61 174.79L204.32 145.468C204.327 145.347 204.356 145.228 204.406 145.119C204.456 145.01 204.527 144.912 204.613 144.831C204.699 144.751 204.799 144.689 204.907 144.65C205.016 144.61 205.131 144.594 205.246 144.601C205.477 144.617 205.692 144.729 205.846 144.913C205.999 145.096 206.078 145.336 206.065 145.581L204.355 174.903C204.349 175.024 204.319 175.143 204.269 175.252C204.219 175.361 204.149 175.459 204.063 175.54C203.977 175.62 203.876 175.682 203.768 175.722C203.659 175.761 203.544 175.778 203.43 175.77Z" fill="white"/>
<path d="M195.3 144.614H195.294C194.812 144.614 194.421 145.028 194.421 145.537V174.847C194.421 175.357 194.812 175.77 195.294 175.77H195.3C195.782 175.77 196.172 175.357 196.172 174.847V145.537C196.172 145.028 195.782 144.614 195.3 144.614Z" fill="white"/>
</g>
<path d="M217.921 194.966C217.921 195.721 218.133 196.459 218.53 197.087C218.926 197.714 219.49 198.203 220.15 198.491C220.81 198.778 221.535 198.852 222.234 198.703C222.934 198.554 223.576 198.189 224.078 197.653C224.581 197.117 224.922 196.436 225.059 195.695C225.195 194.954 225.12 194.186 224.844 193.49C224.568 192.794 224.102 192.201 223.507 191.785C222.912 191.369 222.213 191.15 221.499 191.155C220.548 191.161 219.638 191.566 218.967 192.28C218.297 192.994 217.921 193.96 217.921 194.966Z" fill="#263238"/>
<path opacity="0.5" d="M219.731 194.966C219.73 195.348 219.835 195.721 220.035 196.039C220.234 196.357 220.518 196.605 220.851 196.752C221.184 196.899 221.55 196.938 221.904 196.864C222.258 196.791 222.583 196.607 222.838 196.338C223.094 196.069 223.268 195.725 223.339 195.351C223.409 194.977 223.374 194.589 223.236 194.236C223.098 193.884 222.865 193.582 222.565 193.37C222.265 193.158 221.913 193.045 221.552 193.045C221.313 193.044 221.077 193.093 220.856 193.189C220.635 193.286 220.434 193.427 220.265 193.606C220.095 193.784 219.961 193.996 219.87 194.23C219.778 194.463 219.731 194.714 219.731 194.966Z" fill="white"/>
<path d="M193.059 194.967C193.059 195.72 193.271 196.457 193.667 197.084C194.062 197.711 194.625 198.2 195.283 198.488C195.941 198.777 196.666 198.852 197.364 198.705C198.063 198.558 198.705 198.195 199.209 197.662C199.712 197.129 200.056 196.45 200.195 195.71C200.334 194.971 200.262 194.204 199.99 193.508C199.717 192.811 199.255 192.216 198.663 191.797C198.07 191.378 197.374 191.155 196.662 191.155C195.706 191.155 194.79 191.556 194.114 192.271C193.439 192.986 193.059 193.956 193.059 194.967Z" fill="#263238"/>
<path opacity="0.5" d="M194.84 194.966C194.839 195.348 194.945 195.721 195.144 196.039C195.343 196.357 195.628 196.605 195.96 196.752C196.293 196.899 196.66 196.938 197.013 196.864C197.367 196.791 197.692 196.607 197.948 196.338C198.203 196.069 198.377 195.725 198.448 195.351C198.519 194.977 198.483 194.589 198.345 194.236C198.207 193.884 197.974 193.582 197.674 193.37C197.375 193.158 197.022 193.045 196.662 193.045C196.423 193.044 196.186 193.093 195.965 193.189C195.744 193.286 195.543 193.427 195.374 193.606C195.205 193.784 195.07 193.996 194.979 194.23C194.887 194.463 194.84 194.714 194.84 194.966Z" fill="white"/>
<path d="M159.974 194.967C159.974 195.72 160.185 196.457 160.581 197.084C160.977 197.711 161.539 198.2 162.198 198.488C162.856 198.777 163.58 198.852 164.279 198.705C164.978 198.558 165.619 198.195 166.123 197.662C166.627 197.129 166.97 196.45 167.109 195.71C167.248 194.971 167.177 194.204 166.904 193.508C166.631 192.811 166.17 192.216 165.577 191.797C164.985 191.378 164.289 191.155 163.576 191.155C162.621 191.156 161.706 191.558 161.031 192.273C160.356 192.987 159.976 193.956 159.974 194.967Z" fill="#263238"/>
<path opacity="0.5" d="M161.76 194.966C161.76 195.347 161.867 195.718 162.066 196.034C162.266 196.35 162.55 196.596 162.881 196.742C163.213 196.887 163.578 196.925 163.93 196.851C164.283 196.777 164.606 196.594 164.86 196.325C165.114 196.056 165.287 195.714 165.357 195.341C165.427 194.969 165.391 194.582 165.254 194.231C165.116 193.88 164.884 193.58 164.585 193.369C164.286 193.158 163.935 193.045 163.576 193.045C163.095 193.045 162.633 193.247 162.292 193.608C161.952 193.968 161.76 194.457 161.76 194.966Z" fill="white"/>
<path d="M46.5626 32.0234C46.4152 33.764 47.2583 35.1427 48.4374 35.1427C49.6165 35.1427 50.6895 33.7328 50.8369 32.0234C50.9842 30.314 50.1412 28.8728 48.9562 28.8728C47.7712 28.8728 46.7041 30.2828 46.5626 32.0234Z" fill="#407BFF"/>
<path d="M47.9834 23.4514C47.9834 23.4514 49.4101 24.119 48.9325 25.4229C48.9325 25.4229 50.9547 28.2927 48.9325 28.8729L46.7512 24.0067L47.9834 23.4514Z" fill="#263238"/>
<path opacity="0.5" d="M45.8434 32.0234C45.7019 33.764 46.5449 35.1427 47.724 35.1427C48.9031 35.1427 49.9761 33.7328 50.1176 32.0234C50.2591 30.314 49.4219 28.8728 48.2428 28.8728C47.0637 28.8728 45.9908 30.2828 45.8434 32.0234Z" fill="black"/>
<path d="M67.7568 192.808L71.7009 191.454L69.2484 181.609L65.3043 182.963L67.7568 192.808Z" fill="#CE7A63"/>
<path d="M71.754 190.905L67.3206 192.427C67.2456 192.451 67.1823 192.504 67.1447 192.577C67.1071 192.649 67.0983 192.735 67.1202 192.814L68.0399 196.595C68.0995 196.79 68.2294 196.953 68.4016 197.047C68.5738 197.142 68.7743 197.161 68.9596 197.1C70.4924 196.545 71.1999 196.196 73.1513 195.522C74.3304 195.11 79.4889 193.494 81.1455 192.926C82.8022 192.359 82.2244 190.643 81.4698 190.724C78.1094 191.099 73.9118 191.473 72.5146 190.924C72.27 190.829 72.0025 190.822 71.754 190.905Z" fill="#407BFF"/>
<path opacity="0.2" d="M65.3043 182.963L69.2543 181.609L70.5159 186.688L66.566 188.042L65.3043 182.963Z" fill="black"/>
<path d="M55.6888 83.3057C55.6888 83.3057 61.2954 119.035 62.9521 131.5C64.7679 145.144 71.9132 185.059 71.9132 185.059L64.591 187.199C64.591 187.199 54.1324 148.519 51.167 135.256C47.948 120.857 40.8676 83.3057 40.8676 83.3057H55.6888Z" fill="#263238"/>
<path opacity="0.5" d="M46.6982 97.948C49.5634 105.522 49.8876 118.392 48.7262 123.664C46.9576 115.005 44.9531 104.642 43.4203 96.588C43.9568 94.5292 44.959 93.3563 46.6982 97.948Z" fill="black"/>
<path d="M64.4024 187.355L72.2492 185.066L72.096 181.69L63.2645 184.916L64.4024 187.355Z" fill="#263238"/>
<path d="M73.3811 191.142C73.0243 191.256 72.6564 191.327 72.2846 191.354C72.2659 191.357 72.247 191.353 72.2302 191.345C72.2134 191.336 72.1995 191.322 72.1903 191.304C72.1803 191.288 72.175 191.268 72.175 191.248C72.175 191.228 72.1803 191.209 72.1903 191.192C72.2846 191.055 73.1571 189.863 73.6995 189.901C73.7615 189.904 73.8217 189.924 73.8743 189.959C73.9269 189.994 73.9702 190.043 74.0002 190.1C74.0548 190.182 74.0875 190.278 74.0948 190.378C74.1021 190.478 74.0836 190.578 74.0414 190.668C73.8858 190.909 73.6499 191.078 73.3811 191.142ZM72.4968 191.142C73.2455 191.049 73.7584 190.843 73.8823 190.587C73.908 190.527 73.9178 190.462 73.9105 190.397C73.9032 190.332 73.8792 190.27 73.841 190.219C73.8293 190.189 73.8097 190.164 73.7845 190.146C73.7593 190.128 73.7298 190.119 73.6995 190.119C73.4047 190.088 72.8564 190.662 72.4968 191.13V191.142Z" fill="#407BFF"/>
<path d="M72.3082 191.354H72.2611C72.245 191.352 72.2299 191.345 72.2174 191.334C72.2049 191.323 72.1956 191.308 72.1903 191.292C72.1903 191.242 71.7128 190.075 71.984 189.532C72.0184 189.462 72.0678 189.402 72.1281 189.355C72.1885 189.309 72.2582 189.277 72.3318 189.264C72.4108 189.239 72.4955 189.243 72.5723 189.275C72.6492 189.306 72.7139 189.364 72.7563 189.439C72.9862 189.863 72.6678 190.936 72.3495 191.311C72.3399 191.329 72.3256 191.344 72.3082 191.354ZM72.3082 189.483C72.2718 189.494 72.2379 189.514 72.2086 189.539C72.1793 189.565 72.155 189.597 72.1372 189.632C72.0456 190.109 72.0972 190.604 72.2846 191.049C72.5612 190.608 72.6648 190.071 72.5735 189.551C72.5735 189.495 72.491 189.439 72.3554 189.47L72.3082 189.483Z" fill="#407BFF"/>
<path d="M57.139 47.2209C58.2356 49.7164 59.4383 52.3055 60.6763 54.7386C61.2954 55.9864 61.9498 57.1592 62.6277 58.2947C63.249 59.3671 63.9529 60.3833 64.7324 61.3329C64.9945 61.6494 65.2892 61.934 65.6109 62.1814C65.6521 62.2188 65.6757 62.2251 65.658 62.2251C65.6403 62.2251 65.7052 62.2251 65.7347 62.275C65.9185 62.3216 66.106 62.3508 66.2947 62.3623C67.4804 62.3921 68.6659 62.2918 69.832 62.0629C72.373 61.6137 75.0436 60.9399 77.6494 60.2786L78.8285 63.2732C76.3456 64.7945 73.7247 66.0485 71.0052 67.0164C69.5097 67.5669 67.955 67.9169 66.3773 68.0583C65.8781 68.0945 65.3768 68.082 64.8798 68.0209C64.5664 67.9765 64.2569 67.9056 63.9542 67.8087C63.6436 67.7127 63.3417 67.5874 63.0522 67.4344C62.1847 66.9575 61.3898 66.3455 60.694 65.6189C59.5761 64.4585 58.5672 63.1861 57.6814 61.8196C56.8207 60.5344 56.0602 59.2305 55.3232 57.9204C54.5863 56.6102 53.9201 55.2814 53.2952 53.9276C52.6703 52.5738 52.0512 51.2574 51.4794 49.81L57.139 47.2209Z" fill="#CE7A63"/>
<path d="M63.8777 57.8954L57.3219 63.0736C57.3219 63.0736 57.0684 62.7803 56.6498 62.275L55.5061 60.8276C52.9592 57.546 49.2333 51.5506 49.2038 48.6122C49.1625 44.2451 53.4544 43.6212 58.271 48.0694C60.3522 50.0034 61.4369 53.2101 62.4922 55.194C62.84 55.8491 63.1348 56.4418 63.3647 56.866L63.8777 57.8954Z" fill="#407BFF"/>
<path opacity="0.5" d="M63.8777 57.8954L57.3219 63.0736C57.3219 63.0736 57.0684 62.7803 56.6498 62.275L55.5061 60.8276C52.9592 57.546 49.2333 51.5506 49.2038 48.6122C49.1625 44.2451 53.4544 43.6212 58.271 48.0694C60.3522 50.0034 61.4369 53.2101 62.4922 55.194C62.84 55.8491 63.1348 56.4418 63.3647 56.866L63.8777 57.8954Z" fill="black"/>
<path d="M28.145 194.729H32.2895L33.6691 184.56H29.5187L28.145 194.729Z" fill="#CE7A63"/>
<path d="M32.5489 194.218H27.8915C27.8109 194.217 27.7325 194.246 27.6708 194.301C27.6091 194.356 27.5682 194.433 27.5555 194.517L27.0072 198.423C26.9973 198.521 27.007 198.62 27.0356 198.714C27.0642 198.808 27.1112 198.895 27.1734 198.968C27.2357 199.042 27.3118 199.1 27.3969 199.141C27.482 199.181 27.5742 199.202 27.6675 199.203C29.2946 199.171 30.0787 199.072 32.1304 199.072C33.3861 199.072 38.7392 199.209 40.4784 199.209C42.2175 199.209 42.3178 197.387 41.5926 197.225C38.3501 196.482 34.3294 195.459 33.2387 194.486C33.0458 194.314 32.8015 194.219 32.5489 194.218Z" fill="#407BFF"/>
<path opacity="0.2" d="M29.5188 184.567H33.6692L32.9558 189.807H28.8054L29.5188 184.567Z" fill="black"/>
<path d="M48.2605 83.0812C48.2605 83.0812 45.9023 116.627 44.1749 129.192C42.3001 142.954 34.8423 188.541 34.8423 188.541H27.243C27.243 188.541 31.1459 144.065 31.8179 130.439C32.5431 115.654 33.9462 83.0812 33.9462 83.0812H48.2605Z" fill="#263238"/>
<path d="M26.9365 188.54H35.149L35.8564 185.49L26.7538 185.964L26.9365 188.54Z" fill="#263238"/>
<path d="M33.958 194.985C33.5884 194.973 33.2209 194.921 32.8615 194.829C32.8446 194.824 32.8295 194.813 32.818 194.799C32.8065 194.784 32.7991 194.767 32.7966 194.748C32.7971 194.729 32.8015 194.71 32.8097 194.693C32.8178 194.675 32.8295 194.66 32.8438 194.648C32.9853 194.555 34.2292 193.7 34.7186 193.912C34.7741 193.937 34.8221 193.977 34.8575 194.029C34.8928 194.081 34.9141 194.142 34.919 194.205C34.9362 194.305 34.9302 194.408 34.9014 194.505C34.8726 194.601 34.822 194.689 34.7539 194.761C34.5215 194.931 34.24 195.011 33.958 194.985ZM33.1445 194.679C33.6299 194.861 34.1632 194.834 34.6301 194.605C34.6746 194.558 34.7072 194.501 34.7247 194.437C34.7423 194.374 34.7442 194.307 34.7303 194.243C34.7292 194.212 34.7197 194.182 34.703 194.156C34.6863 194.131 34.6631 194.111 34.636 194.099C34.3707 193.987 33.6515 194.355 33.1445 194.679Z" fill="#407BFF"/>
<path d="M32.885 194.829H32.8438C32.8288 194.823 32.8162 194.811 32.8078 194.797C32.7993 194.782 32.7954 194.765 32.7966 194.748C32.7966 194.692 32.7966 193.432 33.2624 193.007C33.3186 192.952 33.3859 192.91 33.4593 192.885C33.5327 192.86 33.6104 192.853 33.6868 192.864C33.7667 192.865 33.8435 192.896 33.9031 192.952C33.9628 193.009 34.0011 193.086 34.0111 193.17C34.0641 193.65 33.3685 194.567 32.9381 194.829H32.885ZM33.5984 193.051C33.5201 193.053 33.4449 193.084 33.3862 193.138C33.1246 193.551 32.9888 194.039 32.9971 194.536C33.3862 194.212 33.8519 193.513 33.8165 193.201C33.8165 193.145 33.7812 193.07 33.6456 193.051H33.5984Z" fill="#407BFF"/>
<path opacity="0.3" d="M49.1625 49.1175C50.6422 48.0819 51.727 50.7645 54.6512 53.0292C55.9541 54.0398 58.8193 60.6279 58.5835 62.0816L57.3159 63.0735C57.3159 63.0735 49.1271 53.4783 49.1625 49.1175Z" fill="black"/>
<path d="M76.9597 60.4346L80.6739 57.2528L82.2539 61.8133C82.2539 61.8133 78.3216 64.209 77.3842 63.0611L76.9597 60.4346Z" fill="#CE7A63"/>
<path d="M84.8891 57.9952L85.2134 61.4702L82.2538 61.8133L80.6738 57.2528L84.8891 57.9952Z" fill="#CE7A63"/>
<path d="M55.6888 83.3058H33.5041C33.3508 81.2096 33.8107 74.3906 33.4687 65.7063C33.2562 59.2688 32.5185 52.8628 31.2638 46.5597C31.1636 46.0855 31.0634 45.6176 30.9573 45.1435C30.9573 45.1435 32.0774 44.9002 33.6928 44.6506C35.0311 44.4448 36.7054 44.2326 38.3502 44.1515C41.4919 43.9609 44.6413 43.9609 47.783 44.1515C49.2333 44.2888 50.6482 44.5446 51.7801 44.7754C53.2245 45.0811 54.0735 45.3494 54.0735 45.3494C54.0735 45.3494 59.5327 58.6441 55.6888 83.3058Z" fill="#407BFF"/>
<path opacity="0.5" d="M55.6888 83.3058H33.5041C33.3508 81.2096 33.8107 74.3906 33.4687 65.7063C33.2562 59.2688 32.5185 52.8628 31.2638 46.5597C31.1636 46.0855 31.0634 45.6176 30.9573 45.1435C30.9573 45.1435 32.0774 44.9002 33.6928 44.6506C35.0311 44.4448 36.7054 44.2326 38.3502 44.1515C41.4919 43.9609 44.6413 43.9609 47.783 44.1515C49.2333 44.2888 50.6482 44.5446 51.7801 44.7754C53.2245 45.0811 54.0735 45.3494 54.0735 45.3494C54.0735 45.3494 59.5327 58.6441 55.6888 83.3058Z" fill="black"/>
<path opacity="0.3" d="M33.4687 65.7063C33.2562 59.2688 32.5185 52.8627 31.2638 46.5596C32.7436 46.4224 35.2786 46.5596 35.6972 49.1113C36.1512 51.8376 35.5852 58.2385 33.4687 65.7063Z" fill="black"/>
<path d="M35.202 51.0016L31.8062 59.8918L30.1791 64.3213C29.672 65.7811 29.1591 67.2846 28.829 68.5761C28.5247 70.0151 28.312 71.474 28.1923 72.9432C28.0508 74.5091 27.8916 76.0937 27.7796 77.6908C27.5261 80.8851 27.2726 84.1105 26.9837 87.3234L23.918 87.3921C23.5172 84.1292 23.2519 80.8851 23.1045 77.6035C23.0396 75.9627 22.9807 74.3157 22.9983 72.6437C22.9689 70.8775 23.0814 69.1118 23.3344 67.3657C23.6558 65.6577 24.0692 63.9705 24.5724 62.3124C25.0382 60.7153 25.5393 59.1556 26.064 57.6084C27.1134 54.489 28.2335 51.4882 29.4716 48.4624L35.202 51.0016Z" fill="#CE7A63"/>
<path d="M36.4578 53.1353C35.4269 56.1777 34.2261 59.1526 32.8615 62.0442C32.5667 62.6992 32.272 63.2919 32.0715 63.7473C31.6765 64.5708 31.4289 65.0637 31.4289 65.0637L23.0278 60.1414C23.0278 60.1414 23.134 59.767 23.3226 59.1369C23.47 58.6628 23.6586 58.0451 23.9122 57.3277C25.3094 53.1041 28.1687 45.5739 30.9867 45.1435C35.1431 44.5009 38.1498 47.8136 36.4578 53.1353Z" fill="#407BFF"/>
<path opacity="0.5" d="M36.4578 53.1353C35.4269 56.1777 34.2261 59.1526 32.8615 62.0442C32.5667 62.6992 32.272 63.2919 32.0715 63.7473C31.6765 64.5708 31.4289 65.0637 31.4289 65.0637L23.0278 60.1414C23.0278 60.1414 23.134 59.767 23.3226 59.1369C23.47 58.6628 23.6586 58.0451 23.9122 57.3277C25.3094 53.1041 28.1687 45.5739 30.9867 45.1435C35.1431 44.5009 38.1498 47.8136 36.4578 53.1353Z" fill="black"/>
<path d="M43.9627 46.8591C38.6568 46.7593 37.9906 44.1703 37.9906 44.1703C40.0422 42.0304 39.2522 36.1722 38.5801 32.9406L41.1034 35.1553L44.5405 38.1748C44.44 38.6585 44.3671 39.148 44.3224 39.6409C44.1396 41.6124 44.6171 43.3842 47.3585 44.0954C47.3585 44.0954 50.6128 46.3725 45.7844 46.7843L43.9627 46.8591Z" fill="#CE7A63"/>
<path opacity="0.2" d="M44.511 38.1935C44.4105 38.6771 44.3376 39.1667 44.2928 39.6596C43.0135 39.3914 41.2979 37.944 41.1211 36.5403C41.0607 36.0815 41.0449 35.6174 41.0739 35.1553L44.511 38.1935Z" fill="black"/>
<path d="M37.513 28.3364C38.3914 32.6037 38.6921 35.1428 41.0503 37.0706C41.8179 37.7119 42.7365 38.1191 43.7069 38.2479C44.6773 38.3768 45.6625 38.2225 46.556 37.8018C47.4495 37.381 48.2174 36.7098 48.7765 35.8607C49.3357 35.0116 49.6648 34.017 49.7285 32.9842C50.0468 29.0102 48.5494 22.6966 44.3164 21.4863C43.4037 21.2042 42.4371 21.1807 41.5131 21.4181C40.5891 21.6555 39.7403 22.1455 39.0515 22.839C38.3626 23.5326 37.858 24.4054 37.588 25.3701C37.318 26.3349 37.2922 27.3577 37.513 28.3364Z" fill="#CE7A63"/>
<path d="M36.5815 32.7907C37.2333 33.6237 38.1373 34.1924 39.1402 34.4003C40.4136 34.6312 40.7025 33.3834 40.054 32.1794C39.4644 31.0938 38.1085 29.6839 36.9765 29.9896C35.8446 30.2953 35.7562 31.7426 36.5815 32.7907Z" fill="#CE7A63"/>
<path d="M43.8743 28.7606C43.9273 29.11 44.1455 29.3845 44.3636 29.3408C44.5817 29.2971 44.7114 29.0102 44.6643 28.6608C44.6171 28.3114 44.3931 28.0369 44.1749 28.0743C43.9568 28.1118 43.8271 28.4112 43.8743 28.7606Z" fill="#263238"/>
<path d="M47.6296 28.2864C47.6827 28.6357 47.9008 28.9102 48.119 28.8728C48.3371 28.8354 48.4668 28.5359 48.4196 28.1865C48.3725 27.8372 48.1484 27.5627 47.9303 27.6001C47.7122 27.6375 47.5825 27.937 47.6296 28.2864Z" fill="#263238"/>
<path d="M46.4624 28.6108C47.0169 29.6329 47.6968 30.5727 48.4845 31.4058C48.2791 31.605 48.0348 31.7541 47.7689 31.8425C47.503 31.9309 47.2221 31.9564 46.9458 31.9174L46.4624 28.6108Z" fill="#BA4D3C"/>
<path d="M45.7254 33.0652C45.3374 33.0705 44.9524 32.9925 44.5937 32.836C44.235 32.6794 43.91 32.4475 43.6384 32.1544C43.6265 32.1449 43.6168 32.1327 43.6099 32.1188C43.603 32.1048 43.5991 32.0894 43.5986 32.0737C43.598 32.058 43.6008 32.0423 43.6066 32.0278C43.6125 32.0134 43.6214 32.0005 43.6325 31.9901C43.6437 31.9797 43.6569 31.972 43.6712 31.9677C43.6855 31.9634 43.7005 31.9625 43.7152 31.9651C43.7299 31.9677 43.7438 31.9737 43.756 31.9827C43.7682 31.9917 43.7784 32.0034 43.7858 32.0171C44.0858 32.3302 44.4494 32.5666 44.8489 32.7082C45.2484 32.8499 45.6732 32.893 46.0909 32.8344C46.1057 32.8305 46.1211 32.8302 46.136 32.8336C46.1508 32.837 46.1648 32.8439 46.1768 32.8538C46.1888 32.8637 46.1985 32.8764 46.2051 32.8909C46.2118 32.9053 46.2153 32.9212 46.2153 32.9373C46.2153 32.9534 46.2118 32.9693 46.2051 32.9838C46.1985 32.9983 46.1888 33.0109 46.1768 33.0209C46.1648 33.0308 46.1508 33.0377 46.136 33.041C46.1211 33.0444 46.1057 33.0441 46.0909 33.0403C45.9697 33.0565 45.8476 33.0648 45.7254 33.0652Z" fill="#263238"/>
<path d="M42.5301 27.6251C42.4993 27.6345 42.4666 27.6345 42.4358 27.6251C42.4133 27.6121 42.3934 27.5945 42.3773 27.5733C42.3613 27.5521 42.3494 27.5277 42.3422 27.5016C42.3351 27.4755 42.3329 27.4482 42.3358 27.4212C42.3387 27.3942 42.3467 27.3681 42.3591 27.3444C42.503 27.0544 42.7122 26.8064 42.9683 26.6225C43.2243 26.4386 43.5193 26.3244 43.8271 26.29C43.8736 26.2986 43.9158 26.3242 43.9462 26.3625C43.9766 26.4007 43.9933 26.4491 43.9933 26.499C43.9933 26.549 43.9766 26.5974 43.9462 26.6356C43.9158 26.6738 43.8736 26.6995 43.8271 26.708C43.5864 26.7376 43.3562 26.8293 43.1567 26.9751C42.9573 27.1208 42.7948 27.3162 42.6834 27.544C42.6651 27.5687 42.6419 27.5888 42.6154 27.6028C42.5889 27.6168 42.5597 27.6244 42.5301 27.6251Z" fill="#263238"/>
<path d="M49.0446 26.7206C49.0134 26.7206 48.9826 26.7127 48.9549 26.6975C48.9272 26.6823 48.9034 26.6603 48.8854 26.6333C48.7492 26.4088 48.5663 26.2201 48.3507 26.0817C48.1351 25.9433 47.8926 25.8589 47.6415 25.8347C47.6159 25.8347 47.5906 25.8294 47.567 25.819C47.5434 25.8087 47.5219 25.7935 47.5039 25.7744C47.4858 25.7553 47.4715 25.7326 47.4617 25.7076C47.4519 25.6826 47.4469 25.6559 47.4469 25.6288C47.4469 25.6013 47.4521 25.574 47.4622 25.5486C47.4724 25.5232 47.4873 25.5002 47.5059 25.481C47.5246 25.4618 47.5468 25.4468 47.5711 25.4368C47.5954 25.4268 47.6213 25.4221 47.6473 25.4229C47.9615 25.4448 48.2664 25.5443 48.5377 25.7133C48.809 25.8823 49.0391 26.1162 49.2096 26.3962C49.2376 26.4431 49.2477 26.4994 49.2379 26.5539C49.228 26.6083 49.199 26.6568 49.1566 26.6894C49.1222 26.7093 49.0837 26.72 49.0446 26.7206Z" fill="#263238"/>
<path d="M24.0477 86.2255L22.1965 90.2058L27.3787 89.4696C27.3787 89.4696 28.4163 85.639 26.5061 85.2335L24.0477 86.2255Z" fill="#CE7A63"/>
<path d="M23.6409 94.0488L27.8916 93.2253L27.3787 89.4696L22.1965 90.2058L23.6409 94.0488Z" fill="#CE7A63"/>
<path d="M39.8122 19.7893C39.8122 19.7893 37.6368 14.5613 36.0391 18.9284C36.0391 18.9284 32.5018 16.2831 32.5018 19.964C32.5018 19.964 29.4715 20.7937 31.7472 23.2393C31.7472 23.2393 29.1237 24.9363 31.7472 26.9451C31.7472 26.9451 30.6093 30.0083 33.2387 30.2704C33.2387 30.2704 33.2387 34.2382 35.4967 32.0235C35.4967 32.0235 36.0391 36.6089 38.4975 34.0573L38.7923 31.5618C38.7923 31.5618 40.7024 30.1581 39.3288 25.5788C39.3288 25.5788 45.3304 26.7829 44.2456 24.8552C44.2456 24.8552 49.5515 25.3231 48.9089 23.0896C48.9089 23.0896 51.5324 21.6796 50.3415 20.538C50.3415 20.538 51.9097 14.1869 48.3194 16.2457C48.3194 16.2457 46.8986 12.1718 45.2243 15.834C45.2243 15.834 43.4556 15.3349 43.1726 17.5746C43.1726 17.5746 42.3708 16.9507 42.1055 18.9284L39.8122 19.7893Z" fill="#263238"/>
<path d="M36.4401 29.8086V25.2293C36.4393 23.875 36.8514 22.5566 37.615 21.4698C38.3786 20.383 39.4531 19.5857 40.6789 19.1965L42.1292 18.9282C40.8717 19.3258 39.769 20.1423 38.9851 21.2562C38.2012 22.3701 37.778 23.7219 37.7783 25.1108V29.8086H36.4401Z" fill="#407BFF"/>
<path d="M39.7946 32.0234C39.942 33.764 39.0989 35.1427 37.9199 35.1427C36.7408 35.1427 35.6678 33.7328 35.5204 32.0234C35.373 30.314 36.2161 28.8728 37.4011 28.8728C38.586 28.8728 39.6531 30.2828 39.7946 32.0234Z" fill="#407BFF"/>
<path opacity="0.5" d="M39.7946 32.0234C39.942 33.764 39.0989 35.1427 37.9199 35.1427C36.7408 35.1427 35.6678 33.7328 35.5204 32.0234C35.373 30.314 36.2161 28.8728 37.4011 28.8728C38.586 28.8728 39.6531 30.2828 39.7946 32.0234Z" fill="black"/>
<path d="M39.0812 32.0234C39.2227 33.764 38.3855 35.1427 37.2064 35.1427C36.0273 35.1427 34.9485 33.7328 34.807 32.0234C34.6655 30.314 35.5026 28.8728 36.6817 28.8728C37.8608 28.8728 38.9397 30.2828 39.0812 32.0234Z" fill="#407BFF"/>
<g opacity="0.5">
<path d="M35.0487 32.4852C35.2668 33.3836 35.8682 34.0574 36.5226 34.0574C37.177 34.0574 37.6663 33.3836 37.7312 32.4852H35.0487Z" fill="white"/>
<path d="M37.6604 31.5618C37.4423 30.6634 36.8409 29.9896 36.1865 29.9896C35.5321 29.9896 35.0428 30.6634 34.972 31.5618H37.6604Z" fill="white"/>
</g>
</svg>
